if (_typeface_js && _typeface_js.loadFace) _typeface_js.loadFace({"glyphs":{"ᴴ":{"x_min":27.8125,"x_max":564.234375,"ha":592,"o":"m 126 1019 l 204 1019 l 164 787 l 446 787 l 486 1020 l 564 1020 l 465 453 l 387 453 l 434 723 l 152 723 l 105 453 l 27 453 l 126 1019 "},"Ҿ":{"x_min":51.5625,"x_max":1116.984375,"ha":1161,"o":"m 281 595 q 444 888 332 773 q 776 1031 584 1031 q 1058 888 972 1031 q 1101 482 1146 739 l 389 482 q 422 196 357 300 q 656 92 488 92 q 823 125 740 92 q 985 222 906 158 l 960 76 q 799 4 883 29 q 625 -20 715 -20 q 315 119 412 -20 q 258 482 224 250 q 95 551 157 482 q 59 775 33 620 l 68 826 l 172 826 l 165 784 q 184 631 144 670 q 281 595 222 595 m 413 595 l 991 595 q 946 808 991 724 q 754 920 887 920 q 523 808 620 920 q 413 595 450 724 m 577 0 l 649 0 q 591 -79 610 -45 q 572 -137 572 -113 q 585 -172 572 -161 q 626 -184 599 -184 q 665 -178 644 -184 q 709 -163 687 -173 l 694 -253 q 650 -265 672 -261 q 610 -269 628 -269 q 515 -243 547 -269 q 484 -166 484 -217 q 507 -89 484 -131 q 577 0 530 -48 "},"ȋ":{"x_min":43.78125,"x_max":462,"ha":347,"o":"m 461 896 l 391 896 l 391 906 q 365 975 391 952 q 287 998 340 998 q 202 973 235 998 q 149 896 168 948 l 79 896 q 155 1040 98 990 q 303 1091 213 1091 q 421 1047 381 1091 q 462 918 462 1003 q 461 906 462 914 q 461 896 461 899 m 177 760 l 289 760 l 155 0 l 43 0 l 177 760 "},"ճ":{"x_min":79.203125,"x_max":793.453125,"ha":792,"o":"m 674 368 l 609 0 l 497 0 l 516 116 q 404 13 464 47 q 272 -20 344 -20 q 108 61 153 -20 q 88 299 62 144 l 97 349 q 204 644 126 513 l 149 644 l 169 759 l 289 759 q 463 908 363 842 q 793 1054 640 1023 l 772 936 q 514 819 636 897 q 432 759 469 791 l 484 759 q 659 626 602 759 q 674 368 701 528 m 326 644 q 210 354 240 521 l 202 304 q 211 142 183 194 q 315 89 241 89 q 470 153 406 89 q 554 328 534 217 l 561 368 q 564 536 582 489 q 457 644 522 644 l 326 644 "},"⣌":{"x_min":183,"x_max":732,"ha":915,"o":"m 183 317 l 366 317 l 366 114 l 183 114 l 183 317 m 549 1085 l 732 1085 l 732 882 l 549 882 l 549 1085 m 183 -68 l 366 -68 l 366 -271 l 183 -271 l 183 -68 m 549 -68 l 732 -68 l 732 -271 l 549 -271 l 549 -68 "},"׃":{"x_min":61.03125,"x_max":307.203125,"ha":368,"o":"m 193 760 l 307 760 l 283 623 l 170 623 l 193 760 m 84 137 l 198 137 l 174 0 l 61 0 l 84 137 "},"𝘳":{"x_min":44.078125,"x_max":578.484375,"ha":513,"o":"m 557 643 q 518 659 539 654 q 471 665 496 665 q 313 589 381 665 q 225 387 246 513 l 155 0 l 44 0 l 177 759 l 290 759 l 268 641 q 375 742 313 706 q 507 778 436 778 q 543 775 525 778 q 578 767 560 773 l 557 643 "},"Ꙫ":{"x_min":57.71875,"x_max":1011.296875,"ha":1069,"o":"m 353 568 l 482 568 l 452 396 l 323 396 l 353 568 m 609 568 l 738 568 l 708 396 l 579 396 l 609 568 m 805 122 q 442 -20 653 -20 q 129 122 231 -20 q 70 505 27 264 q 263 888 112 745 q 626 1031 415 1031 q 939 888 838 1031 q 998 505 1040 745 q 805 122 956 265 m 823 808 q 606 920 754 920 q 350 808 458 920 q 210 505 243 697 q 244 202 176 313 q 461 91 313 91 q 717 202 609 91 q 857 505 824 313 q 823 808 891 697 "},"ꙥ":{"x_min":-19.671875,"x_max":1131.859375,"ha":1125,"o":"m -19 0 l -1 103 q 162 208 116 123 q 278 635 222 318 l 300 760 l 1131 760 l 1114 660 l 744 660 l 629 0 l 516 0 l 516 0 l 632 660 l 394 660 l 381 584 q 251 156 332 295 q -19 0 172 19 "},"⏥":{"x_min":3.390625,"x_max":957.578125,"ha":961,"o":"m 684 181 l 851 540 l 276 540 l 109 181 l 684 181 m 717 104 l 3 104 l 244 617 l 957 617 l 717 104 "},"ϼ":{"x_min":-27.125,"x_max":760.203125,"ha":793,"o":"m 54 -98 l 136 372 q 235 624 164 529 q 387 754 284 693 q 539 778 427 778 q 721 668 663 778 q 749 379 780 558 q 620 90 718 200 q 399 -19 523 -19 q 276 14 324 -19 q 204 114 227 46 l 167 -98 l 463 -98 l 442 -213 l 147 -213 l 133 -288 l 21 -288 l 34 -213 l -27 -213 l -7 -98 l 54 -98 m 632 379 q 619 595 657 517 q 493 674 582 674 q 339 595 404 674 q 250 379 274 517 q 263 163 226 241 q 390 85 301 85 q 543 163 479 85 q 632 379 608 241 "},"◦":{"x_min":187,"x_max":550,"ha":737,"o":"m 224 516 q 265 401 224 448 q 368 355 307 355 q 471 401 429 355 q 513 516 513 448 q 471 630 513 583 q 369 677 429 677 q 265 630 307 677 q 224 516 224 583 m 187 516 q 239 658 187 600 q 369 717 292 717 q 497 658 445 717 q 550 516 550 600 q 497 373 550 431 q 368 315 444 315 q 239 373 292 315 q 187 516 187 431 "},"Ⅽ":{"x_min":52,"x_max":868.3125,"ha":872,"o":"m 868 934 l 843 790 q 718 888 784 856 q 576 920 653 920 q 393 864 472 920 q 257 694 314 808 q 201 539 220 621 q 182 374 182 457 q 246 163 182 236 q 433 91 310 91 q 596 121 518 91 q 748 211 674 151 l 719 49 q 573 -2 647 15 q 424 -20 498 -20 q 150 85 249 -20 q 52 380 52 191 q 89 617 52 501 q 197 830 127 734 q 367 982 271 933 q 589 1031 462 1031 q 738 1006 668 1031 q 868 934 807 982 "},"ͅ":{"x_min":-445.59375,"x_max":-314,"ha":0,"o":"m -322 -289 l -412 -289 q -440 -266 -427 -289 q -443 -217 -448 -248 l -416 -62 l -325 -62 l -352 -217 q -349 -235 -354 -227 q -335 -244 -343 -244 l -314 -244 l -322 -289 "},"ѕ":{"x_min":14.078125,"x_max":624.890625,"ha":651,"o":"m 624 736 l 603 618 q 509 659 558 645 q 407 673 460 673 q 268 639 319 673 q 217 548 217 605 q 335 445 217 480 q 348 440 344 442 l 384 428 q 534 356 497 394 q 572 252 572 318 q 485 55 572 131 q 259 -20 399 -20 q 145 -8 205 -20 q 14 27 85 2 l 35 155 q 157 102 97 120 q 271 84 216 84 q 405 123 354 84 q 457 223 457 162 q 321 328 457 288 l 310 331 l 271 342 q 146 408 186 367 q 107 513 107 449 q 189 705 107 634 q 412 777 271 777 q 520 766 467 777 q 624 736 573 756 "},"𝘵":{"x_min":80.09375,"x_max":528.78125,"ha":490,"o":"m 528 760 l 511 663 l 288 663 l 215 250 q 209 211 211 226 q 208 186 208 195 q 231 123 208 143 q 307 104 254 104 l 420 104 l 401 0 l 293 0 q 144 43 193 0 q 95 174 95 86 q 97 209 95 190 q 102 250 99 227 l 175 663 l 80 663 l 97 760 l 191 760 l 229 975 l 341 975 l 304 760 l 528 760 "},"⚭":{"x_min":219,"x_max":828,"ha":1047,"o":"m 440 371 q 417 415 427 392 q 402 505 402 458 q 417 598 402 558 q 440 643 427 621 q 431 643 436 643 q 385 632 406 643 q 345 602 360 620 q 319 558 328 581 q 310 506 310 534 q 319 455 310 479 q 345 411 328 429 q 385 381 363 392 q 431 371 406 371 q 440 371 436 371 m 523 292 q 513 286 518 289 q 431 269 476 269 q 351 286 386 269 q 282 338 310 307 q 234 415 251 372 q 219 505 219 458 q 234 598 219 555 q 282 675 251 641 q 351 727 311 708 q 431 745 387 745 q 513 727 478 745 q 523 721 518 724 q 534 727 528 724 q 615 745 570 745 q 696 727 659 745 q 765 675 735 708 q 812 598 796 641 q 828 505 828 555 q 812 415 828 458 q 765 338 796 372 q 696 286 737 307 q 615 269 661 269 q 534 286 570 269 q 523 292 528 289 m 606 371 l 615 371 q 661 381 640 371 q 701 411 681 390 q 728 455 718 429 q 737 506 737 479 q 728 558 737 534 q 701 602 717 585 q 661 632 681 624 q 615 643 640 643 q 607 643 611 643 q 629 598 619 621 q 645 505 645 555 q 629 415 645 458 q 606 371 619 392 m 523 417 q 545 455 536 433 q 554 506 554 479 q 545 558 554 534 q 523 596 536 580 q 502 558 509 576 q 493 506 493 534 q 502 455 493 479 q 523 417 510 433 "},"╲":{"x_min":-65.78125,"x_max":819.90625,"ha":752,"o":"m 819 -419 l 711 -419 l -65 1351 l 42 1351 l 819 -419 "},"◴":{"x_min":68,"x_max":1022,"ha":1090,"o":"m 131 94 q 68 359 68 217 q 131 623 68 500 q 306 818 195 747 q 545 889 417 889 q 783 818 672 889 q 957 623 893 747 q 1022 359 1022 500 q 957 94 1022 217 q 783 -99 893 -28 q 545 -171 672 -171 q 306 -99 417 -171 q 131 94 195 -28 m 509 813 q 338 750 423 803 q 147 399 147 629 l 509 399 l 509 813 m 147 322 q 335 -28 147 91 q 540 -94 438 -94 q 745 -28 642 -94 q 950 360 950 101 q 747 750 950 619 q 579 813 663 803 l 579 322 l 147 322 "},"℣":{"x_min":17.625,"x_max":1022,"ha":855,"o":"m 387 573 l 621 1011 l 437 1099 l 478 1175 l 724 1057 l 405 460 l 455 160 l 893 1013 l 1022 1013 l 497 0 l 357 0 l 310 280 l 80 -150 l 17 -120 l 291 392 l 186 1013 l 315 1013 l 387 573 "},"໊":{"x_min":-748.734375,"x_max":29.15625,"ha":0,"o":"m -629 830 q -742 1017 -775 830 q -531 1207 -710 1207 q -469 1163 -500 1207 q -413 1120 -439 1120 q -337 1164 -389 1120 q -242 1207 -286 1207 q -133 1061 -107 1207 q -251 933 -148 975 q -129 940 -171 933 q -63 1022 -79 951 l 29 1022 q -61 871 12 933 q -264 847 -89 847 l -384 847 l -368 937 q -217 1076 -229 1009 q -257 1114 -210 1114 q -319 1075 -271 1114 q -423 1036 -367 1036 q -504 1066 -487 1036 q -548 1114 -534 1114 q -655 1016 -637 1114 q -612 907 -673 907 l -574 907 q -590 972 -602 907 q -521 1033 -580 1033 q -472 960 -458 1033 q -528 857 -485 891 q -629 830 -564 830 "},"≷":{"x_min":127,"x_max":916,"ha":1048,"o":"m 910 373 l 323 185 l 910 0 l 910 -120 l 127 128 l 127 244 l 910 493 l 910 373 m 133 833 l 133 953 l 916 704 l 916 588 l 133 339 l 133 459 l 719 645 l 133 833 "},"︢":{"x_min":-258.375,"x_max":210.90625,"ha":0,"o":"m 191 1090 l 189 1092 l 107 1129 q 46 1149 92 1137 q -2 1156 20 1156 q -99 1131 -63 1156 q -160 1051 -148 1099 l -258 1051 q -162 1192 -240 1142 q 36 1242 -85 1242 q 128 1232 92 1242 q 210 1202 161 1223 l 191 1090 "},"ἣ":{"x_min":70.53125,"x_max":733.484375,"ha":792,"o":"m 583 1111 l 711 857 l 617 857 l 463 1111 l 583 1111 m 240 1006 l 257 1107 l 404 1107 l 385 1000 l 304 1000 q 368 894 286 894 l 356 825 q 240 1006 208 825 m 722 458 l 592 -289 l 480 -289 l 610 454 q 600 615 629 561 q 497 669 572 669 q 341 604 405 669 q 259 429 278 540 l 183 0 l 70 0 l 204 759 l 316 759 l 295 641 q 408 743 347 709 q 540 778 469 778 q 705 696 658 778 q 722 458 750 615 "},"╋":{"x_min":-12,"x_max":765,"ha":752,"o":"m 278 -419 l 278 278 l -12 278 l -12 511 l 278 511 l 278 1351 l 473 1351 l 473 511 l 765 511 l 765 278 l 473 278 l 473 -419 l 278 -419 "},"ԋ":{"x_min":47.671875,"x_max":1117.453125,"ha":1208,"o":"m 771 759 l 680 241 q 678 211 678 225 q 699 135 678 170 q 791 89 728 89 q 900 142 855 89 q 966 304 948 198 l 1004 522 l 1117 522 l 1078 299 q 975 61 1050 139 q 771 -20 897 -20 q 595 59 650 -20 q 559 173 559 112 q 563 211 559 192 l 586 350 l 221 350 l 160 0 l 47 0 l 180 759 l 293 759 l 238 447 l 603 447 l 658 759 l 771 759 "},"ᓠ":{"x_min":110.34375,"x_max":1335.5625,"ha":1323,"o":"m 134 572 l 258 572 l 235 433 l 110 433 l 134 572 m 607 112 l 587 0 q 374 81 443 0 q 326 237 326 138 q 334 322 326 276 q 452 548 359 472 q 697 625 545 625 l 1335 625 l 1315 510 l 677 510 q 534 460 589 510 q 463 322 479 411 q 458 265 458 292 q 495 161 458 197 q 607 112 547 112 m 733 884 l 857 884 l 833 745 l 708 745 l 733 884 "},"✉":{"x_min":81,"x_max":967,"ha":1047,"o":"m 619 591 l 887 794 l 160 794 l 429 591 q 437 602 433 597 q 477 632 455 621 q 523 643 498 643 q 570 632 548 643 q 609 602 596 619 q 619 591 614 596 m 643 481 l 906 284 l 906 727 l 643 530 q 645 506 645 518 q 643 481 645 493 m 430 421 l 160 217 l 887 217 l 617 421 q 609 411 613 415 q 570 381 592 392 q 523 371 548 371 q 477 381 498 371 q 437 411 455 392 q 430 421 433 415 m 404 531 l 142 727 l 142 284 l 404 480 q 402 506 402 493 q 404 531 402 518 m 81 149 l 81 863 l 967 863 l 967 149 l 81 149 "},"⇱":{"x_min":75,"x_max":984.75,"ha":1047,"o":"m 984 1012 l 984 945 l 135 945 l 135 0 l 75 0 l 75 1012 l 984 1012 m 252 773 l 290 816 l 629 816 l 629 701 l 428 701 l 954 116 l 881 34 l 355 619 l 355 395 l 252 395 l 252 773 "},"ᕺ":{"x_min":90.21875,"x_max":970,"ha":1038,"o":"m 613 89 q 751 144 688 89 q 831 302 813 199 q 837 360 837 333 q 792 472 837 429 q 689 516 747 516 q 546 458 611 516 q 464 302 482 401 q 460 247 460 272 q 506 133 460 177 q 613 89 552 89 m 588 1012 l 512 574 q 708 624 599 624 q 910 554 851 624 q 970 386 970 485 q 961 301 970 347 q 829 56 932 132 q 595 -20 727 -20 q 392 49 451 -20 q 333 216 333 119 q 341 302 333 256 l 443 883 l 172 527 l 90 596 l 412 1012 l 588 1012 m 540 1269 l 664 1269 l 640 1130 l 514 1130 l 540 1269 "},"k":{"x_min":44.078125,"x_max":764.96875,"ha":724,"o":"m 229 1055 l 341 1055 l 233 439 l 619 759 l 764 759 l 335 395 l 649 -1 l 512 -1 l 221 370 l 155 0 l 44 0 l 229 1055 "},"ȇ":{"x_min":58,"x_max":714,"ha":770,"o":"m 600 447 q 603 469 602 457 q 605 492 605 481 q 561 623 605 575 q 442 672 517 672 q 295 613 359 672 q 198 447 231 554 l 600 447 m 698 350 l 177 350 q 172 309 173 324 q 171 283 171 294 q 223 137 171 189 q 370 85 275 85 q 508 104 443 85 q 630 157 573 122 l 608 34 q 483 -6 548 7 q 352 -20 419 -20 q 134 55 210 -20 q 58 270 58 131 q 95 491 58 389 q 207 673 133 593 q 321 750 255 723 q 460 777 387 777 q 645 700 576 777 q 714 493 714 623 q 710 426 714 461 q 698 350 706 390 m 693 896 l 623 896 l 623 906 q 597 974 623 951 q 519 997 572 997 q 434 972 467 997 q 381 896 400 947 l 311 896 q 388 1039 330 989 q 535 1090 446 1090 q 653 1046 613 1090 q 694 918 694 1002 q 693 906 694 914 q 693 896 693 899 "},"╾":{"x_min":-12,"x_max":765.0625,"ha":752,"o":"m -12 278 l -12 511 l 388 511 l 388 453 l 765 453 l 765 336 l 388 336 l 388 278 l -12 278 "},"𝍖":{"x_min":104,"x_max":1017,"ha":1121,"o":"m 311 0 l 104 0 l 104 136 l 311 136 l 311 0 m 810 0 l 810 136 l 1017 136 l 1017 0 l 810 0 m 663 0 l 457 0 l 457 136 l 663 136 l 663 0 m 311 260 l 104 260 l 104 396 l 311 396 l 311 260 m 810 260 l 810 396 l 1017 396 l 1017 260 l 810 260 m 663 260 l 457 260 l 457 396 l 663 396 l 663 260 m 311 521 l 104 521 l 104 657 l 311 657 l 311 521 m 810 521 l 810 657 l 1017 657 l 1017 521 l 810 521 m 663 521 l 457 521 l 457 657 l 663 657 l 663 521 m 311 781 l 104 781 l 104 917 l 311 917 l 311 781 m 810 781 l 810 917 l 1017 917 l 1017 781 l 810 781 m 663 781 l 457 781 l 457 917 l 663 917 l 663 781 "},"≚":{"x_min":132,"x_max":915,"ha":1047,"o":"m 132 631 l 915 631 l 915 517 l 132 517 l 132 631 m 132 354 l 915 354 l 915 239 l 132 239 l 132 354 m 310 1128 l 412 1128 l 524 807 l 640 1128 l 737 1128 l 579 674 l 469 674 l 310 1128 "},"Ⴣ":{"x_min":70.90625,"x_max":689.875,"ha":678,"o":"m 383 0 l 455 412 q 398 388 425 395 q 344 381 371 381 q 257 401 295 381 q 194 456 219 421 q 162 526 169 491 q 155 586 155 561 q 159 638 155 611 l 167 681 l 70 681 l 93 808 l 314 808 l 295 700 q 287 637 290 662 q 285 600 285 613 q 290 558 285 580 q 312 520 295 536 q 366 504 330 504 q 409 514 388 504 q 448 541 430 524 q 477 583 465 559 q 494 634 489 607 l 565 1042 l 689 1042 l 508 0 l 383 0 "},"☈":{"x_min":104,"x_max":1009.546875,"ha":1119,"o":"m 144 1015 l 970 1015 q 1009 959 1009 1015 q 992 918 1009 936 l 642 530 l 939 201 l 1004 346 l 1004 51 l 733 51 l 874 136 l 552 498 q 543 540 543 509 q 574 593 543 559 l 870 918 l 191 918 l 191 47 q 147 0 191 0 q 104 45 104 0 l 104 976 q 144 1015 104 1015 "},"ჳ":{"x_min":14,"x_max":661.328125,"ha":635,"o":"m 534 -13 q 227 -288 486 -288 q 14 -94 14 -288 q 21 -13 14 -57 l 53 61 l 161 47 l 137 -13 q 132 -72 132 -45 q 246 -192 132 -192 q 418 -13 388 -192 l 422 7 q 429 71 429 43 q 289 210 429 210 l 288 210 l 218 210 l 237 319 l 307 319 q 500 551 457 319 l 508 600 l 258 600 l 233 451 l 127 451 l 169 698 l 661 698 q 416 268 606 393 q 544 67 544 204 q 538 7 544 39 l 534 -13 "},"ꜷ":{"x_min":52,"x_max":1188.5625,"ha":1245,"o":"m 529 124 q 515 101 523 111 q 250 -20 427 -20 q 107 39 163 -20 q 52 191 52 98 q 147 401 52 324 q 410 479 242 479 l 566 479 l 572 512 q 575 544 575 525 q 530 638 575 604 q 406 672 486 672 q 293 656 351 672 q 175 609 236 640 l 195 724 q 319 764 258 751 q 437 777 380 777 q 620 719 557 777 q 684 549 684 661 q 671 432 684 502 l 645 283 q 637 209 637 239 q 669 120 637 151 q 759 89 701 89 q 915 156 849 89 q 1001 338 981 223 l 1076 759 l 1188 759 l 1056 0 l 943 0 l 966 119 q 853 16 918 52 q 706 -20 787 -20 q 573 35 624 -20 q 529 124 541 70 m 549 381 l 437 381 q 234 340 300 381 q 167 213 167 299 q 201 119 167 153 q 295 85 235 85 q 454 158 386 85 q 545 353 522 231 l 549 381 "},"▎":{"x_min":-12,"x_max":234,"ha":961,"o":"m -12 -347 l -12 1069 l 234 1069 l 234 -347 l -12 -347 "},"ƀ":{"x_min":23.0625,"x_max":711.765625,"ha":793,"o":"m 583 378 q 571 594 608 516 q 445 673 534 673 q 290 594 356 673 q 202 378 226 516 q 215 162 178 240 q 341 84 252 84 q 495 162 430 84 q 583 378 560 240 m 248 643 q 356 743 295 711 q 491 777 415 777 q 673 667 615 777 q 700 378 732 557 q 572 89 669 199 q 351 -20 475 -20 q 227 12 276 -20 q 155 113 179 45 l 136 0 l 23 0 l 174 870 l 81 870 l 95 955 l 189 955 l 207 1055 l 320 1055 l 302 955 l 501 955 l 486 870 l 288 870 l 248 643 "},"⎢":{"x_min":107,"x_max":226,"ha":624,"o":"m 107 1070 l 226 1070 l 226 -350 l 107 -350 l 107 1070 "},"∺":{"x_min":132,"x_max":916,"ha":1048,"o":"m 787 766 l 916 766 l 916 594 l 787 594 l 787 766 m 786 280 l 915 280 l 915 108 l 786 108 l 786 280 m 133 766 l 262 766 l 262 594 l 133 594 l 133 766 m 132 280 l 261 280 l 261 108 l 132 108 l 132 280 m 133 493 l 915 493 l 915 378 l 133 378 l 133 493 "},"Ϋ":{"x_min":78.671875,"x_max":845,"ha":763,"o":"m 78 1013 l 210 1013 l 381 596 l 705 1013 l 845 1013 l 431 482 l 347 0 l 223 0 l 307 482 l 78 1013 m 316 1269 l 440 1269 l 415 1131 l 292 1131 l 316 1269 m 555 1269 l 678 1269 l 655 1131 l 531 1131 l 555 1269 "},"҆":{"x_min":-408.9375,"x_max":-212.265625,"ha":0,"o":"m -229 1006 q -408 826 -261 826 l -396 895 q -296 1000 -315 895 l -377 1000 l -359 1107 l -212 1107 l -229 1006 "},"▥":{"x_min":113,"x_max":1067,"ha":1180,"o":"m 113 -171 l 113 893 l 1067 893 l 1067 -171 l 113 -171 m 892 -92 l 999 -92 l 999 814 l 892 814 l 892 -92 m 714 -92 l 822 -92 l 822 814 l 714 814 l 714 -92 m 537 -92 l 644 -92 l 644 814 l 537 814 l 537 -92 m 358 -92 l 467 -92 l 467 814 l 358 814 l 358 -92 m 182 -92 l 289 -92 l 289 814 l 182 814 l 182 -92 "},"╧":{"x_min":-12,"x_max":765,"ha":752,"o":"m -12 220 l -12 337 l 765 337 l 765 220 l -12 220 m -12 453 l -12 570 l 327 570 l 327 1351 l 425 1351 l 425 570 l 765 570 l 765 453 l -12 453 "},"Ḽ":{"x_min":33.90625,"x_max":621.203125,"ha":696,"o":"m 256 -79 l 346 -79 l 451 -333 l 366 -333 l 289 -173 l 146 -333 l 61 -333 l 256 -79 m 210 1012 l 333 1012 l 177 114 l 621 114 l 600 0 l 33 0 l 210 1012 "},"8":{"x_min":41,"x_max":741,"ha":795,"o":"m 556 306 q 507 431 556 383 q 381 480 459 480 q 224 416 286 480 q 162 256 162 353 q 209 134 162 179 q 337 89 256 89 q 494 150 433 89 q 556 306 556 212 m 619 778 q 576 882 619 843 q 462 922 533 922 q 324 869 378 922 q 271 738 271 817 q 313 629 271 670 q 425 588 355 588 q 564 641 509 588 q 619 778 619 695 m 534 532 q 640 444 604 503 q 677 301 677 385 q 579 70 677 161 q 327 -20 481 -20 q 118 51 196 -20 q 41 242 41 122 q 107 435 41 350 q 281 542 174 519 q 183 618 216 566 q 150 742 150 669 q 241 948 150 865 q 474 1031 333 1031 q 666 964 592 1031 q 741 793 741 897 q 685 633 741 704 q 534 532 630 563 "},"≭":{"x_min":132,"x_max":915,"ha":1047,"o":"m 364 236 q 132 145 254 208 l 132 266 q 430 366 293 341 l 492 495 q 132 602 329 495 l 132 723 q 552 608 396 608 l 672 851 l 762 795 l 680 630 q 915 723 792 658 l 915 602 q 615 500 754 525 l 554 373 q 915 266 720 373 l 915 145 q 493 260 650 260 l 374 17 l 283 72 l 364 236 "},"☊":{"x_min":76,"x_max":1035,"ha":1110,"o":"m 920 296 q 844 331 889 331 q 767 296 798 331 q 736 211 736 261 q 767 126 736 161 q 844 92 798 92 q 920 126 888 92 q 952 211 952 161 q 920 296 952 261 m 265 331 q 189 296 221 331 q 158 211 158 261 q 189 127 158 162 q 265 92 221 92 q 342 127 311 92 q 374 211 374 162 q 342 296 374 261 q 265 331 311 331 m 949 389 q 979 362 965 377 q 1035 211 1035 300 q 979 62 1035 124 q 844 0 923 0 q 710 62 766 0 q 655 211 655 124 q 709 362 655 300 q 826 423 759 417 q 901 605 901 501 q 798 813 901 727 q 549 899 696 899 q 300 812 402 899 q 198 604 198 726 q 271 423 198 500 q 401 362 348 423 q 456 212 456 300 q 400 62 456 124 q 265 0 344 0 q 131 62 187 0 q 76 212 76 124 q 131 362 76 300 q 154 384 143 374 q 80 604 80 480 q 216 891 80 772 q 549 1010 353 1010 q 884 891 747 1010 q 1021 604 1021 772 q 949 389 1021 484 "},"⚈":{"x_min":105,"x_max":1009,"ha":1111,"o":"m 557 1005 q 778 940 670 1005 q 947 754 886 875 q 1009 502 1009 633 q 949 252 1009 371 q 781 66 889 132 q 556 0 673 0 q 331 66 439 0 q 164 252 223 132 q 105 502 105 371 q 165 754 105 633 q 334 940 226 875 q 557 1005 441 1005 m 786 418 q 823 428 805 418 q 852 459 842 439 q 863 502 863 480 q 852 544 863 524 q 824 575 842 564 q 786 587 806 587 q 748 575 767 587 q 720 544 730 564 q 711 502 711 524 q 721 459 711 480 q 749 428 731 439 q 786 418 767 418 "},"ນ":{"x_min":-33.90625,"x_max":786.671875,"ha":800,"o":"m 223 599 q 256 609 246 599 q 271 642 266 620 q 266 676 275 667 q 239 686 258 686 q 206 675 217 686 q 193 642 196 664 q 196 608 188 618 q 223 599 204 599 m -33 -11 l -16 91 l 58 91 q 147 125 112 91 q 195 253 178 156 l 237 498 q 90 629 67 498 q 248 790 119 790 q 378 656 401 790 l 298 199 q 415 90 331 90 q 575 206 554 90 l 674 778 l 786 778 l 686 207 q 400 -12 649 -12 q 248 59 282 -12 q 34 -11 174 -11 l -33 -11 "},"𝌱":{"x_min":104,"x_max":1017,"ha":1121,"o":"m 311 260 l 104 260 l 104 396 l 311 396 l 311 260 m 810 260 l 810 396 l 1017 396 l 1017 260 l 810 260 m 663 260 l 457 260 l 457 396 l 663 396 l 663 260 m 107 136 l 467 136 l 472 131 l 472 4 l 467 0 l 107 0 l 104 4 l 104 131 l 107 136 m 644 136 l 1004 136 l 1009 131 l 1009 4 l 1004 0 l 644 0 l 641 4 l 641 131 l 644 136 m 107 657 l 467 657 l 472 652 l 472 525 l 467 521 l 107 521 l 104 525 l 104 652 l 107 657 m 644 657 l 1004 657 l 1009 652 l 1009 525 l 1004 521 l 644 521 l 641 525 l 641 652 l 644 657 m 107 917 l 467 917 l 472 912 l 472 785 l 467 781 l 107 781 l 104 785 l 104 912 l 107 917 m 644 917 l 1004 917 l 1009 912 l 1009 785 l 1004 781 l 644 781 l 641 785 l 641 912 l 644 917 "},"⊳":{"x_min":132,"x_max":914.84375,"ha":1047,"o":"m 236 195 l 762 435 l 236 675 l 236 195 m 132 20 l 132 850 l 914 491 l 914 379 l 132 20 "},"⪐":{"x_min":132,"x_max":915,"ha":1047,"o":"m 915 475 l 915 355 q 796 278 851 301 q 682 255 741 255 q 526 294 615 255 l 515 299 q 503 304 511 300 q 351 346 408 346 q 244 320 296 346 q 132 238 192 294 l 132 359 q 251 435 196 412 q 364 459 305 459 q 522 419 431 459 l 530 415 l 544 409 q 696 368 638 368 q 800 393 748 368 q 915 475 851 418 m 132 642 l 672 786 l 132 929 l 132 1049 l 915 843 l 915 728 l 132 522 l 132 642 m 915 -215 l 915 -335 l 132 -129 l 132 -14 l 915 191 l 915 71 l 374 -71 l 915 -215 "},"מּ":{"x_min":-11.796875,"x_max":740.96875,"ha":824,"o":"m 386 431 l 477 431 l 460 329 l 368 329 l 386 431 m 543 760 q 740 541 740 760 q 728 411 740 484 l 656 0 l 313 0 l 330 96 l 559 96 l 614 411 q 625 521 625 470 q 606 605 625 573 q 517 663 574 663 q 307 549 380 663 q 205 336 235 436 l 101 0 l -11 0 l 89 336 q 211 580 131 472 l 121 760 l 254 760 l 297 673 q 543 760 406 760 "},"ᶪ":{"x_min":-9.5,"x_max":211.59375,"ha":293,"o":"m 187 511 l 176 445 q 125 327 162 364 q 16 291 86 291 l -9 291 l 0 351 l 19 351 q 77 369 59 351 q 105 445 97 389 l 108 453 l 37 453 l 141 1044 l 211 1044 l 118 511 l 187 511 "},"˞":{"x_min":-6.109375,"x_max":403.515625,"ha":394,"o":"m 12 588 l 202 699 l 314 699 l 296 599 q 295 462 278 495 q 377 429 313 429 l 403 429 l 385 324 l 345 324 q 198 389 239 324 q 181 585 158 450 l -6 475 l 12 588 "},"‷":{"x_min":112.578125,"x_max":663.921875,"ha":650,"o":"m 480 760 l 427 760 l 295 1013 l 419 1013 l 480 760 m 663 760 l 611 760 l 478 1013 l 602 1013 l 663 760 m 297 760 l 244 760 l 112 1013 l 236 1013 l 297 760 "},"ᔴ":{"x_min":33.90625,"x_max":962.328125,"ha":1023,"o":"m 838 572 l 962 572 l 938 433 l 813 433 l 838 572 m 33 0 l 125 522 l 590 522 l 326 1012 l 449 1012 l 714 524 l 693 407 l 229 407 l 157 0 l 33 0 m 392 1269 l 516 1269 l 493 1130 l 367 1130 l 392 1269 "},"Ϗ":{"x_min":59,"x_max":927.734375,"ha":819,"o":"m 236 1013 l 360 1013 l 284 584 l 769 1013 l 927 1013 l 392 540 l 782 0 l 508 -289 l 426 -289 l 638 -25 l 267 487 l 182 0 l 59 0 l 236 1013 "},"⇓":{"x_min":257.46875,"x_max":792.203125,"ha":1048,"o":"m 460 198 l 524 127 l 589 198 l 589 1012 l 662 1012 l 662 279 l 718 343 l 792 262 l 552 -5 l 496 -5 l 257 262 l 330 343 l 387 279 l 387 1012 l 460 1012 l 460 198 "},"𝘪":{"x_min":44.078125,"x_max":341.125,"ha":347,"o":"m 229 1055 l 341 1055 l 314 897 l 201 897 l 229 1055 m 177 759 l 290 759 l 155 0 l 44 0 l 177 759 "},"р":{"x_min":-2.734375,"x_max":736.96875,"ha":794,"o":"m 621 467 q 581 620 621 567 q 469 673 542 673 q 373 644 419 673 q 293 561 328 616 q 237 432 258 508 q 217 281 217 356 q 256 135 217 186 q 367 84 295 84 q 465 111 420 84 q 543 192 511 139 q 599 323 578 248 q 621 467 621 398 m 272 643 q 379 743 318 709 q 516 777 441 777 q 678 700 620 777 q 736 486 736 624 q 701 272 736 374 q 597 89 665 170 q 495 8 552 36 q 375 -20 438 -20 q 253 13 303 -20 q 179 113 204 46 l 109 -289 l -2 -289 l 181 759 l 293 759 l 272 643 "},"Ö":{"x_min":50,"x_max":934,"ha":984,"o":"m 570 920 q 391 865 468 920 q 256 698 313 810 q 200 547 219 627 q 181 385 181 467 q 241 167 181 244 q 413 91 302 91 q 592 146 514 91 q 726 310 670 201 q 783 464 763 384 q 803 625 803 545 q 741 842 803 765 q 570 920 680 920 m 410 -20 q 146 90 242 -20 q 50 393 50 201 q 87 617 50 503 q 191 822 124 732 q 363 979 268 927 q 573 1031 459 1031 q 837 921 741 1031 q 934 622 934 811 q 897 393 934 505 q 792 188 860 280 q 619 31 714 83 q 410 -20 525 -20 m 455 1268 l 579 1268 l 554 1130 l 431 1130 l 455 1268 m 694 1268 l 817 1268 l 794 1130 l 670 1130 l 694 1268 "},"Θ":{"x_min":56.703125,"x_max":926.9375,"ha":983,"o":"m 292 596 l 722 596 l 703 481 l 271 481 l 292 596 m 758 808 q 564 920 699 920 q 332 808 430 920 q 200 505 233 697 q 226 202 166 313 q 419 91 285 91 q 652 202 554 91 q 783 505 750 313 q 758 808 817 697 m 584 1031 q 866 888 776 1031 q 913 504 955 745 q 731 122 871 265 q 400 -20 592 -20 q 118 122 208 -20 q 70 505 27 265 q 252 888 112 745 q 584 1031 392 1031 "},"Ř":{"x_min":34.0625,"x_max":750,"ha":868,"o":"m 314 900 l 253 541 l 411 541 q 562 598 504 541 q 620 747 620 655 q 581 860 620 821 q 470 900 542 900 l 314 900 m 541 486 q 606 436 580 476 q 666 276 632 396 l 743 0 l 613 0 l 542 259 q 479 394 515 360 q 369 428 443 428 l 232 428 l 157 0 l 34 0 l 211 1013 l 489 1013 q 682 949 615 1013 q 750 766 750 886 q 692 583 750 660 q 541 486 635 506 m 527 1105 l 397 1105 l 300 1285 l 382 1285 l 467 1164 l 594 1285 l 687 1285 l 527 1105 "},"ϙ":{"x_min":81.671875,"x_max":731.0625,"ha":764,"o":"m 457 672 q 301 594 367 672 q 210 379 234 515 q 225 164 187 242 q 355 86 264 86 q 510 164 444 86 q 600 379 577 243 q 585 592 624 514 q 457 672 547 672 m 391 -16 l 344 -289 l 240 -289 l 288 -16 q 124 86 174 1 q 92 379 59 192 q 226 672 124 566 q 476 778 328 778 q 687 672 622 778 q 720 379 752 566 q 585 86 686 192 q 391 -16 505 3 "},"⬐":{"x_min":44.34375,"x_max":960.78125,"ha":1045,"o":"m 284 -4 l 44 262 l 117 344 l 260 185 l 260 493 l 960 493 l 960 378 l 364 378 l 364 185 l 505 344 l 578 262 l 339 -4 l 284 -4 "},"ᶼ":{"x_min":10.171875,"x_max":430.640625,"ha":545,"o":"m 94 879 l 430 879 l 419 814 l 100 509 l 366 509 l 356 453 l 356 453 l 354 445 q 355 369 344 387 q 407 351 366 351 l 425 351 l 415 291 l 388 291 q 294 327 319 291 q 283 445 269 364 l 284 453 l 10 453 l 21 517 l 341 823 l 84 823 l 94 879 "},"и":{"x_min":46.796875,"x_max":765.65625,"ha":812,"o":"m 765 760 l 632 0 l 520 0 l 627 610 l 191 0 l 46 0 l 180 760 l 291 760 l 185 151 l 620 760 l 765 760 "},"א":{"x_min":46.796875,"x_max":739.203125,"ha":786,"o":"m 626 760 l 739 760 l 717 639 q 620 393 686 456 q 507 308 555 331 l 638 0 l 505 0 l 328 404 q 250 348 289 392 q 187 159 212 303 l 159 0 l 46 0 l 77 175 q 172 417 109 358 q 279 504 234 476 l 174 760 l 307 760 l 459 408 q 543 464 503 418 q 608 654 583 510 l 626 760 "},"³":{"x_min":20.6875,"x_max":461,"ha":501,"o":"m 131 1007 q 220 1025 182 1019 q 292 1031 259 1031 q 415 995 369 1031 q 461 901 461 959 q 425 810 461 849 q 331 759 390 772 q 401 717 377 749 q 426 636 426 685 q 358 496 426 550 q 177 443 290 443 q 98 450 138 443 q 20 470 59 457 l 34 552 q 101 525 67 534 q 173 517 135 517 q 291 548 249 517 q 334 635 334 579 q 304 698 334 677 q 215 720 275 720 l 162 720 l 176 793 l 232 793 q 330 817 295 793 q 365 885 365 841 q 339 939 365 921 q 265 957 314 957 q 193 949 230 957 q 118 929 155 942 l 131 1007 "},"♬":{"x_min":114.9375,"x_max":1006,"ha":1121,"o":"m 1003 1012 l 1006 1009 l 1006 153 q 846 -5 1006 9 q 693 106 704 -5 q 835 205 693 205 q 949 169 901 205 l 952 169 l 952 617 l 425 617 l 425 157 q 274 -7 425 17 l 272 -7 q 114 116 114 -7 q 259 203 114 203 q 374 164 320 203 l 374 1012 l 1003 1012 m 427 872 l 427 766 l 952 766 l 952 872 l 427 872 "},"͘":{"x_min":28.484375,"x_max":177.6875,"ha":0,"o":"m 53 1052 l 177 1052 l 153 914 l 28 914 l 53 1052 "},"ᶣ":{"x_min":68.34375,"x_max":478.78125,"ha":506,"o":"m 73 620 l 118 877 l 189 877 l 144 622 q 152 532 134 562 q 218 502 170 502 q 315 538 276 502 q 366 636 355 574 l 408 878 l 478 878 l 376 291 l 305 291 l 345 517 q 274 460 312 479 q 192 442 238 442 q 88 487 119 442 q 73 620 58 532 "},"⣟":{"x_min":183,"x_max":732,"ha":915,"o":"m 183 1085 l 366 1085 l 366 882 l 183 882 l 183 1085 m 183 701 l 366 701 l 366 498 l 183 498 l 183 701 m 183 317 l 366 317 l 366 114 l 183 114 l 183 317 m 549 1085 l 732 1085 l 732 882 l 549 882 l 549 1085 m 549 701 l 732 701 l 732 498 l 549 498 l 549 701 m 183 -68 l 366 -68 l 366 -271 l 183 -271 l 183 -68 m 549 -68 l 732 -68 l 732 -271 l 549 -271 l 549 -68 "},"Ρ":{"x_min":33.703125,"x_max":751,"ha":753,"o":"m 210 1013 l 496 1013 q 685 948 620 1013 q 751 759 751 884 q 654 499 751 592 q 383 407 558 407 l 229 407 l 157 0 l 33 0 l 210 1013 m 314 900 l 248 520 l 403 520 q 565 579 509 520 q 621 750 621 639 q 583 860 621 821 q 475 900 545 900 l 314 900 "},"⣥":{"x_min":183,"x_max":732,"ha":915,"o":"m 183 1085 l 366 1085 l 366 882 l 183 882 l 183 1085 m 183 317 l 366 317 l 366 114 l 183 114 l 183 317 m 549 317 l 732 317 l 732 114 l 549 114 l 549 317 m 183 -68 l 366 -68 l 366 -271 l 183 -271 l 183 -68 m 549 -68 l 732 -68 l 732 -271 l 549 -271 l 549 -68 "},"Ṙ":{"x_min":34.0625,"x_max":750,"ha":868,"o":"m 447 1269 l 571 1269 l 548 1130 l 422 1130 l 447 1269 m 314 900 l 253 541 l 411 541 q 562 598 504 541 q 620 747 620 655 q 581 860 620 821 q 470 900 542 900 l 314 900 m 541 486 q 606 436 580 476 q 666 276 632 396 l 743 0 l 613 0 l 542 259 q 479 394 515 360 q 369 428 443 428 l 232 428 l 157 0 l 34 0 l 211 1013 l 489 1013 q 682 949 615 1013 q 750 766 750 886 q 692 583 750 660 q 541 486 635 506 "},"ᴄ":{"x_min":58,"x_max":670.390625,"ha":687,"o":"m 670 730 l 648 606 q 562 655 608 639 q 467 672 516 672 q 365 650 414 672 q 283 591 317 629 q 202 452 231 532 q 173 288 173 373 q 220 136 173 186 q 360 85 266 85 q 458 101 406 85 q 567 148 511 117 l 546 24 q 446 -8 498 2 q 340 -20 394 -20 q 131 55 204 -20 q 58 271 58 131 q 95 489 58 389 q 209 667 133 588 q 329 749 260 722 q 479 777 398 777 q 574 765 527 777 q 670 730 621 754 "},"š":{"x_min":14.078125,"x_max":654.0625,"ha":651,"o":"m 624 736 l 603 618 q 509 659 558 645 q 407 673 460 673 q 268 639 319 673 q 217 548 217 605 q 335 445 217 480 q 348 440 344 442 l 384 428 q 534 356 497 394 q 572 252 572 318 q 485 55 572 131 q 259 -20 399 -20 q 145 -8 205 -20 q 14 27 85 2 l 35 155 q 157 102 97 120 q 271 84 216 84 q 405 123 354 84 q 457 223 457 162 q 321 328 457 288 l 310 331 l 271 342 q 146 408 186 367 q 107 513 107 449 q 189 705 107 634 q 412 777 271 777 q 520 766 467 777 q 624 736 573 756 m 458 856 l 369 856 l 264 1110 l 350 1110 l 427 949 l 568 1111 l 654 1111 l 458 856 "},"┭":{"x_min":-12,"x_max":765.4375,"ha":753,"o":"m 327 -419 l 327 278 l -12 278 l -12 511 l 425 511 l 425 453 l 765 453 l 765 336 l 425 336 l 425 -419 l 327 -419 "},"┉":{"x_min":-12,"x_max":765.96875,"ha":752,"o":"m -12 278 l -12 511 l 103 511 l 103 278 l -12 278 m 213 278 l 213 511 l 322 511 l 322 278 l 213 278 m 431 278 l 431 511 l 540 511 l 540 278 l 431 278 m 650 278 l 650 511 l 765 511 l 765 278 l 650 278 "},"ᐸ":{"x_min":59,"x_max":927.0625,"ha":911,"o":"m 771 123 l 750 0 l 59 428 l 86 583 l 927 1012 l 904 885 l 166 506 l 771 123 "},"ჟ":{"x_min":9,"x_max":661.15625,"ha":652,"o":"m 531 -12 q 224 -287 484 -287 q 9 -105 9 -287 q 15 -38 9 -73 l 132 -38 q 128 -86 128 -64 q 238 -192 128 -192 q 421 -10 389 -192 l 528 603 l 285 568 l 282 547 q 377 384 377 498 q 371 325 377 357 q 43 118 335 118 l 62 231 q 275 325 259 231 q 280 374 280 351 q 121 566 280 511 l 134 640 l 661 728 l 531 -12 "},"1":{"x_min":61.03125,"x_max":606.28125,"ha":795,"o":"m 81 115 l 282 115 l 418 894 l 191 845 l 212 963 l 438 1012 l 562 1012 l 405 115 l 606 115 l 586 0 l 61 0 l 81 115 "},"ᕗ":{"x_min":-10.75,"x_max":857.296875,"ha":907,"o":"m 251 671 q 302 691 281 671 q 327 735 323 712 q 329 749 329 742 q 316 787 329 770 q 274 810 300 810 q 222 794 243 810 q 193 735 201 778 q 192 719 192 726 q 203 686 192 698 q 251 671 219 671 m 423 711 q 347 602 404 645 q 231 559 289 559 q 124 613 164 559 q 93 705 93 655 q 95 735 93 719 q 173 875 112 831 q 277 919 234 919 q 358 893 317 919 l 857 583 l 830 428 l -10 0 l 10 123 l 750 506 l 423 711 "},"בֿ":{"x_min":-12.21875,"x_max":658.234375,"ha":761,"o":"m 238 970 l 605 970 l 586 868 l 220 868 l 238 970 m 501 429 q 512 539 512 493 q 499 612 512 585 q 393 663 474 663 l 135 663 l 152 760 l 409 760 q 596 677 547 760 q 625 555 625 627 q 612 411 625 484 l 556 97 l 658 97 l 641 0 l -12 0 l 4 97 l 442 97 l 501 429 "},"צ":{"x_min":-25.09375,"x_max":680.203125,"ha":726,"o":"m 107 759 l 241 759 l 396 408 q 484 463 444 417 q 549 654 524 510 l 567 759 l 680 759 l 658 638 q 560 393 627 460 q 436 307 493 327 l 579 0 l -25 0 l -8 96 l 400 96 l 107 759 "},"⟻":{"x_min":61.28125,"x_max":1721,"ha":1792,"o":"m 1617 378 l 232 378 l 374 219 l 301 138 l 61 405 l 61 465 l 301 732 l 374 651 l 232 493 l 1617 493 l 1617 727 l 1721 727 l 1721 144 l 1617 144 l 1617 378 "},"♏":{"x_min":42.09375,"x_max":1079.140625,"ha":1121,"o":"m 780 183 q 811 65 780 108 q 898 23 843 23 l 953 23 l 953 103 l 955 103 l 1079 -14 l 955 -132 l 953 -130 l 953 -50 l 898 -50 q 732 31 773 -50 q 697 161 697 81 l 697 697 q 666 912 697 912 q 587 838 629 912 q 505 628 545 764 l 505 0 l 413 0 l 413 625 q 403 879 413 843 q 372 915 393 915 q 289 838 347 915 q 231 616 231 761 l 231 0 l 135 0 l 135 738 q 42 997 135 867 l 128 997 q 222 824 200 943 q 292 951 236 887 q 390 1015 348 1015 q 465 947 429 1015 q 501 793 501 880 q 586 944 526 874 q 692 1015 646 1015 q 754 958 729 1015 q 780 753 780 901 l 780 616 l 780 184 l 780 183 "},"ᵈ":{"x_min":24.3125,"x_max":480.828125,"ha":507,"o":"m 369 813 l 410 1044 l 480 1044 l 377 453 l 307 453 l 318 516 q 252 460 288 478 q 167 442 214 442 q 50 503 88 442 q 29 665 12 564 q 107 827 47 765 q 245 888 167 888 q 323 869 292 888 q 369 813 354 851 m 155 785 q 103 665 116 742 q 113 544 89 587 q 194 500 138 500 q 290 544 250 500 q 344 665 330 587 q 332 785 357 742 q 251 830 307 830 q 155 785 195 830 "},"˕":{"x_min":184.46875,"x_max":476.75,"ha":625,"o":"m 184 521 l 202 623 l 476 623 l 459 521 l 367 521 l 331 317 l 240 317 l 276 521 l 184 521 "},"ḽ":{"x_min":-153.265625,"x_max":341.125,"ha":347,"o":"m 41 -79 l 131 -79 l 236 -334 l 151 -334 l 74 -173 l -68 -334 l -153 -334 l 41 -79 m 229 1055 l 341 1055 l 155 0 l 44 0 l 229 1055 "},"𝟘":{"x_min":83,"x_max":713,"ha":795,"o":"m 163 896 q 397 1031 244 1031 q 631 896 550 1031 q 713 505 713 761 q 631 114 713 249 q 397 -20 550 -20 q 163 114 244 -20 q 83 505 83 249 q 163 896 83 761 m 528 90 q 652 505 652 187 q 528 920 652 823 l 528 90 m 467 952 q 397 963 435 963 q 328 952 360 963 l 328 58 q 397 48 360 48 q 467 58 435 48 l 467 952 m 267 920 q 144 505 144 822 q 267 90 144 188 l 267 920 "},"ᓌ":{"x_min":33,"x_max":957.546875,"ha":1064,"o":"m 318 115 q 465 171 413 115 q 530 302 517 227 q 536 360 536 333 q 498 466 536 430 q 388 517 445 517 q 260 466 329 517 q 170 302 190 416 q 166 254 166 276 q 193 163 166 199 q 318 115 231 115 m 298 0 q 80 75 145 0 q 33 223 33 130 q 40 302 33 259 q 166 544 68 462 q 408 626 263 626 q 620 544 551 626 q 670 388 670 486 q 661 302 670 348 q 581 115 641 187 l 957 115 l 937 0 l 298 0 m 833 572 l 957 572 l 933 433 l 809 433 l 833 572 "},"ī":{"x_min":44.078125,"x_max":476.75,"ha":347,"o":"m 177 760 l 290 760 l 155 0 l 44 0 l 177 760 m 111 1034 l 476 1034 l 459 934 l 94 934 l 111 1034 "},"∐":{"x_min":95,"x_max":850,"ha":946,"o":"m 95 -267 l 95 998 l 241 998 l 241 -128 l 704 -128 l 704 998 l 850 998 l 850 -267 l 95 -267 "},"̢":{"x_min":-432.703125,"x_max":-87.484375,"ha":0,"o":"m -404 86 l -292 86 l -309 -13 q -311 -150 -328 -117 q -229 -183 -293 -183 l -87 -183 l -105 -289 l -260 -289 q -408 -223 -370 -289 q -422 -13 -448 -158 l -404 86 "},"Բ":{"x_min":18.3125,"x_max":838.375,"ha":915,"o":"m 142 0 l 18 0 l 128 631 q 269 930 163 829 q 547 1032 375 1032 q 790 930 718 1032 q 826 632 861 832 l 819 593 l 695 593 l 699 615 q 687 849 728 777 q 528 921 646 921 q 344 849 409 921 q 249 615 278 777 l 231 509 l 597 509 q 735 447 688 509 q 762 269 783 385 l 754 221 l 659 221 l 665 255 q 653 356 678 328 q 576 390 625 390 l 210 390 l 142 0 "},"ꞁ":{"x_min":26.453125,"x_max":321.453125,"ha":347,"o":"m 269 778 l 269 778 m 209 760 l 321 760 l 138 -289 l 26 -289 l 209 760 "},"Ễ":{"x_min":33.90625,"x_max":788.703125,"ha":789,"o":"m 210 1013 l 787 1013 l 767 898 l 314 898 l 261 597 l 696 597 l 676 482 l 241 482 l 177 115 l 641 115 l 621 0 l 33 0 l 210 1013 m 564 1329 l 543 1346 l 542 1347 q 493 1369 516 1369 q 455 1351 472 1369 q 428 1301 439 1334 l 351 1301 q 410 1411 373 1374 q 500 1449 448 1449 q 540 1441 521 1449 q 581 1417 558 1434 l 600 1400 q 623 1386 611 1390 q 646 1382 634 1382 q 688 1400 670 1382 q 712 1449 705 1418 l 788 1449 q 730 1338 768 1375 q 636 1301 691 1301 q 600 1308 617 1301 q 564 1329 583 1315 m 485 1289 l 617 1289 l 713 1109 l 631 1109 l 545 1229 l 417 1109 l 326 1109 l 485 1289 "},"ˣ":{"x_min":33.90625,"x_max":518.125,"ha":555,"o":"m 518 878 l 326 671 l 451 453 l 368 453 l 271 619 l 118 453 l 33 453 l 240 675 l 122 878 l 206 878 l 294 726 l 434 878 l 518 878 "},"❉":{"x_min":59,"x_max":988,"ha":1047,"o":"m 620 617 q 661 509 661 572 q 620 401 661 446 q 523 357 580 357 q 426 401 466 357 q 386 509 386 446 q 426 617 386 572 q 523 662 466 662 q 620 617 580 662 m 175 178 l 356 380 l 409 322 l 227 121 l 175 178 m 638 693 l 819 894 l 871 836 l 690 635 l 638 693 m 227 894 l 409 693 l 356 635 l 175 836 l 227 894 m 690 380 l 871 178 l 819 121 l 638 322 l 690 380 m 622 925 q 634 854 634 892 q 622 783 634 816 q 585 722 609 745 q 524 695 557 695 q 462 722 490 695 q 425 783 438 745 q 414 854 414 816 q 425 925 414 892 q 462 986 438 963 q 524 1014 490 1014 q 585 986 557 1014 q 622 925 609 963 m 622 212 q 634 141 634 179 q 622 70 634 103 q 585 9 609 32 q 524 -18 557 -18 q 462 9 490 -18 q 425 70 438 32 q 414 141 414 103 q 425 212 414 179 q 462 273 438 250 q 524 301 490 301 q 585 273 557 301 q 622 212 609 250 m 138 607 q 202 620 168 620 q 266 607 236 620 q 321 566 300 592 q 346 498 346 535 q 321 429 346 460 q 266 388 300 403 q 202 376 236 376 q 138 388 168 376 q 83 429 105 403 q 59 498 59 460 q 83 566 59 535 q 138 607 105 592 m 780 607 q 844 620 810 620 q 908 607 878 620 q 963 566 942 592 q 988 498 988 535 q 963 429 988 460 q 908 388 942 403 q 844 376 878 376 q 780 388 810 376 q 725 429 747 403 q 701 498 701 460 q 725 566 701 535 q 780 607 747 592 "},"𝌸":{"x_min":104,"x_max":1017,"ha":1121,"o":"m 311 521 l 104 521 l 104 657 l 311 657 l 311 521 m 810 521 l 810 657 l 1017 657 l 1017 521 l 810 521 m 663 521 l 457 521 l 457 657 l 663 657 l 663 521 m 311 0 l 104 0 l 104 136 l 311 136 l 311 0 m 810 0 l 810 136 l 1017 136 l 1017 0 l 810 0 m 663 0 l 457 0 l 457 136 l 663 136 l 663 0 m 107 396 l 467 396 l 472 391 l 472 264 l 467 260 l 107 260 l 104 264 l 104 391 l 107 396 m 644 396 l 1004 396 l 1009 391 l 1009 264 l 1004 260 l 644 260 l 641 264 l 641 391 l 644 396 m 107 917 l 467 917 l 472 912 l 472 785 l 467 781 l 107 781 l 104 785 l 104 912 l 107 917 m 644 917 l 1004 917 l 1009 912 l 1009 785 l 1004 781 l 644 781 l 641 785 l 641 912 l 644 917 "},"╝":{"x_min":-12.421875,"x_max":522,"ha":752,"o":"m -12 453 l -12 570 l 229 570 l 229 1351 l 327 1351 l 327 453 l -12 453 m -12 220 l -12 337 l 424 337 l 424 1351 l 522 1351 l 522 220 l -12 220 "},"❒":{"x_min":75,"x_max":1047,"ha":1121,"o":"m 935 56 l 935 956 l 125 956 l 125 56 l 935 56 m 985 0 l 75 0 l 75 1012 l 154 1080 l 1047 1080 l 1047 87 l 985 0 "},"╄":{"x_min":-12.25,"x_max":765,"ha":752,"o":"m 327 -419 l 327 278 l 278 278 l 278 336 l -12 336 l -12 453 l 278 453 l 278 1351 l 473 1351 l 473 511 l 765 511 l 765 278 l 425 278 l 425 -419 l 327 -419 "},"⢣":{"x_min":183,"x_max":732,"ha":915,"o":"m 183 1085 l 366 1085 l 366 882 l 183 882 l 183 1085 m 183 701 l 366 701 l 366 498 l 183 498 l 183 701 m 549 317 l 732 317 l 732 114 l 549 114 l 549 317 m 549 -68 l 732 -68 l 732 -271 l 549 -271 l 549 -68 "},"ƽ":{"x_min":-19.671875,"x_max":688.34375,"ha":722,"o":"m 375 323 q 511 284 439 323 q 606 182 566 255 q 626 18 643 111 q 562 -141 608 -84 l 540 -169 q 493 -213 524 -189 q 215 -296 386 -296 q 99 -283 158 -296 q -19 -245 40 -270 l 3 -113 q 107 -164 49 -147 q 231 -181 165 -181 q 417 -130 347 -181 q 503 18 486 -79 q 472 158 520 109 q 323 209 424 209 l 107 209 l 127 323 l 128 323 l 206 759 l 688 759 l 668 644 l 298 644 l 240 323 l 375 323 "},"↢":{"x_min":61,"x_max":975.859375,"ha":1047,"o":"m 61 405 l 61 465 l 301 732 l 374 651 l 231 493 l 686 493 l 902 732 l 975 651 l 781 435 l 975 219 l 902 138 l 686 378 l 231 378 l 374 219 l 301 138 l 61 405 "},"⧓":{"x_min":132,"x_max":1117,"ha":1249,"o":"m 132 -42 l 132 912 l 624 511 l 1117 912 l 1117 -42 l 624 358 l 132 -42 "},"ᾯ":{"x_min":136.984375,"x_max":1148.21875,"ha":1190,"o":"m 692 -289 l 602 -289 q 574 -266 586 -289 q 571 -217 565 -248 l 598 -62 l 689 -62 l 661 -217 q 664 -235 659 -227 q 678 -244 670 -244 l 700 -244 l 692 -289 m 349 1169 l 328 1186 l 327 1187 q 278 1209 301 1209 q 240 1191 257 1209 q 213 1141 224 1174 l 136 1141 q 195 1251 158 1214 q 285 1289 233 1289 q 325 1281 306 1289 q 366 1257 343 1274 l 385 1240 q 408 1226 396 1230 q 432 1222 419 1222 q 473 1240 455 1222 q 497 1289 490 1258 l 573 1289 q 515 1178 553 1215 q 421 1141 476 1141 q 385 1148 402 1141 q 349 1169 368 1155 m 224 1007 l 242 1108 l 389 1108 l 370 1001 l 288 1001 q 352 895 270 895 l 340 826 q 224 1007 193 826 m 1074 121 l 1052 0 l 686 0 l 708 121 q 907 299 827 186 q 1011 548 987 411 q 976 809 1039 711 q 780 908 912 908 q 551 809 649 908 q 424 548 453 710 q 441 299 400 411 q 579 121 482 186 l 558 0 l 192 0 l 213 121 l 408 121 q 301 316 328 215 q 297 542 275 417 q 475 891 335 757 q 801 1025 615 1025 q 1080 891 986 1025 q 1137 548 1174 758 q 1054 316 1115 417 q 878 121 993 216 l 1074 121 "},"⢈":{"x_min":549,"x_max":732,"ha":915,"o":"m 549 1085 l 732 1085 l 732 882 l 549 882 l 549 1085 m 549 -68 l 732 -68 l 732 -271 l 549 -271 l 549 -68 "},"p":{"x_min":-2.734375,"x_max":736.96875,"ha":794,"o":"m 621 467 q 581 620 621 567 q 469 673 542 673 q 373 644 419 673 q 293 561 328 616 q 237 432 258 508 q 217 281 217 356 q 256 135 217 186 q 367 84 295 84 q 465 111 420 84 q 543 192 511 139 q 599 323 578 248 q 621 467 621 398 m 272 643 q 379 743 318 709 q 516 777 441 777 q 678 700 620 777 q 736 486 736 624 q 701 272 736 374 q 597 89 665 170 q 495 8 552 36 q 375 -20 438 -20 q 253 13 303 -20 q 179 113 204 46 l 109 -289 l -2 -289 l 181 759 l 293 759 l 272 643 "},"Ἤ":{"x_min":65.109375,"x_max":1249.859375,"ha":1283,"o":"m 465 1111 l 586 1111 l 343 856 l 248 856 l 465 1111 m 244 1007 q 65 826 212 826 l 77 895 q 177 1001 159 895 l 96 1001 l 115 1108 l 261 1108 l 244 1007 m 554 1012 l 678 1012 l 606 597 l 1053 597 l 1126 1013 l 1249 1013 l 1072 0 l 948 0 l 1033 482 l 585 482 l 501 0 l 377 0 l 554 1012 "},"Ѹ":{"x_min":77,"x_max":1271.125,"ha":1240,"o":"m 1271 760 l 825 -70 q 702 -247 751 -208 q 573 -289 649 -289 l 484 -289 l 502 -185 l 568 -185 q 644 -160 614 -185 q 721 -45 671 -138 l 833 165 l 723 760 l 843 760 l 923 332 l 1151 760 l 1271 760 m 677 505 q 559 167 643 308 q 294 -20 450 -20 q 122 86 178 -20 q 77 321 77 173 q 93 505 77 410 q 211 843 128 701 q 478 1031 321 1031 q 694 691 694 1031 q 677 505 694 601 m 547 505 q 576 739 576 667 q 458 920 576 920 q 285 761 348 920 q 223 505 254 682 q 196 273 196 346 q 314 91 196 91 q 485 249 424 91 q 547 505 515 327 "},"䷯":{"x_min":104,"x_max":1009,"ha":1121,"o":"m 107 574 l 467 574 l 472 569 l 472 442 l 467 438 l 107 438 l 104 442 l 104 569 l 107 574 m 644 574 l 1004 574 l 1009 569 l 1009 442 l 1004 438 l 644 438 l 641 442 l 641 569 l 644 574 m 107 793 l 1004 793 l 1009 788 l 1009 661 l 1004 657 l 107 657 l 104 661 l 104 788 l 107 793 m 107 1013 l 467 1013 l 472 1008 l 472 881 l 467 877 l 107 877 l 104 881 l 104 1008 l 107 1013 m 644 1013 l 1004 1013 l 1009 1008 l 1009 881 l 1004 877 l 644 877 l 641 881 l 641 1008 l 644 1013 m 107 -84 l 467 -84 l 472 -88 l 472 -215 l 467 -220 l 107 -220 l 104 -215 l 104 -88 l 107 -84 m 644 -84 l 1004 -84 l 1009 -88 l 1009 -215 l 1004 -220 l 644 -220 l 641 -215 l 641 -88 l 644 -84 m 107 135 l 1004 135 l 1009 130 l 1009 3 l 1004 -1 l 107 -1 l 104 3 l 104 130 l 107 135 m 107 355 l 1004 355 l 1009 350 l 1009 223 l 1004 219 l 107 219 l 104 223 l 104 350 l 107 355 "},"ⱡ":{"x_min":-19.671875,"x_max":364.171875,"ha":347,"o":"m 221 475 l 329 475 l 312 377 l 204 377 l 138 0 l 26 0 l 92 377 l -19 377 l -2 475 l 109 475 l 126 572 l 14 572 l 31 670 l 143 670 l 210 1055 l 322 1055 l 255 670 l 364 670 l 346 572 l 238 572 l 221 475 "},"►":{"x_min":3,"x_max":957.1875,"ha":961,"o":"m 3 14 l 3 706 l 957 360 l 3 14 "},"Ӭ":{"x_min":-6.78125,"x_max":816.59375,"ha":873,"o":"m 342 1268 l 466 1268 l 441 1130 l 318 1130 l 342 1268 m 581 1268 l 704 1268 l 680 1130 l 557 1130 l 581 1268 m 453 1031 q 751 890 657 1031 q 803 505 845 749 q 616 120 760 261 q 268 -20 473 -20 q -6 78 105 -20 l 18 221 q 281 93 125 93 q 532 189 442 93 q 662 448 621 285 l 175 448 l 195 563 l 682 563 q 642 821 698 724 q 425 918 586 918 q 118 789 269 918 l 143 934 q 453 1031 287 1031 "},"῭":{"x_min":229.90625,"x_max":616.453125,"ha":625,"o":"m 387 1358 l 515 1105 l 421 1105 l 267 1358 l 387 1358 m 253 1053 l 379 1053 l 354 916 l 229 916 l 253 1053 m 492 1053 l 616 1053 l 592 916 l 468 916 l 492 1053 "},"ບ":{"x_min":9.78125,"x_max":762.265625,"ha":740,"o":"m 242 697 q 209 686 220 697 q 195 653 199 675 q 199 619 191 628 q 227 610 207 610 q 260 621 249 610 q 273 653 270 633 q 269 687 278 678 q 242 697 261 697 m 14 216 q 177 512 42 378 q 92 661 69 537 q 254 793 115 793 q 376 664 400 793 q 223 414 355 546 q 131 227 151 341 q 311 90 107 90 q 564 290 530 90 l 649 776 l 762 776 l 677 290 q 293 -12 625 -12 q 14 216 -25 -12 "},"ϕ":{"x_min":56.59375,"x_max":762.640625,"ha":824,"o":"m 583 1055 l 534 775 q 719 671 656 775 q 752 379 783 565 q 617 86 718 192 q 396 -17 518 -17 l 348 -289 l 236 -289 l 284 -17 q 99 86 162 -17 q 67 379 34 192 q 202 671 100 565 q 423 775 301 775 l 472 1055 l 583 1055 m 415 94 q 543 163 484 94 q 633 379 608 241 q 619 594 657 514 q 515 664 583 664 l 415 94 m 303 94 l 403 664 q 276 594 335 664 q 185 379 209 514 q 200 163 162 241 q 303 94 234 94 "},"y":{"x_min":-30.515625,"x_max":754.796875,"ha":739,"o":"m 310 -70 q 183 -252 232 -216 q 58 -289 134 -289 l -30 -289 l -11 -185 l 52 -185 q 133 -156 100 -185 q 206 -45 166 -128 l 242 27 l 90 759 l 209 759 l 322 177 l 636 760 l 754 760 l 310 -70 "},"Ⴌ":{"x_min":-10.71875,"x_max":712.0625,"ha":730,"o":"m 461 0 l 518 331 q 523 374 523 354 q 517 421 523 394 q 494 476 512 448 q 446 520 475 504 q 381 537 417 537 q 310 522 343 537 q 244 482 276 508 q 171 341 186 426 l 112 0 l -10 0 l 113 708 q 158 839 125 778 q 240 945 192 899 q 347 1016 288 990 q 469 1043 406 1043 l 712 1043 l 691 920 l 448 920 q 375 903 410 920 q 311 858 339 886 q 263 790 283 829 q 235 708 242 752 l 215 595 q 402 661 315 661 q 515 635 465 661 q 597 565 564 610 q 639 475 630 520 q 649 396 649 429 q 642 331 649 365 l 585 0 l 461 0 "},"ḓ":{"x_min":51.21875,"x_max":799.40625,"ha":794,"o":"m 245 -79 l 336 -79 l 441 -334 l 356 -334 l 279 -173 l 135 -334 l 51 -334 l 245 -79 m 522 113 q 416 13 477 47 q 279 -20 354 -20 q 117 57 176 -20 q 58 270 58 135 q 93 485 58 383 q 198 668 129 587 q 300 749 243 721 q 418 778 357 778 q 535 742 485 778 q 613 641 585 707 l 686 1055 l 799 1055 l 614 0 l 501 0 l 522 113 m 173 292 q 214 139 173 194 q 325 84 254 84 q 422 112 377 84 q 501 195 467 140 q 558 327 537 252 q 579 474 579 401 q 538 622 579 569 q 429 675 498 675 q 330 647 376 675 q 251 566 283 619 q 195 435 216 510 q 173 292 173 361 "},"∵":{"x_min":74,"x_max":722,"ha":795,"o":"m 74 839 l 203 839 l 203 667 l 74 667 l 74 839 m 593 839 l 722 839 l 722 667 l 593 667 l 593 839 m 333 311 l 462 311 l 462 139 l 333 139 l 333 311 "},"б":{"x_min":39,"x_max":729.71875,"ha":770,"o":"m 541 86 q 292 -20 439 -20 q 82 83 145 -20 q 39 265 39 153 q 48 378 39 317 l 71 534 q 87 642 82 615 q 155 831 107 751 q 339 1011 233 957 q 606 1066 445 1066 q 716 1078 680 1066 l 729 980 q 670 957 697 957 l 515 957 q 385 918 437 957 q 221 735 250 838 l 210 697 q 440 777 303 777 q 643 671 578 777 q 687 494 687 601 q 676 378 687 441 q 541 86 643 192 m 542 592 q 413 672 502 672 q 257 593 323 672 q 167 378 191 515 q 158 269 158 326 q 181 163 158 212 q 310 85 220 85 q 467 164 400 85 q 557 378 533 243 q 566 487 566 430 q 542 592 566 543 "},"☻":{"x_min":104,"x_max":1017,"ha":1121,"o":"m 104 506 q 237 866 104 717 q 560 1015 371 1015 q 883 866 750 1015 q 1017 506 1017 717 q 883 147 1017 295 q 560 0 750 0 q 237 147 371 0 q 104 506 104 295 m 344 502 l 303 502 q 556 212 303 212 q 818 504 818 212 l 775 504 q 560 293 716 293 q 344 502 420 293 m 824 695 q 743 796 824 789 q 655 695 655 796 q 738 602 655 602 q 824 695 824 602 m 468 697 q 387 796 468 789 q 299 695 299 796 q 381 602 299 602 q 468 697 468 602 "},"‐":{"x_min":56.28125,"x_max":405.546875,"ha":451,"o":"m 75 436 l 405 436 l 386 325 l 56 325 l 75 436 "},"ᒜ":{"x_min":110.546875,"x_max":941.984375,"ha":1019,"o":"m 134 571 l 259 571 l 235 432 l 110 432 l 134 571 m 818 302 l 941 302 q 810 56 912 132 q 575 -20 708 -20 q 362 61 431 -20 q 322 303 294 142 l 446 1012 l 569 1012 l 444 302 q 479 140 425 191 q 594 89 532 89 q 737 146 672 89 q 818 302 801 203 "},"⨛":{"x_min":71.046875,"x_max":586,"ha":651,"o":"m 275 848 q 328 1006 275 961 q 433 1052 382 1052 q 524 1009 483 1052 q 579 871 566 967 l 489 861 q 433 950 478 950 q 376 831 376 950 l 376 -91 q 322 -249 376 -204 q 218 -295 268 -295 q 126 -252 168 -295 q 71 -114 84 -210 l 161 -104 q 217 -193 172 -193 q 275 -74 275 -193 l 275 848 m 586 1211 l 586 1102 l 107 1102 l 107 1211 l 586 1211 "},"➩":{"x_min":71,"x_max":955.484375,"ha":1047,"o":"m 505 104 l 505 266 l 71 266 l 71 605 l 505 605 l 505 766 l 657 766 l 955 435 l 657 104 l 505 104 m 554 320 l 554 158 l 802 435 l 554 712 l 554 551 l 120 551 l 120 320 l 554 320 "},"┼":{"x_min":-12,"x_max":765,"ha":752,"o":"m 425 336 l 425 -419 l 327 -419 l 327 336 l -12 336 l -12 453 l 327 453 l 327 1351 l 425 1351 l 425 453 l 765 453 l 765 336 l 425 336 "},"₰":{"x_min":11.734375,"x_max":723,"ha":795,"o":"m 84 349 l 11 414 q 198 578 129 578 q 302 524 272 578 q 364 452 344 452 q 435 496 393 452 q 342 721 342 592 q 348 789 342 754 q 428 965 369 906 q 576 1031 493 1031 q 695 965 647 1031 q 723 862 723 928 q 715 789 723 830 q 602 519 688 635 q 675 329 675 430 q 671 279 675 304 q 555 56 648 147 q 323 -20 477 -20 l 343 90 q 489 140 424 90 q 558 280 540 180 q 560 298 560 289 q 510 417 560 351 q 344 332 411 332 q 242 402 275 332 q 188 450 220 450 q 84 349 156 450 m 524 597 q 599 789 578 670 q 604 840 604 818 q 598 881 604 864 q 554 924 585 924 q 495 881 523 924 q 464 789 474 848 q 461 746 461 767 q 524 597 461 661 "},"ц":{"x_min":63.75,"x_max":786.671875,"ha":850,"o":"m 654 0 l 63 0 l 196 759 l 309 759 l 193 100 l 558 100 l 674 759 l 786 759 l 671 100 l 760 100 l 710 -192 l 620 -192 l 654 0 "},"⌌":{"x_min":461,"x_max":949,"ha":1010,"o":"m 461 300 l 549 300 l 549 -107 l 461 -107 l 461 300 m 583 338 l 583 436 l 949 436 l 949 338 l 583 338 "},"о":{"x_min":58,"x_max":707.96875,"ha":765,"o":"m 317 -20 q 127 62 197 -20 q 58 287 58 144 q 82 455 58 370 q 144 600 106 541 q 279 734 205 690 q 448 777 353 777 q 636 697 564 777 q 707 486 707 616 q 684 306 707 395 q 621 157 660 216 q 487 23 562 66 q 317 -20 412 -20 m 173 291 q 212 137 173 188 q 330 85 252 85 q 517 195 443 85 q 592 473 592 304 q 552 621 592 571 q 435 672 512 672 q 322 639 372 672 q 234 539 273 606 q 189 424 205 488 q 173 291 173 359 "},"𝌛":{"x_min":104,"x_max":1017,"ha":1121,"o":"m 311 521 l 104 521 l 104 657 l 311 657 l 311 521 m 810 521 l 810 657 l 1017 657 l 1017 521 l 810 521 m 663 521 l 457 521 l 457 657 l 663 657 l 663 521 m 107 136 l 1004 136 l 1009 131 l 1009 4 l 1004 0 l 107 0 l 104 4 l 104 131 l 107 136 m 107 917 l 1004 917 l 1009 912 l 1009 785 l 1004 781 l 107 781 l 104 785 l 104 912 l 107 917 m 107 396 l 467 396 l 472 391 l 472 264 l 467 260 l 107 260 l 104 264 l 104 391 l 107 396 m 644 396 l 1004 396 l 1009 391 l 1009 264 l 1004 260 l 644 260 l 641 264 l 641 391 l 644 396 "},"⋜":{"x_min":132,"x_max":915,"ha":1047,"o":"m 915 119 l 915 0 l 132 248 l 132 364 l 915 613 l 915 492 l 328 307 l 915 119 m 132 693 l 132 808 l 915 808 l 915 693 l 132 693 "},"⊥":{"x_min":107,"x_max":982,"ha":1088,"o":"m 505 86 l 505 972 l 583 972 l 583 86 l 982 86 l 982 0 l 107 0 l 107 86 l 505 86 "},"Д":{"x_min":-45.4375,"x_max":918.921875,"ha":977,"o":"m 236 115 l 638 115 l 775 897 l 479 897 l 455 753 q 288 190 395 414 q 236 115 265 144 m 56 115 q 183 239 145 157 q 343 821 278 448 l 377 1012 l 918 1012 l 762 115 l 866 115 l 808 -218 l 704 -218 l 742 0 l 96 0 l 59 -218 l -45 -218 l 12 115 l 56 115 "},"ᒷ":{"x_min":33.90625,"x_max":893.828125,"ha":954,"o":"m 769 572 l 893 572 l 870 433 l 745 433 l 769 572 m 210 1012 l 333 1012 l 177 114 l 621 114 l 600 0 l 33 0 l 210 1012 "},"❿":{"x_min":93,"x_max":1028,"ha":1120,"o":"m 1028 505 q 891 137 1028 289 q 559 -14 754 -14 q 229 137 366 -14 q 93 505 93 289 q 155 765 93 639 q 330 957 218 890 q 559 1025 443 1025 q 790 957 677 1025 q 965 765 902 890 q 1028 505 1028 641 m 269 234 l 543 234 l 543 321 l 446 321 l 446 806 l 375 806 l 260 777 l 260 684 l 365 711 l 365 322 l 269 322 l 269 234 m 821 520 q 799 359 821 410 q 740 308 778 308 q 680 359 701 308 q 659 520 659 410 q 680 681 659 630 q 740 733 701 733 q 799 681 778 733 q 821 520 821 630 m 576 519 q 617 301 576 378 q 739 224 659 224 q 860 301 819 224 q 902 519 902 378 q 860 738 902 661 q 739 816 819 816 q 617 738 659 816 q 576 519 576 661 "},"Ӂ":{"x_min":-63.0625,"x_max":1389.5625,"ha":1346,"o":"m 618 1289 l 691 1289 q 722 1229 698 1247 q 792 1211 746 1211 q 878 1229 845 1211 q 929 1289 911 1248 l 1001 1289 q 924 1168 980 1212 q 790 1125 868 1125 q 673 1166 716 1125 q 618 1289 630 1207 m 700 1013 l 823 1013 l 736 512 l 1240 1013 l 1389 1013 l 987 613 l 1234 0 l 1105 0 l 895 521 l 705 332 l 646 0 l 523 0 l 581 332 l 457 521 l 65 0 l -63 0 l 398 613 l 134 1013 l 284 1013 l 613 512 l 700 1013 "},"◜":{"x_min":3,"x_max":480,"ha":483,"o":"m 3 361 q 241 819 3 666 q 480 896 361 896 l 480 816 q 277 750 378 816 q 75 361 75 620 l 3 361 "},"͌":{"x_min":-529.65625,"x_max":-92.90625,"ha":0,"o":"m -317 1019 l -338 1036 l -339 1037 q -388 1059 -365 1059 q -425 1041 -409 1059 q -453 991 -442 1024 l -529 991 q -470 1101 -507 1064 q -381 1139 -433 1139 q -341 1131 -360 1139 q -300 1107 -322 1124 l -280 1090 q -258 1076 -269 1080 q -234 1072 -246 1072 q -193 1090 -210 1072 q -169 1139 -176 1108 l -92 1139 q -151 1028 -113 1065 q -245 991 -189 991 q -281 998 -264 991 q -317 1019 -298 1005 m -317 857 l -338 874 l -339 875 q -388 897 -365 897 q -425 879 -409 897 q -453 828 -442 862 l -529 828 q -470 939 -507 902 q -381 977 -433 977 q -341 969 -360 977 q -300 945 -322 962 l -280 927 q -258 913 -269 917 q -234 909 -246 909 q -193 927 -210 909 q -169 977 -176 945 l -92 977 q -151 865 -113 902 q -245 828 -189 828 q -281 835 -264 828 q -317 857 -298 842 "},"Ĵ":{"x_min":-204.125,"x_max":482.859375,"ha":368,"o":"m 254 1290 l 386 1290 l 482 1109 l 400 1109 l 315 1230 l 187 1109 l 95 1109 l 254 1290 m 209 1013 l 332 1013 l 168 70 q 59 -195 135 -113 q -155 -278 -17 -278 l -204 -278 l -184 -163 l -145 -163 q -20 -110 -63 -163 q 44 70 22 -58 l 209 1013 "},"Ҕ":{"x_min":33.46875,"x_max":777.609375,"ha":695,"o":"m 245 483 l 156 0 l 33 0 l 210 1013 l 777 1013 l 757 898 l 314 898 l 265 598 l 519 598 q 687 517 632 598 q 722 381 722 467 q 711 278 722 334 l 675 70 q 567 -195 644 -111 q 351 -278 490 -278 l 305 -278 l 325 -163 l 363 -163 q 488 -112 445 -163 q 553 70 530 -62 l 588 267 q 595 345 595 309 q 578 429 595 397 q 474 483 551 483 l 245 483 "},"⪶":{"x_min":132,"x_max":915,"ha":1047,"o":"m 335 -159 l 132 -159 l 132 -44 l 421 -44 l 480 34 l 132 34 l 132 149 l 566 149 l 650 260 l 735 182 l 710 149 l 915 149 l 915 34 l 623 34 l 564 -44 l 915 -44 l 915 -159 l 478 -159 l 394 -270 l 310 -192 l 335 -159 m 132 772 l 132 918 q 915 606 345 664 l 915 493 q 132 181 345 433 l 132 327 q 656 549 324 494 q 132 772 319 580 "},"г":{"x_min":46.796875,"x_max":661.890625,"ha":656,"o":"m 46 0 l 180 760 l 661 760 l 644 660 l 275 660 l 160 0 l 46 0 "},"⚤":{"x_min":99,"x_max":1372,"ha":1428,"o":"m 1035 273 q 790 162 933 162 q 614 213 692 162 q 504 178 562 185 l 504 0 l 670 0 l 670 -84 l 504 -84 l 504 -258 l 400 -258 l 400 -84 l 245 -84 l 245 0 l 400 0 l 400 178 q 202 276 285 189 q 99 544 99 383 q 201 819 99 706 q 449 932 303 932 q 619 883 543 932 q 783 925 694 925 q 991 850 923 925 l 1211 1087 l 986 1087 l 1071 1183 l 1372 1183 l 1372 849 l 1285 752 l 1285 1005 l 1065 767 q 1131 539 1131 694 q 1035 273 1131 383 m 954 728 q 786 807 882 807 q 714 798 747 807 q 799 544 799 692 q 711 292 799 392 q 787 278 746 278 q 956 356 887 278 q 1026 543 1026 435 q 954 728 1026 650 m 522 300 q 442 545 442 404 l 441 547 q 526 798 441 691 q 449 813 490 813 q 279 735 349 813 q 209 546 209 658 q 279 362 209 436 q 449 289 349 289 q 522 300 487 289 m 615 360 q 689 546 689 432 q 618 735 689 657 q 548 545 548 657 q 615 360 548 435 "},"⭔":{"x_min":47,"x_max":1038.3125,"ha":1086,"o":"m 633 1002 l 116 816 l 116 212 l 633 25 l 952 514 l 633 1002 m 659 1093 l 1038 514 l 659 -65 l 47 156 l 47 872 l 659 1093 "},"ᾙ":{"x_min":93.5625,"x_max":1010.46875,"ha":1044,"o":"m 543 -289 l 453 -289 q 425 -266 437 -289 q 421 -217 416 -248 l 448 -62 l 539 -62 l 512 -217 q 515 -235 510 -227 q 529 -244 521 -244 l 551 -244 l 543 -289 m 99 1007 l 116 1108 l 263 1108 l 244 1001 l 163 1001 q 227 895 145 895 l 214 826 q 99 1007 67 826 m 315 1012 l 439 1012 l 366 597 l 814 597 l 887 1013 l 1010 1013 l 833 0 l 709 0 l 794 482 l 346 482 l 261 0 l 138 0 l 315 1012 "},"⡳":{"x_min":183,"x_max":732,"ha":915,"o":"m 183 1085 l 366 1085 l 366 882 l 183 882 l 183 1085 m 183 701 l 366 701 l 366 498 l 183 498 l 183 701 m 549 701 l 732 701 l 732 498 l 549 498 l 549 701 m 549 317 l 732 317 l 732 114 l 549 114 l 549 317 m 183 -68 l 366 -68 l 366 -271 l 183 -271 l 183 -68 "},"Յ":{"x_min":41.359375,"x_max":867.046875,"ha":915,"o":"m 158 810 q 282 972 175 907 q 550 1032 380 1032 q 797 972 718 1032 q 863 810 881 907 q 793 661 849 723 q 656 579 738 601 q 779 489 741 556 q 796 303 817 422 q 672 58 767 137 q 366 -20 577 -20 q 88 58 154 -20 q 50 304 21 136 l 173 304 q 195 141 153 194 q 385 89 236 89 q 594 141 534 89 q 673 303 653 193 q 651 468 693 416 q 461 521 610 521 l 108 521 l 127 629 l 479 629 q 672 673 619 629 q 739 795 725 717 q 695 889 749 856 q 531 922 641 922 q 356 889 420 922 q 282 810 297 860 l 158 810 "},"ʟ":{"x_min":46.796875,"x_max":566.953125,"ha":633,"o":"m 179 759 l 292 759 l 177 100 l 566 100 l 549 0 l 46 0 l 179 759 "},"Җ":{"x_min":-44.765625,"x_max":1408.5625,"ha":1346,"o":"m 719 1012 l 842 1012 l 755 511 l 1259 1012 l 1408 1012 l 1006 612 l 1206 115 l 1289 115 l 1231 -218 l 1111 -218 l 1149 0 l 1124 0 l 914 521 l 723 331 l 665 0 l 542 0 l 600 331 l 476 521 l 84 0 l -44 0 l 417 612 l 153 1012 l 303 1012 l 632 511 l 719 1012 "},"⊻":{"x_min":122,"x_max":793,"ha":915,"o":"m 122 0 l 122 115 l 793 115 l 793 0 l 122 0 m 160 1027 l 280 1027 l 457 390 l 634 1027 l 754 1027 l 533 224 l 381 224 l 160 1027 "},"ᓅ":{"x_min":17.640625,"x_max":1028,"ha":1064,"o":"m 676 115 q 818 164 763 115 q 888 302 873 213 q 894 360 894 333 q 856 466 894 430 q 746 517 804 517 q 619 466 689 517 q 529 302 549 416 q 526 261 526 281 q 549 171 526 211 q 676 115 581 115 m 656 0 l 17 0 l 38 115 l 413 115 q 392 222 392 159 q 399 302 392 259 q 524 544 427 462 q 765 626 622 626 q 978 544 910 626 q 1028 388 1028 486 q 1019 302 1028 348 q 901 76 993 152 q 656 0 808 0 m 760 884 l 883 884 l 860 745 l 735 745 l 760 884 "},"։":{"x_min":76.640625,"x_max":306.53125,"ha":421,"o":"m 107 172 l 235 172 l 205 0 l 76 0 l 107 172 m 177 576 l 306 576 l 276 404 l 147 404 l 177 576 "},"ﬗ":{"x_min":81.59375,"x_max":1879.203125,"ha":1911,"o":"m 912 936 l 748 936 q 684 906 690 936 q 684 857 680 880 l 709 730 q 716 596 724 648 l 611 -1 l 499 -1 l 519 115 q 406 12 466 46 q 275 -21 347 -21 q 111 60 158 -21 q 91 298 64 141 l 172 758 l 284 758 l 204 303 q 214 141 185 195 q 318 88 242 88 q 473 152 409 88 q 556 328 537 216 l 604 600 q 606 669 611 643 l 581 797 q 585 972 557 923 q 760 1055 633 1055 l 1046 1055 l 973 641 q 1075 743 1049 728 q 1201 778 1135 778 q 1365 696 1319 778 q 1384 457 1411 615 l 1357 303 q 1366 141 1339 201 q 1458 88 1391 88 q 1608 152 1544 88 q 1691 328 1672 216 l 1766 759 l 1879 759 l 1746 -1 l 1633 -1 l 1654 115 q 1541 12 1601 46 q 1416 -21 1481 -21 q 1263 60 1308 -21 q 1243 299 1216 144 l 1270 453 q 1261 615 1289 561 q 1156 669 1232 669 q 1019 604 1083 669 q 937 428 956 540 l 811 -289 l 698 -289 l 912 936 "},"Ἀ":{"x_min":-65.78125,"x_max":769.71875,"ha":855,"o":"m 344 1007 q 164 826 312 826 l 177 895 q 277 1001 259 895 l 195 1001 l 214 1108 l 361 1108 l 344 1007 m 461 1012 l 600 1012 l 769 0 l 640 0 l 602 260 l 193 260 l 64 0 l -65 0 l 461 1012 m 505 877 l 249 374 l 583 374 l 505 877 "},"𝟜":{"x_min":55.03125,"x_max":737.125,"ha":795,"o":"m 571 945 l 448 945 l 448 68 l 571 68 l 571 945 m 388 893 l 124 353 l 388 353 l 388 893 m 385 1013 l 632 1013 l 632 353 l 737 353 l 737 285 l 632 285 l 632 0 l 388 0 l 388 285 l 55 285 l 55 371 l 385 1013 "},"└":{"x_min":327,"x_max":765.4375,"ha":753,"o":"m 327 336 l 327 1351 l 425 1351 l 425 453 l 765 453 l 765 336 l 327 336 "},"Ὕ":{"x_min":92.203125,"x_max":1346.84375,"ha":1265,"o":"m 501 1111 l 622 1111 l 379 856 l 284 856 l 501 1111 m 97 1006 l 115 1107 l 262 1107 l 243 1000 l 162 1000 q 225 895 143 895 l 213 826 q 97 1006 66 826 m 580 1013 l 712 1013 l 882 596 l 1207 1013 l 1346 1013 l 933 482 l 849 0 l 725 0 l 809 482 l 580 1013 "},"պ":{"x_min":86.921875,"x_max":1174.59375,"ha":1217,"o":"m 531 146 q 408 22 475 64 q 263 -18 343 -18 q 113 65 156 -18 q 96 302 70 148 l 177 761 l 290 761 l 210 306 q 216 143 191 196 q 314 91 242 91 q 463 156 400 91 q 544 331 524 219 l 619 761 l 732 761 l 653 306 q 659 143 633 196 q 757 91 684 91 q 906 156 843 91 q 986 331 967 221 l 1062 761 l 1174 761 l 991 -289 l 878 -289 l 949 119 q 839 16 900 50 q 705 -18 779 -18 q 586 24 632 -18 q 531 146 541 66 "},"Ԥ":{"x_min":52.890625,"x_max":925.015625,"ha":991,"o":"m 624 0 l 781 897 l 332 897 l 176 0 l 52 0 l 229 1012 l 925 1012 l 767 115 l 890 115 l 832 -218 l 710 -218 l 747 0 l 624 0 "},"⨒":{"x_min":71.5,"x_max":580.34375,"ha":652,"o":"m 266 460 l 394 460 l 394 288 l 266 288 l 266 460 m 258 -74 l 258 177 l 495 177 l 495 556 l 291 556 l 291 847 q 343 1006 291 959 q 439 1052 393 1052 q 533 1005 487 1052 q 580 871 567 969 l 490 861 q 441 950 480 950 q 395 830 395 950 l 395 650 l 579 650 l 579 83 l 358 83 l 358 -91 q 304 -250 358 -203 q 207 -294 247 -300 q 117 -247 160 -287 q 71 -115 85 -216 l 161 -104 q 210 -193 172 -193 q 258 -74 258 -193 "},"ᔾ":{"x_min":81.375,"x_max":464.546875,"ha":523,"o":"m 132 1020 l 221 1020 l 181 797 l 464 797 l 450 714 l 192 452 l 104 452 l 374 722 l 81 722 l 132 1020 "},"ḳ":{"x_min":44.078125,"x_max":764.96875,"ha":724,"o":"m 229 1055 l 341 1055 l 233 439 l 619 759 l 764 759 l 335 395 l 649 -1 l 512 -1 l 221 370 l 155 0 l 44 0 l 229 1055 m 227 -118 l 351 -118 l 326 -256 l 202 -256 l 227 -118 "},"ѫ":{"x_min":-0.4375,"x_max":764.140625,"ha":764,"o":"m 554 644 l 298 644 l 382 398 l 554 644 m 764 759 l 498 376 q 595 292 559 351 q 638 115 638 222 q 627 0 638 62 l 508 0 q 517 94 517 50 q 492 213 517 164 q 418 284 466 267 l 367 0 l 255 0 l 304 283 q 208 214 251 265 q 118 0 141 136 l 0 0 q 134 292 32 187 q 259 376 189 350 l 129 759 l 764 759 "},"Ѝ":{"x_min":33.90625,"x_max":900.609375,"ha":935,"o":"m 535 1288 l 625 1109 l 539 1109 l 423 1288 l 535 1288 m 900 1013 l 723 0 l 604 0 l 752 847 l 200 0 l 33 0 l 210 1013 l 330 1013 l 182 165 l 735 1013 l 900 1013 "},"䷼":{"x_min":104,"x_max":1009,"ha":1120,"o":"m 106 574 l 467 574 l 472 569 l 472 442 l 467 438 l 106 438 l 104 442 l 104 569 l 106 574 m 644 574 l 1004 574 l 1009 569 l 1009 442 l 1004 438 l 644 438 l 641 442 l 641 569 l 644 574 m 106 793 l 1004 793 l 1009 788 l 1009 661 l 1004 657 l 106 657 l 104 661 l 104 788 l 106 793 m 106 1013 l 1004 1013 l 1009 1008 l 1009 881 l 1004 877 l 106 877 l 104 881 l 104 1008 l 106 1013 m 106 -84 l 1004 -84 l 1009 -88 l 1009 -215 l 1004 -220 l 106 -220 l 104 -215 l 104 -88 l 106 -84 m 107 135 l 1005 135 l 1009 130 l 1009 3 l 1005 -1 l 107 -1 l 104 3 l 104 130 l 107 135 m 106 355 l 467 355 l 472 350 l 472 223 l 467 219 l 106 219 l 104 223 l 104 350 l 106 355 m 644 355 l 1004 355 l 1009 350 l 1009 223 l 1004 219 l 644 219 l 641 223 l 641 350 l 644 355 "},"ǲ":{"x_min":33.46875,"x_max":1640.53125,"ha":1617,"o":"m 210 1013 l 475 1013 q 794 913 686 1013 q 902 618 902 814 q 860 368 902 488 q 748 166 819 249 q 564 41 675 82 q 299 0 452 0 l 33 0 l 210 1013 m 314 900 l 177 113 l 338 113 q 658 245 545 113 q 772 618 772 377 q 698 831 772 763 q 469 900 625 900 l 314 900 m 1106 760 l 1640 760 l 1620 645 l 1105 100 l 1530 100 l 1513 0 l 958 0 l 977 114 l 1492 660 l 1089 660 l 1106 760 "},"͞":{"x_min":-370.953125,"x_max":750.734375,"ha":0,"o":"m -353 1288 l 750 1288 l 733 1188 l -370 1188 l -353 1288 "},"⤆":{"x_min":60.90625,"x_max":976,"ha":1047,"o":"m 872 283 l 317 283 l 374 219 l 300 138 l 60 404 l 60 466 l 300 732 l 374 651 l 317 588 l 872 588 l 872 727 l 976 727 l 976 144 l 872 144 l 872 283 m 872 364 l 872 507 l 244 507 l 180 435 l 244 364 l 872 364 "},"У":{"x_min":30.515625,"x_max":828.71875,"ha":762,"o":"m 109 1012 l 242 1012 l 364 418 l 696 1013 l 828 1013 l 332 122 q 290 63 314 88 q 77 0 230 0 l 30 0 l 50 115 l 88 115 q 186 129 161 115 q 228 173 211 144 l 267 245 l 109 1012 "},"ᴎ":{"x_min":46.796875,"x_max":765.65625,"ha":812,"o":"m 765 760 l 632 0 l 520 0 l 627 610 l 191 0 l 46 0 l 180 760 l 291 760 l 185 151 l 620 760 l 765 760 "},"⟦":{"x_min":0,"x_max":606.96875,"ha":618,"o":"m 265 987 l 72 -116 l 194 -116 l 387 987 l 265 987 m 216 1055 l 606 1055 l 595 987 l 448 987 l 255 -116 l 402 -116 l 390 -184 l 0 -184 l 216 1055 "},"➍":{"x_min":5,"x_max":1041,"ha":1046,"o":"m 563 815 l 563 382 l 314 382 l 563 815 m 537 911 l 234 397 l 234 292 l 564 292 l 564 101 l 661 101 l 661 292 l 766 292 l 766 383 l 661 383 l 661 911 l 537 911 m 324 1039 q 523 1083 417 1083 q 722 1039 629 1083 q 889 912 814 997 q 1003 725 966 826 q 1041 503 1041 623 q 1003 284 1041 387 q 889 98 966 183 q 722 -28 814 13 q 523 -72 629 -72 q 324 -28 417 -72 q 156 98 232 13 q 43 284 80 183 q 5 503 5 387 q 43 726 5 623 q 156 912 80 827 q 324 1039 232 997 "},"Ģ":{"x_min":56,"x_max":906.21875,"ha":969,"o":"m 433 -130 l 562 -130 l 424 -346 l 345 -346 l 433 -130 m 682 150 l 729 416 l 527 416 l 546 529 l 869 529 l 790 82 q 614 6 710 33 q 421 -20 518 -20 q 152 85 249 -20 q 56 380 56 191 q 114 678 56 537 q 277 914 173 820 q 420 1002 343 973 q 592 1031 497 1031 q 756 1006 678 1031 q 906 934 834 982 l 881 788 q 752 886 826 852 q 595 920 679 920 q 424 878 497 920 q 292 751 350 837 q 214 578 242 678 q 186 376 186 479 q 251 162 186 234 q 446 91 316 91 q 571 106 510 91 q 682 150 632 121 "},"⣂":{"x_min":183,"x_max":732,"ha":915,"o":"m 183 701 l 366 701 l 366 498 l 183 498 l 183 701 m 183 -68 l 366 -68 l 366 -271 l 183 -271 l 183 -68 m 549 -68 l 732 -68 l 732 -271 l 549 -271 l 549 -68 "},"⡞":{"x_min":183,"x_max":732,"ha":915,"o":"m 183 701 l 366 701 l 366 498 l 183 498 l 183 701 m 183 317 l 366 317 l 366 114 l 183 114 l 183 317 m 549 1085 l 732 1085 l 732 882 l 549 882 l 549 1085 m 549 701 l 732 701 l 732 498 l 549 498 l 549 701 m 183 -68 l 366 -68 l 366 -271 l 183 -271 l 183 -68 "},"ᕻ":{"x_min":95.171875,"x_max":621,"ha":704,"o":"m 226 622 l 279 926 l 127 751 l 95 792 l 285 1020 l 383 1020 l 341 775 q 453 803 395 803 q 582 763 543 803 q 621 665 621 723 q 616 622 621 645 q 537 484 600 527 q 389 442 473 442 q 260 481 298 442 q 222 578 222 520 q 226 622 222 598 m 403 517 q 486 546 456 517 q 523 622 515 575 q 527 652 527 638 q 506 707 527 686 q 439 728 485 728 q 353 699 383 728 q 314 622 322 670 q 312 594 312 607 q 333 538 312 560 q 403 517 355 517 "},"⁵":{"x_min":16.28125,"x_max":448.265625,"ha":500,"o":"m 136 1019 l 448 1019 l 437 955 l 198 955 l 174 816 q 210 825 192 822 q 245 828 227 828 q 391 775 343 828 q 424 635 440 724 q 340 493 408 544 q 165 443 273 443 q 91 449 128 443 q 16 467 54 455 l 29 543 q 96 515 61 525 q 175 507 133 507 q 289 541 243 507 q 345 635 335 576 q 321 729 355 694 q 220 764 288 764 q 155 757 188 764 q 87 736 122 750 l 136 1019 "},"ớ":{"x_min":60,"x_max":820,"ha":764,"o":"m 544 1110 l 665 1110 l 422 856 l 327 856 l 544 1110 m 559 666 l 573 747 q 629 701 605 716 q 672 687 654 687 q 717 705 700 687 q 741 761 734 724 q 745 803 745 782 q 738 846 745 825 l 820 846 q 820 797 820 820 q 816 753 820 774 q 768 632 801 671 q 678 593 735 593 q 620 611 648 593 q 559 666 591 629 m 319 -20 q 129 62 199 -20 q 60 287 60 144 q 84 455 60 369 q 146 599 108 541 q 281 734 207 690 q 450 777 355 777 q 638 697 566 777 q 709 486 709 616 q 686 306 709 395 q 623 157 662 216 q 489 23 564 66 q 319 -20 414 -20 m 175 291 q 214 137 175 188 q 332 85 254 85 q 519 195 445 85 q 594 473 594 304 q 554 621 594 571 q 437 672 514 672 q 324 638 374 672 q 236 538 275 605 q 191 424 207 488 q 175 291 175 359 "},"á":{"x_min":52,"x_max":713.84375,"ha":766,"o":"m 671 432 l 595 0 l 482 0 l 503 114 q 391 13 454 46 q 250 -20 327 -20 q 107 39 163 -20 q 52 191 52 98 q 147 401 52 324 q 410 479 242 479 l 566 479 l 572 512 q 574 524 573 517 q 575 544 575 530 q 530 638 575 604 q 406 672 486 672 q 293 656 351 672 q 175 609 236 640 l 195 724 q 319 764 258 751 q 437 777 380 777 q 620 719 557 777 q 684 549 684 661 q 680 497 684 527 q 671 432 677 466 m 549 381 l 437 381 q 234 340 300 381 q 167 213 167 299 q 201 119 167 153 q 295 85 235 85 q 454 158 386 85 q 545 353 522 231 l 549 381 m 592 1111 l 713 1111 l 470 856 l 375 856 l 592 1111 "},"ᵡ":{"x_min":-27.8125,"x_max":484.21875,"ha":454,"o":"m 242 357 l 210 503 l 55 291 l -27 291 l 191 592 l 152 770 q 83 819 142 819 l 64 819 l 74 877 l 101 877 q 213 812 200 877 l 245 666 l 400 879 l 484 879 l 265 577 l 303 398 q 373 351 314 351 l 391 351 l 381 293 l 354 293 q 242 357 255 293 "},"ꟽ":{"x_min":33.90625,"x_max":1045.0625,"ha":1078,"o":"m 33 0 l 210 1013 l 330 1013 l 174 123 l 531 818 l 655 818 l 769 123 l 925 1013 l 1045 1013 l 868 0 l 684 0 l 571 689 l 217 0 l 33 0 "},"Ⅎ":{"x_min":33.90625,"x_max":733.78125,"ha":719,"o":"m 556 0 l 33 0 l 53 115 l 453 115 l 505 414 l 144 414 l 164 529 l 526 529 l 611 1013 l 733 1013 l 556 0 "},"໔":{"x_min":19,"x_max":699.1875,"ha":781,"o":"m 468 320 q 500 276 461 276 q 546 320 539 276 q 515 364 554 364 q 468 320 476 364 m 654 -114 q 323 -64 488 -64 q 70 15 126 -64 q 23 226 3 112 q 209 566 63 456 l 357 678 q 587 987 559 830 l 699 987 q 406 583 661 775 l 253 468 q 136 226 166 403 q 163 91 122 152 q 337 51 191 51 q 461 34 402 51 q 375 309 351 168 q 530 464 400 464 q 641 316 674 464 q 533 179 610 179 q 672 -8 583 42 l 654 -114 "},"☦":{"x_min":104,"x_max":708,"ha":812,"o":"m 340 912 l 340 871 l 464 871 l 464 912 l 340 912 m 352 946 l 352 1016 l 456 1016 l 456 946 l 533 946 l 533 836 l 456 836 l 456 776 l 461 776 l 708 776 l 708 657 l 456 657 l 456 293 l 543 199 l 543 93 l 460 183 l 460 -2 l 352 -2 l 352 299 l 269 389 l 269 495 l 352 406 l 352 657 l 104 657 l 104 777 l 352 777 l 352 836 l 280 836 l 280 946 l 352 946 m 380 392 l 423 392 l 423 692 l 587 692 l 587 741 l 423 741 l 423 808 l 380 808 l 380 741 l 217 741 l 217 692 l 380 692 l 380 392 "},"ứ":{"x_min":73,"x_max":900,"ha":792,"o":"m 542 1111 l 663 1111 l 420 856 l 325 856 l 542 1111 m 85 301 l 165 759 l 278 759 l 198 306 q 189 249 192 272 q 187 209 187 225 q 218 120 187 152 q 308 89 250 89 q 464 156 398 89 q 550 339 530 224 l 625 759 l 737 759 l 605 0 l 492 0 l 515 119 q 402 16 468 53 q 262 -20 336 -20 q 123 34 173 -20 q 73 187 73 89 q 76 238 73 207 q 85 301 79 268 m 639 674 l 653 755 q 709 709 685 724 q 752 695 733 695 q 797 713 780 695 q 821 769 814 732 q 825 811 825 790 q 818 854 825 833 l 900 854 q 900 805 900 828 q 896 761 900 782 q 848 640 881 679 q 758 601 815 601 q 700 618 728 601 q 639 674 671 636 "},"ȴ":{"x_min":-15.59375,"x_max":480.1875,"ha":593,"o":"m 214 87 q 247 84 224 84 q 365 203 345 84 q 339 234 370 234 q 214 87 307 234 m 180 212 q 351 338 269 338 q 476 198 501 338 q 229 -20 438 -20 q 155 -9 185 -20 q 103 -98 125 -58 l -15 -98 q 68 48 10 -51 q 57 150 46 88 l 214 1051 l 327 1051 l 180 212 "},"ⱴ":{"x_min":48.671875,"x_max":763.65625,"ha":739,"o":"m 147 572 q 398 813 183 780 q 497 647 529 833 q 355 480 478 543 l 269 437 l 319 122 l 644 760 l 763 760 l 374 0 l 221 0 l 161 380 l 48 323 l 71 456 q 147 488 104 469 l 147 572 m 253 542 q 404 652 398 617 q 382 688 410 688 q 257 579 276 688 q 253 542 253 554 "},"ᴇ":{"x_min":46.796875,"x_max":612.390625,"ha":613,"o":"m 180 759 l 612 759 l 594 659 l 276 659 l 240 455 l 545 455 l 527 355 l 222 355 l 178 100 l 504 100 l 486 0 l 46 0 l 180 759 "},"K":{"x_min":33.90625,"x_max":902.640625,"ha":819,"o":"m 210 1013 l 335 1013 l 259 586 l 738 1013 l 902 1013 l 361 529 l 757 0 l 607 0 l 243 493 l 157 0 l 33 0 l 210 1013 "},"ן":{"x_min":21.703125,"x_max":318.734375,"ha":340,"o":"m 135 -289 l 21 -289 l 204 760 l 318 760 l 135 -289 "},"ᔫ":{"x_min":69.84375,"x_max":824.65625,"ha":783,"o":"m 749 1011 l 657 490 l 192 490 l 457 0 l 333 0 l 69 487 l 89 605 l 554 605 l 625 1011 l 749 1011 m 700 1269 l 824 1269 l 800 1130 l 675 1130 l 700 1269 "},"b":{"x_min":45.8125,"x_max":735,"ha":795,"o":"m 620 463 q 579 617 620 561 q 467 673 538 673 q 369 644 414 673 q 290 563 323 616 q 234 432 254 506 q 214 284 214 358 q 254 137 214 190 q 364 84 294 84 q 462 111 417 84 q 541 192 507 138 q 598 322 577 248 q 620 463 620 396 m 270 643 q 374 741 311 706 q 505 777 437 777 q 672 698 610 777 q 735 485 735 619 q 698 272 735 375 q 595 89 662 169 q 493 8 550 36 q 372 -20 436 -20 q 257 13 306 -20 q 178 114 208 47 l 157 0 l 45 0 l 230 1055 l 343 1055 l 270 643 "},"≕":{"x_min":125,"x_max":1125,"ha":1250,"o":"m 996 382 l 1125 382 l 1125 210 l 996 210 l 996 382 m 996 659 l 1125 659 l 1125 487 l 996 487 l 996 659 m 125 631 l 908 631 l 908 517 l 125 517 l 125 631 m 125 354 l 908 354 l 908 239 l 125 239 l 125 354 "},"≮":{"x_min":132,"x_max":915,"ha":1047,"o":"m 564 324 l 915 187 l 915 63 l 520 222 l 427 3 l 344 46 l 434 257 l 132 379 l 132 491 l 617 687 l 722 936 l 806 892 l 739 736 l 915 807 l 915 683 l 676 589 l 564 324 m 554 541 l 284 434 l 478 358 l 554 541 "},"ɢ":{"x_min":59.375,"x_max":711.40625,"ha":787,"o":"m 522 120 l 556 312 l 461 312 l 478 407 l 674 407 l 612 48 q 508 12 564 25 q 335 0 459 0 q 109 107 181 0 q 69 398 37 215 q 212 691 101 584 q 482 797 322 797 q 581 785 520 797 q 711 723 642 774 l 691 606 q 562 677 626 658 q 468 692 512 692 q 285 614 359 692 q 187 398 211 538 q 210 183 162 259 q 366 105 257 105 q 522 120 472 105 "},"ຣ":{"x_min":46.828125,"x_max":836.1875,"ha":855,"o":"m 189 233 q 156 222 167 233 q 143 189 146 211 q 146 155 138 165 q 174 146 155 146 q 206 157 196 146 q 221 189 217 168 q 217 223 225 214 q 189 233 208 233 m 634 221 q 427 380 661 380 q 125 591 88 380 q 505 789 161 789 q 836 640 722 789 l 750 557 q 480 684 620 684 q 237 588 252 684 q 463 481 222 481 q 748 231 792 481 q 356 -12 705 -12 q 80 62 149 -12 q 50 193 35 109 q 203 331 75 331 q 315 188 339 331 q 290 122 305 135 q 442 97 330 97 q 634 221 613 97 "},"⧐":{"x_min":132,"x_max":1117.84375,"ha":1250,"o":"m 132 20 l 132 850 l 236 850 l 236 20 l 132 20 m 439 194 l 965 435 l 439 675 l 439 194 m 335 20 l 335 850 l 1117 491 l 1117 378 l 335 20 "},"ᑾ":{"x_min":110.546875,"x_max":949.984375,"ha":1019,"o":"m 134 571 l 259 571 l 235 432 l 110 432 l 134 571 m 594 89 q 731 144 669 89 q 811 302 794 199 q 779 465 832 415 q 670 516 727 516 q 526 458 591 516 q 444 302 462 401 q 479 140 425 191 q 594 89 532 89 m 493 574 q 688 624 579 624 q 900 542 832 624 q 941 301 969 461 q 810 56 912 132 q 575 -20 708 -20 q 362 61 431 -20 q 322 303 294 142 l 446 1012 l 569 1012 l 493 574 "},"⍺":{"x_min":69,"x_max":764,"ha":824,"o":"m 515 353 l 489 510 q 353 671 461 671 q 234 596 271 671 q 187 379 187 502 q 232 158 187 229 q 353 86 279 86 q 478 230 435 86 l 515 353 m 578 561 l 639 759 l 739 759 l 614 348 l 638 199 q 665 138 644 166 q 710 105 690 105 l 764 105 l 764 0 l 696 0 q 588 56 639 0 q 552 145 563 85 q 467 10 524 69 q 353 -17 439 -17 q 140 86 210 -17 q 69 379 69 192 q 146 672 69 578 q 353 776 232 776 q 578 561 542 776 "},"Ḡ":{"x_min":56,"x_max":906.21875,"ha":969,"o":"m 682 150 l 729 416 l 527 416 l 546 529 l 869 529 l 790 82 q 614 6 710 33 q 421 -20 518 -20 q 152 85 249 -20 q 56 380 56 191 q 114 678 56 537 q 277 914 173 820 q 420 1002 343 973 q 592 1031 497 1031 q 756 1006 678 1031 q 906 934 834 982 l 881 788 q 752 886 826 852 q 595 920 679 920 q 424 878 497 920 q 292 751 350 837 q 214 578 242 678 q 186 376 186 479 q 251 162 186 234 q 446 91 316 91 q 571 106 510 91 q 682 150 632 121 m 458 1249 l 823 1249 l 805 1149 l 441 1149 l 458 1249 "},"ȭ":{"x_min":58,"x_max":723.5625,"ha":765,"o":"m 317 -20 q 127 62 197 -20 q 58 287 58 144 q 82 455 58 370 q 144 600 106 541 q 279 734 205 690 q 448 777 353 777 q 636 697 564 777 q 707 486 707 616 q 684 306 707 395 q 621 157 660 216 q 487 23 562 66 q 317 -20 412 -20 m 173 291 q 212 137 173 188 q 330 85 252 85 q 517 195 443 85 q 592 473 592 304 q 552 621 592 571 q 435 672 512 672 q 322 639 372 672 q 234 539 273 606 q 189 424 205 488 q 173 291 173 359 m 492 914 l 471 931 l 470 932 q 421 954 444 954 q 383 936 399 954 q 356 885 367 919 l 279 885 q 338 996 301 959 q 428 1034 376 1034 q 468 1026 449 1034 q 509 1002 486 1019 l 528 984 q 551 970 539 974 q 575 966 562 966 q 616 984 598 966 q 640 1034 633 1002 l 716 1034 q 658 923 696 960 q 564 885 619 885 q 528 892 545 885 q 492 914 511 900 m 358 1195 l 723 1195 l 705 1095 l 340 1095 l 358 1195 "},"Ŋ":{"x_min":58,"x_max":853,"ha":935,"o":"m 631 1031 q 853 761 853 1031 q 838 605 853 691 l 729 -13 q 643 -223 704 -158 q 471 -289 582 -289 l 418 -289 l 437 -183 l 466 -183 q 558 -152 529 -183 q 606 -13 587 -122 l 715 606 q 726 717 726 668 q 578 897 726 897 q 388 810 469 897 q 281 573 308 724 l 181 0 l 58 0 l 235 1013 l 358 1013 l 329 848 q 465 985 393 939 q 631 1031 538 1031 "},"Ẋ":{"x_min":-52.890625,"x_max":879.578125,"ha":856,"o":"m 509 1269 l 633 1269 l 609 1130 l 484 1130 l 509 1269 m 172 1013 l 296 1013 l 453 647 l 735 1013 l 879 1013 l 503 529 l 730 0 l 606 0 l 423 426 l 90 0 l -52 0 l 373 544 l 172 1013 "},"ͷ":{"x_min":46.796875,"x_max":765.65625,"ha":812,"o":"m 765 760 l 632 0 l 520 0 l 627 610 l 191 0 l 46 0 l 180 760 l 291 760 l 185 151 l 620 760 l 765 760 "},"ď":{"x_min":58,"x_max":1024.546875,"ha":794,"o":"m 522 113 q 416 13 477 47 q 279 -20 354 -20 q 117 57 176 -20 q 58 270 58 135 q 93 485 58 383 q 198 668 129 587 q 300 749 243 721 q 418 778 357 778 q 535 742 485 778 q 613 641 585 707 l 686 1055 l 799 1055 l 614 0 l 501 0 l 522 113 m 173 292 q 214 139 173 194 q 325 84 254 84 q 422 112 377 84 q 501 195 467 140 q 558 327 537 252 q 579 474 579 401 q 538 622 579 569 q 429 675 498 675 q 330 647 376 675 q 251 566 283 619 q 195 435 216 510 q 173 292 173 361 m 903 1054 l 1024 1054 l 918 799 l 824 799 l 903 1054 "},"Ⴠ":{"x_min":87.765625,"x_max":967.1875,"ha":998,"o":"m 909 331 q 864 200 897 261 q 782 95 830 140 q 674 25 734 50 q 551 0 615 0 q 436 25 487 0 q 351 95 385 50 q 308 186 318 140 q 298 265 298 231 q 303 331 298 297 l 406 919 l 251 919 l 214 708 l 87 708 l 145 1042 l 554 1042 l 429 331 q 426 289 426 309 q 432 241 426 269 q 457 185 438 212 q 507 141 477 157 q 573 126 536 126 q 646 141 611 126 q 708 185 681 157 q 755 250 736 212 q 782 331 775 287 l 840 661 l 967 661 l 909 331 "},"䷨":{"x_min":104,"x_max":1009,"ha":1120,"o":"m 106 574 l 467 574 l 472 569 l 472 442 l 467 438 l 106 438 l 104 442 l 104 569 l 106 574 m 644 574 l 1004 574 l 1009 569 l 1009 442 l 1004 438 l 644 438 l 641 442 l 641 569 l 644 574 m 106 793 l 467 793 l 472 788 l 472 661 l 467 657 l 106 657 l 104 661 l 104 788 l 106 793 m 644 793 l 1004 793 l 1009 788 l 1009 661 l 1004 657 l 644 657 l 641 661 l 641 788 l 644 793 m 106 1013 l 1004 1013 l 1009 1008 l 1009 881 l 1004 877 l 106 877 l 104 881 l 104 1008 l 106 1013 m 106 -84 l 1004 -84 l 1009 -88 l 1009 -215 l 1004 -220 l 106 -220 l 104 -215 l 104 -88 l 106 -84 m 107 135 l 1005 135 l 1009 130 l 1009 3 l 1005 -1 l 107 -1 l 104 3 l 104 130 l 107 135 m 106 355 l 467 355 l 472 350 l 472 223 l 467 219 l 106 219 l 104 223 l 104 350 l 106 355 m 644 355 l 1004 355 l 1009 350 l 1009 223 l 1004 219 l 644 219 l 641 223 l 641 350 l 644 355 "},"⟸":{"x_min":61,"x_max":1720,"ha":1791,"o":"m 244 364 l 1720 364 l 1720 283 l 317 283 l 374 219 l 301 138 l 61 404 l 61 466 l 301 732 l 374 651 l 317 588 l 1720 588 l 1720 507 l 244 507 l 180 435 l 244 364 "},"Ώ":{"x_min":65.78125,"x_max":1045.125,"ha":1032,"o":"m 971 121 l 949 0 l 583 0 l 604 121 q 804 299 724 186 q 908 548 884 411 q 873 809 936 711 q 677 908 809 908 q 448 809 545 908 q 321 548 349 710 q 338 299 297 411 q 476 121 379 186 l 455 0 l 89 0 l 110 121 l 305 121 q 198 316 225 215 q 193 542 172 417 q 372 891 231 757 q 698 1025 512 1025 q 977 891 883 1025 q 1034 548 1071 758 q 951 316 1012 417 q 775 121 890 216 l 971 121 m 282 1111 l 403 1111 l 160 856 l 65 856 l 282 1111 "},"ᴧ":{"x_min":-28.484375,"x_max":636.796875,"ha":739,"o":"m 636 0 l 517 0 l 415 637 l 90 0 l -28 0 l 360 760 l 513 760 l 636 0 "},"̟":{"x_min":-453.6875,"x_max":-170.21875,"ha":0,"o":"m -356 -225 l -453 -225 l -438 -144 l -341 -144 l -322 -34 l -248 -34 l -267 -144 l -170 -144 l -185 -225 l -282 -225 l -301 -334 l -375 -334 l -356 -225 "},"䷋":{"x_min":104,"x_max":1009,"ha":1121,"o":"m 107 -84 l 467 -84 l 472 -88 l 472 -215 l 467 -220 l 107 -220 l 104 -215 l 104 -88 l 107 -84 m 644 -84 l 1004 -84 l 1009 -88 l 1009 -215 l 1004 -220 l 644 -220 l 641 -215 l 641 -88 l 644 -84 m 107 135 l 467 135 l 472 130 l 472 3 l 467 -1 l 107 -1 l 104 3 l 104 130 l 107 135 m 644 135 l 1004 135 l 1009 130 l 1009 3 l 1004 -1 l 644 -1 l 641 3 l 641 130 l 644 135 m 107 355 l 467 355 l 472 350 l 472 223 l 467 219 l 107 219 l 104 223 l 104 350 l 107 355 m 644 355 l 1004 355 l 1009 350 l 1009 223 l 1004 219 l 644 219 l 641 223 l 641 350 l 644 355 m 107 574 l 1004 574 l 1009 569 l 1009 442 l 1004 438 l 107 438 l 104 442 l 104 569 l 107 574 m 107 794 l 1004 794 l 1009 789 l 1009 662 l 1004 658 l 107 658 l 104 662 l 104 789 l 107 794 m 107 1013 l 1004 1013 l 1009 1008 l 1009 881 l 1004 877 l 107 877 l 104 881 l 104 1008 l 107 1013 "},"סּ":{"x_min":105.3125,"x_max":818,"ha":874,"o":"m 443 431 l 534 431 l 517 329 l 425 329 l 443 431 m 228 662 l 105 662 l 122 759 l 546 759 q 773 661 708 759 q 818 491 818 595 q 807 379 818 439 q 668 67 767 154 q 412 -20 569 -20 q 200 77 259 -20 q 165 238 165 136 q 179 379 165 300 l 228 662 m 426 78 q 594 139 527 78 q 694 379 661 200 q 707 509 707 447 q 677 606 707 572 q 485 662 627 662 l 341 662 l 291 379 q 278 244 278 299 q 312 125 278 155 q 426 78 368 78 "},"ჼ":{"x_min":40,"x_max":364.90625,"ha":379,"o":"m 211 892 q 312 775 312 892 q 305 706 312 744 q 141 513 271 513 q 40 633 40 513 q 47 707 40 666 l 86 932 q 221 1055 108 1055 l 364 1055 l 355 1000 l 198 1000 q 145 945 155 1000 l 126 838 l 211 892 m 248 707 q 254 755 254 734 q 194 829 254 829 q 103 703 125 829 q 97 643 97 669 q 150 567 97 567 q 248 707 224 567 "},"Ѿ":{"x_min":45,"x_max":1105,"ha":1167,"o":"m 954 1250 l 870 1114 l 839 1114 l 820 1182 l 714 1182 l 672 1114 l 641 1114 l 622 1182 l 516 1182 l 473 1114 l 443 1114 l 405 1250 l 954 1250 m 196 233 q 304 160 228 160 q 430 231 374 160 q 509 436 486 301 l 539 599 l 660 599 l 631 436 q 620 330 620 377 q 637 231 620 271 q 739 160 668 160 q 873 233 820 160 q 966 514 930 314 q 977 634 977 576 q 966 746 977 692 q 878 1012 921 964 l 1031 1012 q 1089 818 1074 923 q 1105 626 1105 712 q 1095 498 1105 556 q 949 100 1046 220 q 725 -20 853 -20 q 584 43 635 -20 q 535 224 535 107 q 416 43 489 107 q 254 -20 344 -20 q 73 100 125 -20 q 45 270 45 164 q 68 498 45 367 q 184 818 91 635 q 311 1012 239 925 l 463 1012 q 283 746 403 964 q 202 514 223 638 q 182 329 182 402 q 196 233 182 267 "},"Ⴃ":{"x_min":31,"x_max":991.59375,"ha":949,"o":"m 764 462 q 771 535 771 500 q 771 573 771 546 q 758 642 771 601 q 724 717 745 683 q 674 775 703 750 q 609 814 646 800 q 530 827 572 827 q 407 797 468 827 q 298 717 347 767 q 214 600 249 666 q 167 462 180 534 q 161 393 161 426 q 170 314 161 360 q 211 222 179 268 q 294 151 244 177 q 405 125 344 125 q 530 150 470 125 q 637 220 589 175 q 718 328 685 266 q 764 462 752 390 m 889 462 q 825 280 872 364 q 710 133 778 196 q 558 35 642 71 q 384 0 474 0 q 225 35 296 0 q 107 133 154 71 q 45 260 60 196 q 31 373 31 324 q 39 462 31 416 q 93 623 54 548 q 191 755 133 697 q 322 853 250 813 q 477 909 395 892 l 118 909 l 141 1043 l 991 1043 l 967 909 l 609 909 q 743 853 684 893 q 839 755 802 814 q 887 641 877 696 q 898 548 898 586 q 889 462 898 506 "},"ṏ":{"x_min":58,"x_max":729,"ha":765,"o":"m 317 -20 q 127 62 197 -20 q 58 287 58 144 q 82 455 58 370 q 144 600 106 541 q 279 734 205 690 q 448 777 353 777 q 636 697 564 777 q 707 486 707 616 q 684 306 707 395 q 621 157 660 216 q 487 23 562 66 q 317 -20 412 -20 m 173 291 q 212 137 173 188 q 330 85 252 85 q 517 195 443 85 q 592 473 592 304 q 552 621 592 571 q 435 672 512 672 q 322 639 372 672 q 234 539 273 606 q 189 424 205 488 q 173 291 173 359 m 499 922 l 478 939 l 477 940 q 428 962 451 962 q 391 944 407 962 q 363 894 374 927 l 287 894 q 346 1004 309 967 q 435 1042 383 1042 q 475 1034 456 1042 q 516 1010 494 1027 l 536 993 q 558 979 547 983 q 582 975 570 975 q 623 993 606 975 q 647 1042 640 1011 l 724 1042 q 665 931 703 968 q 571 894 627 894 q 535 901 552 894 q 499 922 518 908 m 366 1229 l 490 1229 l 465 1091 l 342 1091 l 366 1229 m 605 1229 l 729 1229 l 705 1091 l 581 1091 l 605 1229 "},"ᖒ":{"x_min":99.375,"x_max":1287.171875,"ha":1252,"o":"m 281 755 q 367 783 341 755 q 400 851 393 812 q 380 928 409 902 q 316 955 351 955 q 242 928 280 955 q 195 851 204 902 q 207 779 187 804 q 281 755 227 755 m 268 680 q 133 725 178 680 q 103 854 88 770 q 177 977 116 931 q 327 1023 237 1023 q 462 977 418 1023 q 493 855 507 931 q 448 755 483 795 l 560 755 l 540 641 q 548 544 527 566 q 596 522 569 522 q 662 545 637 522 q 699 641 687 569 l 720 755 l 808 755 l 788 642 q 712 506 772 552 q 585 461 652 461 q 482 506 526 461 q 453 641 437 552 l 460 680 l 268 680 m 598 302 q 625 146 581 203 q 748 89 670 89 q 881 140 810 89 q 971 302 952 191 l 1096 1012 l 1220 1012 l 1095 302 q 970 61 1067 142 q 729 -20 872 -20 q 521 56 596 -20 q 475 302 445 132 l 598 302 m 1163 1269 l 1287 1269 l 1263 1130 l 1137 1130 l 1163 1269 "},"Ć":{"x_min":52,"x_max":868.3125,"ha":872,"o":"m 868 934 l 843 790 q 718 888 784 856 q 576 920 653 920 q 393 864 472 920 q 257 694 314 808 q 201 539 220 621 q 182 374 182 457 q 246 163 182 236 q 433 91 310 91 q 596 121 518 91 q 748 211 674 151 l 719 49 q 573 -2 647 15 q 424 -20 498 -20 q 150 85 249 -20 q 52 380 52 191 q 89 617 52 501 q 197 830 127 734 q 367 982 271 933 q 589 1031 462 1031 q 738 1006 668 1031 q 868 934 807 982 m 655 1288 l 781 1288 l 594 1109 l 498 1109 l 655 1288 "},"ẓ":{"x_min":-2.71875,"x_max":679.53125,"ha":656,"o":"m 145 760 l 679 760 l 659 645 l 144 100 l 569 100 l 552 0 l -2 0 l 16 114 l 531 660 l 128 660 l 145 760 m 179 -118 l 303 -118 l 278 -256 l 153 -256 l 179 -118 "},"↫":{"x_min":61,"x_max":975,"ha":1047,"o":"m 713 493 l 792 493 q 822 499 808 493 q 848 518 837 506 q 865 548 859 530 q 872 581 872 563 q 865 615 872 600 q 848 645 859 633 q 822 664 837 657 q 792 671 808 671 q 762 664 776 671 q 736 645 747 657 q 719 615 726 634 q 713 581 713 600 l 713 493 m 610 493 l 610 581 q 623 660 610 623 q 663 726 637 698 q 722 771 692 756 q 792 786 754 786 q 862 771 832 786 q 921 726 897 753 q 961 660 949 695 q 975 581 975 623 q 961 503 975 540 q 921 437 947 465 q 862 392 892 407 q 792 378 830 378 l 713 378 l 713 229 l 610 229 l 610 378 l 231 378 l 374 220 l 300 138 l 61 405 l 61 465 l 300 733 l 374 651 l 231 493 l 610 493 "},"Ͱ":{"x_min":33.90625,"x_max":710.046875,"ha":818,"o":"m 689 482 l 241 482 l 157 0 l 33 0 l 210 1012 l 334 1012 l 261 597 l 710 597 l 689 482 "},"Ğ":{"x_min":56,"x_max":906.21875,"ha":969,"o":"m 682 150 l 729 416 l 527 416 l 546 529 l 869 529 l 790 82 q 614 6 710 33 q 421 -20 518 -20 q 152 85 249 -20 q 56 380 56 191 q 114 678 56 537 q 277 914 173 820 q 420 1002 343 973 q 592 1031 497 1031 q 756 1006 678 1031 q 906 934 834 982 l 881 788 q 752 886 826 852 q 595 920 679 920 q 424 878 497 920 q 292 751 350 837 q 214 578 242 678 q 186 376 186 479 q 251 162 186 234 q 446 91 316 91 q 571 106 510 91 q 682 150 632 121 m 417 1288 l 490 1288 q 521 1229 497 1247 q 591 1211 545 1211 q 677 1229 643 1211 q 727 1289 710 1248 l 800 1289 q 723 1168 779 1212 q 588 1125 667 1125 q 472 1165 514 1125 q 417 1288 429 1206 "},"Ї":{"x_min":33.90625,"x_max":482.859375,"ha":368,"o":"m 120 1269 l 244 1269 l 219 1131 l 96 1131 l 120 1269 m 359 1269 l 482 1269 l 459 1131 l 335 1131 l 359 1269 m 210 1013 l 335 1013 l 157 0 l 33 0 l 210 1013 "},"Ṁ":{"x_min":33.90625,"x_max":1045.0625,"ha":1078,"o":"m 602 1269 l 726 1269 l 702 1130 l 577 1130 l 602 1269 m 210 1013 l 396 1013 l 502 330 l 855 1013 l 1045 1013 l 867 0 l 747 0 l 902 888 l 545 195 l 424 195 l 308 890 l 153 0 l 33 0 l 210 1013 "},"𝕒":{"x_min":75,"x_max":714,"ha":826,"o":"m 653 433 q 607 622 653 576 q 524 683 561 667 q 571 528 571 620 l 571 68 l 653 68 l 653 433 m 714 433 l 714 0 l 510 0 l 510 115 q 413 12 471 45 q 303 -20 356 -20 q 136 45 198 -20 q 75 220 75 110 q 151 413 75 348 q 381 479 228 479 l 510 479 l 510 528 q 474 661 510 614 q 345 709 438 709 q 231 693 287 709 q 125 646 175 677 l 125 725 q 265 764 198 751 q 368 778 333 778 q 628 692 542 778 q 714 433 714 607 m 510 353 l 510 411 l 381 411 q 320 408 349 411 l 320 50 q 407 76 377 50 q 473 151 437 103 q 510 353 510 200 m 259 52 l 259 396 q 177 349 218 384 q 136 220 136 314 q 172 100 136 140 q 259 52 209 61 "},"ໝ":{"x_min":56.078125,"x_max":1250.828125,"ha":1285,"o":"m 304 654 q 273 697 312 697 q 226 654 234 697 q 258 611 218 611 q 304 654 296 611 m 597 654 q 566 698 605 698 q 519 654 527 698 q 551 611 511 611 q 597 654 589 611 m 985 580 l 907 135 q 958 99 907 99 q 1039 209 1020 99 l 1138 780 l 1250 780 l 1151 209 q 942 -10 1113 -10 q 862 20 883 -10 q 636 -10 817 -10 l 658 116 q 816 254 791 116 l 873 579 q 839 668 888 668 q 745 630 784 668 q 692 585 717 604 l 626 209 q 319 -16 588 -16 q 59 188 24 -16 q 216 512 91 369 q 122 647 103 544 q 287 793 148 793 q 406 649 432 793 q 304 475 389 554 q 177 193 203 381 q 336 86 163 86 q 515 209 493 86 l 565 504 q 534 500 553 500 l 534 500 q 423 662 394 500 q 576 799 447 799 q 696 731 675 799 q 869 798 777 798 q 985 580 1022 798 "},"Ⴋ":{"x_min":16,"x_max":961.203125,"ha":991,"o":"m 364 537 q 289 521 325 537 q 225 478 253 505 q 176 413 196 450 q 148 331 156 375 q 144 288 144 308 q 149 240 144 268 q 174 185 155 212 q 223 141 193 157 q 293 126 253 126 q 365 141 331 126 q 428 185 400 157 q 476 250 456 212 q 503 331 495 287 l 539 537 l 364 537 m 730 20 l 820 537 l 664 537 l 628 331 q 583 202 617 262 q 500 97 548 141 q 393 26 452 52 q 271 0 333 0 q 156 26 207 0 q 70 97 104 52 q 26 187 37 141 q 16 268 16 234 q 22 331 16 299 q 68 462 34 401 q 152 566 102 522 q 262 635 202 610 q 386 661 322 661 l 561 661 l 606 918 l 217 918 l 238 1043 l 753 1043 l 686 661 l 961 661 l 848 20 l 730 20 "},"┐":{"x_min":-12.078125,"x_max":425,"ha":753,"o":"m 327 -419 l 327 336 l -12 336 l -12 453 l 425 453 l 425 -419 l 327 -419 "},"ʚ":{"x_min":36.640625,"x_max":755.328125,"ha":830,"o":"m 405 670 q 284 638 332 670 q 229 564 236 607 q 257 485 221 516 q 363 456 292 456 l 458 456 l 440 353 l 350 353 q 217 318 265 353 q 151 220 162 280 q 185 121 141 159 q 322 84 230 84 q 528 162 450 84 q 626 378 601 237 q 604 595 651 518 q 405 670 558 670 m 415 779 q 704 671 630 779 q 745 379 777 565 q 603 87 712 195 q 302 -20 493 -20 q 88 41 156 -20 q 41 220 21 103 q 105 343 54 294 q 234 409 155 392 q 139 469 168 425 q 121 576 110 513 q 217 725 138 672 q 415 779 295 779 "},"↶":{"x_min":26.65625,"x_max":999,"ha":1047,"o":"m 347 472 l 488 630 l 562 549 l 322 283 l 267 283 l 26 549 l 99 630 l 243 472 l 243 506 q 270 668 243 592 q 355 805 298 741 q 477 896 410 863 q 621 928 543 928 q 765 896 699 928 q 887 805 832 863 q 971 668 943 741 q 999 506 999 592 l 895 506 q 874 624 895 569 q 814 724 854 679 q 725 790 778 764 q 622 813 680 813 q 516 790 564 813 q 427 724 466 766 q 367 624 388 680 q 347 506 347 569 l 347 472 "},"ῖ":{"x_min":73.546875,"x_max":513.375,"ha":423,"o":"m 283 929 l 255 966 q 238 984 247 977 q 218 993 228 990 q 179 968 194 993 q 153 888 163 943 l 76 888 q 134 1029 94 980 q 229 1079 174 1079 q 271 1068 252 1079 q 307 1037 290 1058 l 335 1000 q 351 983 343 989 q 371 974 360 977 q 409 998 394 974 q 436 1079 424 1022 l 513 1079 q 456 937 495 986 q 360 888 417 888 q 317 898 337 888 q 283 929 297 908 m 283 759 l 197 267 q 195 138 180 169 q 277 105 210 105 l 331 105 l 313 0 l 245 0 q 96 65 135 0 q 83 275 58 131 l 168 759 l 283 759 "},"𝌔":{"x_min":104,"x_max":1017,"ha":1121,"o":"m 107 917 l 1004 917 l 1009 912 l 1009 785 l 1004 781 l 107 781 l 104 785 l 104 912 l 107 917 m 107 657 l 467 657 l 472 652 l 472 525 l 467 521 l 107 521 l 104 525 l 104 652 l 107 657 m 644 657 l 1004 657 l 1009 652 l 1009 525 l 1004 521 l 644 521 l 641 525 l 641 652 l 644 657 m 107 396 l 467 396 l 472 391 l 472 264 l 467 260 l 107 260 l 104 264 l 104 391 l 107 396 m 644 396 l 1004 396 l 1009 391 l 1009 264 l 1004 260 l 644 260 l 641 264 l 641 391 l 644 396 m 311 0 l 104 0 l 104 136 l 311 136 l 311 0 m 810 0 l 810 136 l 1017 136 l 1017 0 l 810 0 m 663 0 l 457 0 l 457 136 l 663 136 l 663 0 "},"ᓿ":{"x_min":-45.4375,"x_max":882.296875,"ha":942,"o":"m 758 572 l 882 572 l 858 433 l 733 433 l 758 572 m 83 30 l 77 0 l -45 0 l -32 74 q 191 479 16 354 q 525 604 365 604 l 596 1012 l 720 1012 l 629 493 l 568 493 q 248 383 371 493 q 83 30 125 274 m 668 1269 l 792 1269 l 768 1130 l 642 1130 l 668 1269 "},"ԝ":{"x_min":130,"x_max":1023.671875,"ha":1022,"o":"m 130 760 l 232 760 l 232 148 l 501 760 l 650 760 l 650 148 l 911 760 l 1023 760 l 711 0 l 563 0 l 563 629 l 285 0 l 130 0 l 130 760 "},"𝕠":{"x_min":69,"x_max":696,"ha":764,"o":"m 382 778 q 612 672 528 778 q 696 379 696 566 q 612 86 696 192 q 382 -20 528 -20 q 152 86 235 -20 q 69 379 69 192 q 152 672 69 566 q 382 778 235 778 m 314 55 q 382 48 345 48 q 450 55 418 48 l 450 702 q 382 710 418 710 q 314 702 345 710 l 314 55 m 253 80 l 253 677 q 197 627 221 657 q 130 379 130 540 q 197 130 130 217 q 253 80 221 100 m 511 676 l 511 81 q 566 130 542 100 q 635 379 635 218 q 566 627 635 540 q 511 676 542 657 "},"⠘":{"x_min":549,"x_max":732,"ha":915,"o":"m 549 1085 l 732 1085 l 732 882 l 549 882 l 549 1085 m 549 700 l 732 700 l 732 497 l 549 497 l 549 700 "},"ᕈ":{"x_min":33.90625,"x_max":754,"ha":753,"o":"m 191 900 l 210 1013 l 489 1013 q 707 935 642 1013 q 746 710 772 858 q 628 483 720 560 q 383 407 537 407 l 229 407 l 157 0 l 33 0 l 124 520 l 403 520 q 545 569 489 520 q 616 710 600 618 q 594 850 632 801 q 469 900 556 900 l 191 900 "},"à":{"x_min":52,"x_max":684,"ha":766,"o":"m 671 432 l 595 0 l 482 0 l 503 114 q 391 13 454 46 q 250 -20 327 -20 q 107 39 163 -20 q 52 191 52 98 q 147 401 52 324 q 410 479 242 479 l 566 479 l 572 512 q 574 524 573 517 q 575 544 575 530 q 530 638 575 604 q 406 672 486 672 q 293 656 351 672 q 175 609 236 640 l 195 724 q 319 764 258 751 q 437 777 380 777 q 620 719 557 777 q 684 549 684 661 q 680 497 684 527 q 671 432 677 466 m 549 381 l 437 381 q 234 340 300 381 q 167 213 167 299 q 201 119 167 153 q 295 85 235 85 q 454 158 386 85 q 545 353 522 231 l 549 381 m 418 1110 l 546 857 l 452 857 l 298 1110 l 418 1110 "},"⡂":{"x_min":183,"x_max":366,"ha":915,"o":"m 183 701 l 366 701 l 366 498 l 183 498 l 183 701 m 183 -68 l 366 -68 l 366 -271 l 183 -271 l 183 -68 "},"♲":{"x_min":105,"x_max":1016,"ha":1120,"o":"m 492 984 l 734 984 q 787 935 769 984 l 834 845 l 893 883 l 899 883 q 902 878 902 883 l 796 675 l 583 675 l 581 678 l 581 681 q 642 721 592 693 l 642 725 q 517 959 527 945 q 490 977 490 974 l 490 980 l 492 984 m 420 972 l 435 972 q 536 885 502 972 q 555 845 555 851 q 437 621 448 632 l 436 621 q 250 742 252 737 l 250 744 q 356 940 346 935 q 420 972 383 972 m 551 956 l 551 954 l 673 714 l 661 704 l 661 702 l 784 702 l 842 819 l 825 810 q 746 952 756 944 l 734 956 l 551 956 m 283 750 l 429 657 l 527 846 q 442 944 490 944 l 425 944 q 347 874 374 944 l 283 750 m 911 693 q 1013 497 922 682 l 1016 469 l 1016 456 q 966 358 1016 403 q 930 346 953 346 l 842 346 q 725 568 834 353 l 725 572 l 911 693 m 758 561 l 853 373 l 934 373 q 990 443 967 373 l 990 461 q 961 546 990 499 l 903 655 q 758 561 764 568 m 307 640 l 319 640 q 395 495 324 640 q 427 433 427 442 l 424 430 l 420 430 l 359 468 q 241 236 250 258 l 239 221 l 241 194 l 237 191 l 235 191 q 117 414 222 209 q 105 452 105 432 l 105 457 q 156 565 105 476 l 168 593 l 168 593 l 107 632 l 107 636 l 109 640 l 307 640 m 188 614 l 188 610 l 198 602 l 201 602 l 201 600 q 130 461 201 595 l 130 454 q 225 264 130 436 l 347 501 l 349 501 l 366 495 l 366 497 l 307 614 l 188 614 m 696 411 l 699 411 l 703 407 l 703 329 l 929 329 q 976 351 954 329 l 978 351 l 981 347 l 981 346 q 857 104 977 331 q 821 85 843 85 l 703 85 l 703 3 l 699 0 l 694 0 q 590 204 590 195 l 590 206 l 696 411 m 539 329 l 545 323 l 545 88 l 541 85 l 359 85 q 259 175 289 85 l 256 201 l 256 210 q 309 329 256 244 l 539 329 m 675 320 l 618 203 l 675 88 l 679 88 l 679 93 q 683 113 679 113 l 825 113 q 867 178 838 113 l 931 301 l 683 301 q 679 314 679 301 l 679 320 l 675 320 m 322 301 q 282 210 285 234 l 282 203 q 336 117 282 146 l 355 113 l 520 113 l 520 301 l 322 301 "},"ᔖ":{"x_min":33,"x_max":1081,"ha":1114,"o":"m 489 292 l 533 368 q 662 549 580 454 q 849 645 744 645 q 1061 539 1030 645 q 1081 404 1081 470 q 1074 332 1081 368 q 972 109 1055 219 q 737 0 889 0 l 756 112 q 894 189 854 112 q 945 332 934 267 q 951 389 951 363 q 934 473 951 437 q 829 530 907 530 q 707 460 760 530 q 624 332 655 391 l 581 256 q 452 75 534 170 q 264 -20 370 -20 q 53 85 84 -20 q 33 220 33 154 q 39 292 33 256 q 139 517 59 409 q 377 625 219 625 l 358 513 q 216 435 253 513 q 169 292 180 357 q 164 237 164 263 q 182 151 164 188 q 284 95 210 95 q 407 164 355 95 q 489 292 459 233 m 585 883 l 709 883 l 685 744 l 560 744 l 585 883 "},"ᒰ":{"x_min":110.546875,"x_max":1014.546875,"ha":932,"o":"m 134 572 l 259 572 l 235 433 l 110 433 l 134 572 m 269 0 l 446 1013 l 1014 1013 l 994 898 l 550 898 l 393 0 l 269 0 m 695 1269 l 819 1269 l 796 1130 l 670 1130 l 695 1269 "},"ҁ":{"x_min":58,"x_max":668,"ha":687,"o":"m 335 0 q 108 102 176 0 q 58 285 58 178 q 66 379 58 329 q 209 671 98 565 q 478 778 319 778 q 578 766 531 778 q 668 730 625 754 l 647 613 q 559 657 604 643 q 465 672 514 672 q 282 595 356 672 q 184 379 208 518 q 177 304 177 339 q 209 176 177 229 q 365 100 256 100 l 515 100 l 446 -288 l 324 -288 l 375 0 l 335 0 "},"ꜞ":{"x_min":69.84375,"x_max":246.859375,"ha":315,"o":"m 229 924 l 151 924 l 168 1020 l 246 1020 l 229 924 m 147 453 l 69 453 l 112 702 l 143 838 l 206 838 l 191 702 l 147 453 "},"☯":{"x_min":104,"x_max":1017,"ha":1121,"o":"m 561 515 l 561 497 q 621 336 561 401 q 771 271 682 271 q 924 341 862 271 q 986 515 986 411 q 859 842 986 704 q 557 981 732 981 q 259 849 378 981 q 140 505 140 717 q 203 682 148 622 q 350 743 258 743 q 499 677 438 743 q 561 515 561 612 m 835 505 q 816 458 835 478 q 774 439 797 439 q 730 458 748 439 q 712 505 712 478 q 730 554 712 534 q 774 575 748 575 q 816 554 798 575 q 835 505 835 534 m 408 505 q 390 554 408 534 q 347 575 372 575 q 304 554 322 575 q 287 505 287 534 q 304 458 287 478 q 347 439 322 439 q 390 459 372 439 q 408 505 408 479 m 1017 506 q 883 147 1017 295 q 560 0 750 0 q 237 147 371 0 q 104 506 104 295 q 237 866 104 717 q 560 1015 371 1015 q 883 866 750 1015 q 1017 506 1017 717 "},"⡫":{"x_min":183,"x_max":732,"ha":915,"o":"m 183 1085 l 366 1085 l 366 882 l 183 882 l 183 1085 m 183 701 l 366 701 l 366 498 l 183 498 l 183 701 m 549 1085 l 732 1085 l 732 882 l 549 882 l 549 1085 m 549 317 l 732 317 l 732 114 l 549 114 l 549 317 m 183 -68 l 366 -68 l 366 -271 l 183 -271 l 183 -68 "},"ງ":{"x_min":30.640625,"x_max":568.046875,"ha":603,"o":"m 136 632 q 207 749 150 709 q 398 789 263 789 q 554 433 616 789 l 479 10 q 387 -249 449 -168 q 200 -331 326 -331 q 47 -259 70 -331 q 33 -90 24 -187 l 147 -90 q 220 -229 147 -229 q 354 -64 326 -229 l 441 433 q 405 678 484 678 q 400 641 405 663 q 240 502 372 502 q 136 632 113 502 m 276 682 q 229 638 234 682 q 260 594 220 594 q 307 638 301 594 q 276 682 315 682 "},"ᑯ":{"x_min":0.375,"x_max":753.453125,"ha":785,"o":"m 281 89 q 415 140 343 89 q 505 302 486 191 q 478 458 522 401 q 356 516 434 516 q 228 465 298 516 q 138 302 158 415 q 163 144 120 199 q 281 89 206 89 m 553 574 l 630 1012 l 753 1012 l 629 302 q 503 61 600 142 q 262 -20 406 -20 q 54 56 130 -20 q 8 301 -21 132 q 134 542 36 461 q 375 624 231 624 q 553 574 484 624 "},"e":{"x_min":58,"x_max":714,"ha":770,"o":"m 600 447 q 603 469 602 457 q 605 492 605 481 q 561 623 605 575 q 442 672 517 672 q 295 613 359 672 q 198 447 231 554 l 600 447 m 699 350 l 177 350 q 172 309 173 324 q 171 283 171 294 q 223 137 171 189 q 370 85 275 85 q 508 104 443 85 q 630 157 573 122 l 608 34 q 483 -6 548 7 q 352 -20 419 -20 q 134 55 210 -20 q 58 270 58 131 q 95 491 58 389 q 207 673 133 593 q 321 750 255 723 q 460 777 387 777 q 645 700 576 777 q 714 493 714 623 q 710 426 714 461 q 699 350 706 390 "},"⊏":{"x_min":132,"x_max":914.84375,"ha":1047,"o":"m 132 789 l 914 789 l 914 674 l 236 674 l 236 115 l 914 115 l 914 0 l 132 0 l 132 789 "},"ᐮ":{"x_min":59,"x_max":1286.484375,"ha":1396,"o":"m 790 826 l 166 506 l 678 184 l 790 826 m 750 0 l 59 428 l 86 583 l 927 1012 l 750 0 m 1286 558 l 1208 495 l 956 929 l 1034 992 l 1286 558 "},"ᑦ":{"x_min":76.71875,"x_max":522.875,"ha":543,"o":"m 437 528 l 423 453 l 356 453 q 124 521 191 453 q 83 736 58 590 q 199 951 109 882 q 455 1020 289 1020 l 522 1020 l 509 945 l 431 945 q 250 895 306 945 q 176 736 195 845 q 205 569 154 611 q 358 528 255 528 l 437 528 "},"𝌀":{"x_min":104,"x_max":1017,"ha":1121,"o":"m 311 326 l 104 326 l 104 462 l 311 462 l 311 326 m 810 326 l 810 462 l 1017 462 l 1017 326 l 810 326 m 663 326 l 457 326 l 457 462 l 663 462 l 663 326 "},"ò":{"x_min":58,"x_max":707.96875,"ha":765,"o":"m 317 -20 q 127 62 197 -20 q 58 287 58 144 q 82 455 58 370 q 144 600 106 541 q 279 734 205 690 q 448 777 353 777 q 636 697 564 777 q 707 486 707 616 q 684 306 707 395 q 621 157 660 216 q 487 23 562 66 q 317 -20 412 -20 m 173 291 q 212 137 173 188 q 330 85 252 85 q 517 195 443 85 q 592 473 592 304 q 552 621 592 571 q 435 672 512 672 q 322 639 372 672 q 234 539 273 606 q 189 424 205 488 q 173 291 173 359 m 428 1110 l 556 857 l 462 857 l 308 1110 l 428 1110 "},"ℎ":{"x_min":43.640625,"x_max":707,"ha":792,"o":"m 696 458 l 616 0 l 502 0 l 582 453 q 591 509 588 485 q 595 548 595 534 q 562 637 595 605 q 472 669 529 669 q 315 601 381 669 q 229 420 249 533 l 155 0 l 43 0 l 228 1055 l 340 1055 l 268 639 q 377 740 310 703 q 517 778 443 778 q 657 723 607 778 q 707 571 707 669 q 704 518 707 546 q 696 458 701 490 "},"♻":{"x_min":104.890625,"x_max":1014,"ha":1120,"o":"m 494 977 l 731 977 q 787 920 767 977 l 832 835 l 893 873 l 897 873 l 897 871 q 790 670 801 685 l 582 670 l 582 674 q 643 716 640 710 l 522 956 q 494 974 502 974 l 494 977 m 431 970 q 521 908 496 970 l 551 849 l 433 625 q 253 743 270 730 q 358 938 344 919 q 431 970 388 970 m 912 681 q 1014 477 1014 493 l 1014 450 q 955 342 1014 381 q 921 337 946 337 l 845 337 q 729 560 837 347 q 867 651 744 575 l 912 681 m 316 632 q 422 429 420 437 l 353 471 q 233 237 235 248 l 233 209 l 235 190 l 232 190 l 109 425 l 104 447 q 155 555 106 468 q 172 590 172 583 l 111 629 l 111 632 l 249 632 l 316 632 m 693 396 l 695 396 l 695 318 l 936 318 q 973 336 955 318 l 976 336 q 853 93 976 329 q 820 78 839 78 l 695 78 l 695 0 l 692 0 l 589 198 l 693 396 m 532 318 l 535 313 l 535 81 l 532 78 l 355 78 q 255 164 284 78 l 253 197 q 303 318 253 229 l 532 318 "},"Ȣ":{"x_min":23,"x_max":829,"ha":873,"o":"m 431 480 q 245 427 319 480 q 154 284 170 375 q 151 245 151 264 q 194 141 151 181 q 362 89 250 89 q 549 141 474 89 q 639 284 624 193 q 644 323 644 304 q 601 427 644 387 q 431 480 545 480 m 461 853 q 322 810 381 853 q 253 714 263 768 q 253 700 253 707 q 295 618 253 660 q 450 588 326 588 q 618 632 553 588 q 700 768 685 676 q 707 827 707 801 q 678 905 707 884 q 542 960 620 960 l 554 1031 q 772 960 693 1031 q 829 822 829 909 q 824 767 829 797 q 746 620 808 680 q 587 538 684 560 q 735 448 688 515 q 769 333 769 398 q 764 284 769 309 q 629 58 738 137 q 343 -20 521 -20 q 85 58 166 -20 q 23 217 23 118 q 29 284 23 249 q 116 448 46 381 q 295 538 187 515 q 162 607 195 559 q 130 702 130 655 q 131 727 130 715 q 236 871 147 815 q 473 922 316 922 l 461 853 "},"￼":{"x_min":0,"x_max":0,"ha":0},"⠆":{"x_min":183,"x_max":366,"ha":915,"o":"m 183 700 l 366 700 l 366 497 l 183 497 l 183 700 m 183 316 l 366 316 l 366 113 l 183 113 l 183 316 "},"┲":{"x_min":-12.25,"x_max":764.609375,"ha":752,"o":"m 278 -419 l 278 336 l -12 336 l -12 453 l 278 453 l 278 511 l 764 511 l 764 278 l 473 278 l 473 -419 l 278 -419 "},"⁻":{"x_min":83,"x_max":576,"ha":659,"o":"m 83 729 l 576 729 l 576 665 l 83 665 l 83 729 "},"ṉ":{"x_min":43.640625,"x_max":707,"ha":792,"o":"m 696 458 l 616 0 l 502 0 l 582 453 q 591 509 588 485 q 595 548 595 534 q 562 637 595 605 q 472 669 529 669 q 316 602 381 669 q 230 420 251 535 l 155 0 l 43 0 l 175 759 l 288 759 l 265 639 q 378 741 312 705 q 517 778 444 778 q 657 723 607 778 q 707 571 707 669 q 704 518 707 546 q 696 458 701 490 m 93 -118 l 458 -118 l 441 -218 l 76 -218 l 93 -118 "},"ᵒ":{"x_min":37.84375,"x_max":444.34375,"ha":517,"o":"m 351 784 q 269 829 326 829 q 172 784 212 829 q 118 665 131 741 q 129 545 104 588 q 212 501 155 501 q 309 545 269 501 q 363 665 350 589 q 351 784 377 740 m 280 888 q 415 829 372 888 q 438 665 457 770 q 357 501 420 560 q 202 442 294 442 q 67 501 109 442 q 43 665 25 560 q 124 829 61 770 q 280 888 187 888 "},"ѻ":{"x_min":58,"x_max":886,"ha":948,"o":"m 488 111 l 515 111 q 670 176 614 111 q 758 379 735 254 q 765 455 765 418 q 741 581 765 523 q 610 647 714 647 l 583 647 q 569 632 577 639 q 542 614 556 621 q 511 608 527 608 q 483 614 495 608 q 461 632 471 621 q 454 647 456 639 l 427 647 q 272 582 327 647 q 184 379 206 504 q 176 292 176 332 q 200 175 176 223 q 332 111 233 111 l 360 111 q 373 125 366 118 q 400 144 386 137 q 431 151 415 151 q 459 144 447 151 q 480 125 474 135 q 488 111 485 118 m 344 19 l 317 19 q 102 111 160 19 q 58 286 58 185 q 66 379 58 330 q 197 646 93 536 q 442 739 283 739 l 471 739 q 483 752 476 745 q 510 770 492 762 q 541 777 525 777 q 569 770 557 777 q 590 752 584 762 q 598 739 595 745 l 625 739 q 840 646 784 739 q 886 471 886 572 q 877 379 886 428 q 746 111 849 221 q 500 19 659 19 l 472 19 q 460 5 467 12 q 431 -12 450 -4 q 401 -19 417 -19 q 373 -12 385 -19 q 352 5 358 -4 q 344 19 348 12 "},"ˆ":{"x_min":206.15625,"x_max":596.109375,"ha":625,"o":"m 400 1111 l 491 1111 l 596 856 l 511 856 l 434 1016 l 290 856 l 206 856 l 400 1111 "},"ū":{"x_min":71,"x_max":735.671875,"ha":792,"o":"m 83 301 l 163 759 l 276 759 l 196 306 q 187 249 190 272 q 185 209 185 225 q 216 120 185 152 q 306 89 248 89 q 462 156 396 89 q 548 339 528 224 l 623 759 l 735 759 l 603 0 l 490 0 l 513 119 q 400 16 466 53 q 260 -20 334 -20 q 121 34 171 -20 q 71 187 71 89 q 74 238 71 207 q 83 301 77 268 m 330 1034 l 694 1034 l 677 934 l 312 934 l 330 1034 "},"䷌":{"x_min":104,"x_max":1009,"ha":1121,"o":"m 107 574 l 1004 574 l 1009 569 l 1009 442 l 1004 438 l 107 438 l 104 442 l 104 569 l 107 574 m 107 794 l 1004 794 l 1009 789 l 1009 662 l 1004 658 l 107 658 l 104 662 l 104 789 l 107 794 m 107 1013 l 1004 1013 l 1009 1008 l 1009 881 l 1004 877 l 107 877 l 104 881 l 104 1008 l 107 1013 m 107 -84 l 1004 -84 l 1009 -88 l 1009 -215 l 1004 -220 l 107 -220 l 104 -215 l 104 -88 l 107 -84 m 107 135 l 467 135 l 472 130 l 472 3 l 467 -1 l 107 -1 l 104 3 l 104 130 l 107 135 m 644 135 l 1004 135 l 1009 130 l 1009 3 l 1004 -1 l 644 -1 l 641 3 l 641 130 l 644 135 m 107 355 l 1004 355 l 1009 350 l 1009 223 l 1004 219 l 107 219 l 104 223 l 104 350 l 107 355 "},"ꙗ":{"x_min":51.71875,"x_max":976,"ha":1058,"o":"m 841 381 l 729 381 q 526 340 592 381 q 459 213 459 299 q 493 119 459 153 q 587 85 527 85 q 746 158 678 85 q 837 353 814 231 l 841 381 m 963 432 l 887 0 l 774 0 l 795 114 q 683 13 746 47 q 542 -20 619 -20 q 399 39 455 -20 q 344 191 344 98 q 392 353 344 286 l 226 353 l 163 0 l 51 0 l 184 759 l 296 759 l 243 456 l 540 456 q 702 479 611 479 l 858 479 l 864 512 q 866 524 865 517 q 867 544 867 530 q 822 638 867 604 q 698 672 778 672 q 586 656 644 672 q 467 609 528 640 l 487 724 q 611 764 550 751 q 729 777 672 777 q 912 719 849 777 q 976 549 976 661 q 973 497 976 527 q 963 432 969 468 "},"☬":{"x_min":104,"x_max":784,"ha":888,"o":"m 444 1016 q 534 964 485 1016 l 523 954 l 514 869 q 622 784 591 838 q 657 671 657 729 q 532 470 657 536 l 532 420 l 459 420 l 459 338 q 620 426 533 338 q 702 666 702 532 q 625 863 702 785 l 638 876 l 641 876 q 784 589 784 764 q 693 182 784 393 q 572 301 620 301 q 538 270 538 301 q 611 151 538 251 q 630 94 630 124 q 595 54 621 54 q 552 75 557 48 q 458 270 515 237 l 458 168 q 508 40 458 119 q 444 0 508 0 q 376 41 376 0 q 425 171 425 119 l 425 270 q 332 77 332 207 q 289 54 327 54 q 255 94 263 54 q 302 194 255 137 q 347 273 349 251 q 319 301 347 301 q 198 183 268 301 q 104 605 104 379 q 243 876 104 763 l 246 876 l 259 863 q 183 663 183 781 q 313 382 183 492 q 425 338 351 350 l 425 420 l 353 420 l 353 470 q 229 671 229 532 q 373 869 229 800 l 358 954 l 349 966 q 444 1016 402 1016 m 277 667 q 358 518 277 568 l 361 518 q 404 683 404 589 q 386 825 404 739 q 301 758 332 808 q 277 667 277 715 m 501 825 q 480 680 480 747 q 520 518 480 587 q 608 673 608 559 q 501 825 608 776 "},"ᕂ":{"x_min":116.46875,"x_max":1126.4375,"ha":1144,"o":"m 177 605 l 301 605 l 247 303 q 282 140 228 191 q 397 89 335 89 q 527 139 454 89 q 621 303 601 189 l 674 605 l 1126 605 l 1106 490 l 778 490 l 745 303 q 619 61 717 143 q 378 -20 522 -20 q 165 61 234 -20 q 124 302 96 142 l 177 605 "},"ֺ":{"x_min":-8.140625,"x_max":101.046875,"ha":0,"o":"m 9 970 l 101 970 l 83 868 l -8 868 l 9 970 "},"✘":{"x_min":154,"x_max":943,"ha":1047,"o":"m 833 1027 q 866 1006 850 1027 q 883 952 879 991 q 906 949 900 952 q 934 932 925 941 q 943 909 943 923 q 932 871 943 882 q 642 510 785 722 q 822 261 732 371 q 833 233 833 249 q 815 182 833 199 q 780 170 803 170 q 770 134 778 157 q 736 95 755 95 q 696 111 714 95 q 682 91 691 99 q 644 73 660 73 q 613 92 630 73 q 485 286 559 156 q 291 17 345 109 q 268 0 281 0 q 246 24 257 -1 q 235 54 236 45 q 212 46 223 46 q 179 66 197 46 q 157 101 157 90 q 175 150 157 120 q 164 161 169 152 q 154 193 154 177 q 167 229 154 208 q 367 492 247 348 q 232 801 293 620 q 219 862 219 843 q 233 913 219 880 q 256 935 242 935 q 302 908 272 935 q 308 935 302 918 q 333 969 323 969 q 367 950 359 969 q 523 691 432 817 q 816 1018 664 871 q 833 1027 824 1027 "},"⟱":{"x_min":54.46875,"x_max":991.859375,"ha":1047,"o":"m 495 -5 l 54 485 l 127 567 l 184 504 l 184 1012 l 257 1012 l 257 422 l 386 279 l 386 1012 l 459 1012 l 459 198 l 523 127 l 588 198 l 588 1012 l 661 1012 l 661 279 l 790 422 l 790 1012 l 863 1012 l 863 504 l 918 567 l 991 485 l 551 -5 l 495 -5 "},"ᐰ":{"x_min":-77.734375,"x_max":757.078125,"ha":855,"o":"m 52 0 l -77 0 l 447 1013 l 586 1013 l 757 0 l 628 0 l 492 878 l 52 0 m 753 1254 q 704 1122 753 1176 q 585 1068 656 1068 q 466 1122 514 1068 q 418 1254 418 1176 q 466 1386 418 1332 q 585 1440 514 1440 q 704 1386 656 1440 q 753 1254 753 1332 m 678 1254 q 651 1327 678 1297 q 585 1357 624 1357 q 518 1328 544 1357 q 493 1254 493 1299 q 518 1180 493 1209 q 585 1151 544 1151 q 651 1180 625 1151 q 678 1254 678 1209 "},"ȝ":{"x_min":-76.671875,"x_max":612,"ha":651,"o":"m 410 312 q 462 295 438 308 q 501 265 486 283 q 526 227 516 248 q 539 185 535 205 q 544 144 544 164 q 501 13 544 78 q 379 -109 458 -51 q 183 -214 301 -166 q -76 -294 65 -262 l -59 -205 q 313 -44 193 -129 q 434 146 434 40 q 405 222 434 193 q 328 250 377 250 q 250 233 292 250 l 107 175 l 125 269 l 272 327 q 439 440 381 370 q 498 584 498 511 q 486 632 498 612 q 455 664 474 653 q 414 679 435 674 q 369 684 393 684 q 272 663 327 684 q 115 582 217 643 l 136 687 q 397 778 315 778 q 505 758 457 778 q 582 699 553 738 q 612 606 612 659 q 607 559 612 582 q 595 517 602 537 q 577 478 588 498 q 555 444 565 458 q 529 412 545 429 q 503 385 513 395 q 475 361 492 375 q 450 341 457 347 q 427 324 442 336 q 410 312 412 313 "},"∡":{"x_min":106.796875,"x_max":982,"ha":1120,"o":"m 683 137 q 614 322 659 231 q 521 463 574 400 l 334 137 l 683 137 m 473 638 l 687 1012 l 835 1012 l 569 547 q 688 369 638 469 q 771 137 745 256 l 982 137 l 982 0 l 793 0 q 793 -73 793 -35 l 709 -73 q 705 0 709 -35 l 106 0 l 426 557 q 389 585 408 571 l 438 664 q 473 638 456 651 "},"☡":{"x_min":105.4375,"x_max":1012.9375,"ha":1120,"o":"m 665 1014 q 821 918 752 1014 q 853 813 853 866 q 778 653 853 719 l 374 240 l 368 198 q 427 120 368 138 l 962 262 q 1012 196 1012 262 l 1012 194 q 951 134 1012 134 l 425 0 q 261 117 326 0 q 245 191 245 153 l 245 207 q 329 374 245 301 q 721 778 708 759 q 728 811 728 796 q 668 887 728 865 l 661 887 l 146 749 q 105 803 112 749 l 105 823 q 165 875 105 866 l 173 875 l 665 1014 "},"ℕ":{"x_min":121,"x_max":879,"ha":1000,"o":"m 799 68 l 345 945 l 200 945 l 654 68 l 799 68 m 121 1013 l 378 1013 l 818 165 l 818 1013 l 879 1013 l 879 0 l 621 0 l 182 847 l 182 0 l 121 0 l 121 1013 "},"ᕕ":{"x_min":29,"x_max":757.625,"ha":854,"o":"m 186 92 q 238 112 216 92 q 263 156 259 133 q 265 170 265 163 q 252 208 265 191 q 210 231 236 231 q 158 215 179 231 q 129 156 136 199 q 128 140 128 147 q 139 107 128 119 q 186 92 155 92 m 83 310 l 447 1013 l 587 1013 l 757 0 l 629 0 l 493 878 l 222 334 q 337 280 298 334 q 367 189 367 239 q 364 157 367 174 q 291 29 350 79 q 167 -20 231 -20 q 165 -20 165 -20 q 63 32 107 -20 q 29 125 29 73 q 31 156 29 140 q 83 310 45 238 "},"œ":{"x_min":58,"x_max":1231,"ha":1285,"o":"m 1216 350 l 693 350 q 689 314 690 331 q 687 283 687 297 q 739 137 687 189 q 886 85 791 85 q 1026 104 960 85 q 1148 157 1092 122 l 1125 34 q 1001 -6 1065 7 q 870 -20 937 -20 q 702 17 772 -20 q 602 121 631 54 q 470 15 541 50 q 317 -20 400 -20 q 129 60 201 -20 q 58 271 58 141 q 81 452 58 364 q 144 600 104 540 q 279 734 205 690 q 448 777 353 777 q 588 738 527 777 q 681 625 648 698 q 815 739 742 701 q 976 777 889 777 q 1162 700 1093 777 q 1231 493 1231 623 q 1227 426 1231 461 q 1216 350 1223 390 m 1118 447 q 1121 469 1121 457 q 1121 492 1121 481 q 1077 623 1121 575 q 959 672 1034 672 q 811 613 875 672 q 713 447 747 554 l 1118 447 m 173 291 q 212 137 173 188 q 330 85 252 85 q 517 194 443 85 q 592 471 592 302 q 552 621 592 571 q 435 672 513 672 q 322 639 372 672 q 234 539 273 606 q 189 424 205 489 q 173 291 173 360 "},"Ὲ":{"x_min":130.890625,"x_max":1003.6875,"ha":1006,"o":"m 250 1111 l 379 857 l 284 857 l 130 1111 l 250 1111 m 427 1013 l 1003 1013 l 983 898 l 530 898 l 477 597 l 912 597 l 892 482 l 457 482 l 394 115 l 857 115 l 837 0 l 250 0 l 427 1013 "},"⇦":{"x_min":34.109375,"x_max":976,"ha":1047,"o":"m 283 616 l 120 435 l 283 254 l 283 344 l 915 344 l 915 527 l 283 527 l 283 616 m 344 90 l 34 435 l 344 780 l 344 595 l 976 595 l 976 276 l 344 276 l 344 90 "},"Ɵ":{"x_min":50,"x_max":933,"ha":983,"o":"m 409 -20 q 145 90 241 -20 q 50 393 50 201 q 87 617 50 503 q 190 822 124 732 q 363 979 268 927 q 573 1031 458 1031 q 836 921 740 1031 q 933 622 933 811 q 896 393 933 505 q 791 188 859 280 q 619 31 713 83 q 409 -20 525 -20 m 778 481 l 196 481 q 188 377 188 425 q 226 202 188 273 q 419 91 285 91 q 648 198 553 91 q 778 481 742 306 m 795 596 q 795 635 795 616 q 757 808 795 736 q 564 920 698 920 q 332 808 430 920 q 221 596 259 726 l 795 596 "},"℆":{"x_min":28,"x_max":1236.71875,"ha":1290,"o":"m 520 970 l 496 844 q 416 894 448 883 q 351 906 384 906 q 281 891 314 906 q 225 851 247 877 q 166 751 187 808 q 146 632 146 693 q 176 527 146 560 q 270 494 207 494 q 340 505 302 494 q 446 554 377 516 l 424 425 q 338 395 378 404 q 255 387 298 387 q 87 448 146 387 q 28 619 28 509 q 57 786 28 710 q 145 925 87 863 q 241 989 186 967 q 360 1012 296 1012 q 435 1002 398 1012 q 520 970 472 993 m 910 1044 l 1055 1044 l 283 -33 l 137 -33 l 910 1044 m 714 227 l 777 583 l 892 583 l 829 227 q 823 185 825 202 q 821 157 821 168 q 840 99 821 118 q 896 80 859 80 q 1003 127 957 80 q 1063 256 1048 174 l 1121 583 l 1236 583 l 1132 -14 l 1017 -14 l 1024 25 q 975 0 1027 29 q 863 -28 922 -28 q 747 17 788 -28 q 706 140 706 62 q 708 179 706 155 q 714 227 710 202 "},"ᓄ":{"x_min":17.640625,"x_max":1028,"ha":1064,"o":"m 676 115 q 818 164 763 115 q 888 302 873 213 q 894 360 894 333 q 856 466 894 430 q 746 517 804 517 q 619 466 689 517 q 529 302 549 416 q 526 261 526 281 q 549 171 526 211 q 676 115 581 115 m 656 0 l 17 0 l 38 115 l 413 115 q 392 222 392 159 q 399 302 392 259 q 524 544 427 462 q 765 626 622 626 q 978 544 910 626 q 1028 388 1028 486 q 1019 302 1028 348 q 901 76 993 152 q 656 0 808 0 "},"ᵛ":{"x_min":60.359375,"x_max":479.46875,"ha":521,"o":"m 60 878 l 135 878 l 208 521 l 404 878 l 479 878 l 244 453 l 147 453 l 60 878 "},"ș":{"x_min":14.078125,"x_max":624.890625,"ha":651,"o":"m 260 -117 l 389 -117 l 251 -334 l 172 -334 l 260 -117 m 624 736 l 603 618 q 509 659 558 645 q 407 673 460 673 q 268 639 319 673 q 217 548 217 605 q 335 445 217 480 q 348 440 344 442 l 384 428 q 534 356 497 394 q 572 252 572 318 q 485 55 572 131 q 259 -20 399 -20 q 145 -8 205 -20 q 14 27 85 2 l 35 155 q 157 102 97 120 q 271 84 216 84 q 405 123 354 84 q 457 223 457 162 q 321 328 457 288 l 310 331 l 271 342 q 146 408 186 367 q 107 513 107 449 q 189 705 107 634 q 412 777 271 777 q 520 766 467 777 q 624 736 573 756 "},"ἱ":{"x_min":73.546875,"x_max":348.578125,"ha":423,"o":"m 183 1007 l 201 1108 l 348 1108 l 329 1001 l 248 1001 q 311 895 229 895 l 299 826 q 183 1007 152 826 m 283 759 l 197 267 q 195 138 180 169 q 277 105 210 105 l 331 105 l 313 0 l 245 0 q 96 65 135 0 q 83 275 58 131 l 168 759 l 283 759 "},"𝘐":{"x_min":3.390625,"x_max":550,"ha":554,"o":"m 180 1013 l 550 1013 l 529 898 l 406 898 l 270 115 l 393 115 l 373 0 l 3 0 l 23 115 l 146 115 l 283 898 l 160 898 l 180 1013 "},"ˈ":{"x_min":131,"x_max":214,"ha":344,"o":"m 214 1054 l 214 678 l 131 678 l 131 1054 l 214 1054 "},"ɘ":{"x_min":35.265625,"x_max":711.671875,"ha":769,"o":"m 74 411 q 201 679 104 580 q 436 777 299 777 q 661 668 590 777 q 701 372 734 558 q 555 85 669 191 q 278 -20 442 -20 q 151 -5 212 -20 q 35 38 90 9 l 56 156 q 168 103 109 121 q 290 85 225 85 q 475 153 401 85 q 580 350 550 220 l 63 350 l 74 411 m 193 447 l 593 447 q 557 613 603 554 q 417 672 511 672 q 273 610 334 672 q 193 447 212 549 "},"𝘏":{"x_min":33.90625,"x_max":906.03125,"ha":940,"o":"m 210 1012 l 335 1012 l 262 597 l 710 597 l 782 1012 l 906 1012 l 729 0 l 604 0 l 689 482 l 242 482 l 157 0 l 33 0 l 210 1012 "},"ạ":{"x_min":52,"x_max":684,"ha":766,"o":"m 671 432 l 595 0 l 482 0 l 503 114 q 391 13 454 46 q 250 -20 327 -20 q 107 39 163 -20 q 52 191 52 98 q 147 401 52 324 q 410 479 242 479 l 566 479 l 572 512 q 574 524 573 517 q 575 544 575 530 q 530 638 575 604 q 406 672 486 672 q 293 656 351 672 q 175 609 236 640 l 195 724 q 319 764 258 751 q 437 777 380 777 q 620 719 557 777 q 684 549 684 661 q 680 497 684 527 q 671 432 677 466 m 549 381 l 437 381 q 234 340 300 381 q 167 213 167 299 q 201 119 167 153 q 295 85 235 85 q 454 158 386 85 q 545 353 522 231 l 549 381 m 207 -118 l 331 -118 l 306 -256 l 182 -256 l 207 -118 "},"❥":{"x_min":210,"x_max":910.546875,"ha":1047,"o":"m 910 507 q 617 130 765 412 q 439 0 547 0 q 351 18 393 0 q 277 74 309 36 q 226 156 245 109 q 210 252 210 200 q 226 348 210 304 q 277 431 243 394 q 351 487 308 466 q 439 507 391 506 q 351 525 391 507 q 277 581 308 544 q 226 664 243 618 q 210 760 210 707 q 226 856 210 811 q 277 938 245 902 q 351 994 309 975 q 439 1013 393 1013 q 617 882 549 1013 q 910 507 765 599 "},"ӥ":{"x_min":46.796875,"x_max":765.65625,"ha":812,"o":"m 765 760 l 632 0 l 520 0 l 627 610 l 191 0 l 46 0 l 180 760 l 291 760 l 185 151 l 620 760 l 765 760 m 342 1053 l 467 1053 l 442 916 l 318 916 l 342 1053 m 581 1053 l 705 1053 l 681 916 l 557 916 l 581 1053 "},"ʛ":{"x_min":36.703125,"x_max":1001.015625,"ha":885,"o":"m 501 120 l 534 312 l 439 312 l 456 407 l 652 407 l 589 48 q 485 12 541 25 q 313 0 436 0 q 86 107 158 0 q 46 398 14 216 q 189 691 79 584 q 460 797 299 797 q 558 785 497 797 q 588 778 577 781 l 588 778 q 674 988 613 924 q 845 1054 735 1054 l 1001 1054 l 982 948 l 840 948 q 747 915 775 948 q 699 778 718 881 l 682 678 l 680 678 l 668 606 q 539 676 604 658 q 446 692 491 692 q 263 614 337 692 q 164 398 189 538 q 187 183 140 259 q 343 105 234 105 q 501 120 451 105 "},"ᐔ":{"x_min":110.546875,"x_max":1148.8125,"ha":1209,"o":"m 134 572 l 259 572 l 235 433 l 110 433 l 134 572 m 528 826 l 417 184 l 1041 506 l 528 826 m 280 0 l 457 1012 l 1148 583 l 1121 428 l 280 0 m 682 1269 l 807 1269 l 783 1130 l 657 1130 l 682 1269 "},"כּ":{"x_min":-12.5,"x_max":641,"ha":695,"o":"m 242 431 l 334 431 l 316 329 l 224 329 l 242 431 m -12 0 l 4 96 l 231 96 q 429 150 375 96 q 513 379 483 204 q 528 522 528 460 q 503 613 528 585 q 330 663 461 663 l 103 663 l 120 760 l 393 760 q 611 670 559 760 q 641 539 641 617 q 626 380 641 461 q 499 81 589 162 q 260 0 408 0 l -12 0 "},"➱":{"x_min":77.421875,"x_max":998.546875,"ha":1047,"o":"m 168 398 l 77 622 l 107 690 l 603 690 l 603 730 l 633 797 l 700 797 l 998 466 l 968 398 l 670 67 l 603 67 l 603 175 l 77 175 l 168 398 m 225 398 l 156 229 l 652 229 l 652 122 l 900 398 l 652 675 l 652 568 l 156 568 l 225 398 "},"Ḙ":{"x_min":33.90625,"x_max":787.359375,"ha":789,"o":"m 210 1013 l 787 1013 l 767 898 l 314 898 l 261 597 l 696 597 l 676 482 l 241 482 l 177 115 l 641 115 l 621 0 l 33 0 l 210 1013 m 316 -41 l 406 -41 l 512 -296 l 427 -296 l 349 -135 l 206 -296 l 122 -296 l 316 -41 "},"ﬢ":{"x_min":103.078125,"x_max":963,"ha":967,"o":"m 822 663 l 706 0 l 593 0 l 709 663 l 103 663 l 120 760 l 963 760 l 946 663 l 822 663 "},"ᐧ":{"x_min":110.546875,"x_max":259.0625,"ha":319,"o":"m 134 572 l 259 572 l 235 433 l 110 433 l 134 572 "},"✡":{"x_min":113.9375,"x_max":933.15625,"ha":1047,"o":"m 523 1033 l 660 770 l 933 770 l 796 507 l 933 245 l 660 245 l 523 -18 l 387 245 l 113 245 l 250 507 l 113 770 l 387 770 l 523 1033 m 422 702 l 320 507 l 422 312 l 625 312 l 726 507 l 625 702 l 422 702 m 523 896 l 457 770 l 589 770 l 523 896 m 695 702 l 761 575 l 827 702 l 695 702 m 761 439 l 695 312 l 827 312 l 761 439 m 589 245 l 457 245 l 523 117 l 589 245 m 351 312 l 285 439 l 219 312 l 351 312 m 285 575 l 351 702 l 219 702 l 285 575 "},"ữ":{"x_min":73,"x_max":900,"ha":792,"o":"m 426 929 l 398 966 q 380 984 390 977 q 361 993 371 990 q 321 968 337 993 q 296 888 306 943 l 219 888 q 277 1029 237 980 q 372 1079 317 1079 q 414 1068 395 1079 q 450 1037 433 1058 l 478 1000 q 494 983 486 989 q 514 974 502 977 q 552 998 537 974 q 579 1079 567 1022 l 656 1079 q 599 937 638 986 q 503 888 559 888 q 460 898 480 888 q 426 929 439 908 m 85 301 l 165 759 l 278 759 l 198 306 q 189 249 192 272 q 187 209 187 225 q 218 120 187 152 q 308 89 250 89 q 464 156 398 89 q 550 339 530 224 l 625 759 l 737 759 l 605 0 l 492 0 l 515 119 q 402 16 468 53 q 262 -20 336 -20 q 123 34 173 -20 q 73 187 73 89 q 76 238 73 207 q 85 301 79 268 m 639 674 l 653 755 q 709 709 685 724 q 752 695 733 695 q 797 713 780 695 q 821 769 814 732 q 825 811 825 790 q 818 854 825 833 l 900 854 q 900 805 900 828 q 896 761 900 782 q 848 640 881 679 q 758 601 815 601 q 700 618 728 601 q 639 674 671 636 "},"ᓲ":{"x_min":-45.4375,"x_max":792.109375,"ha":753,"o":"m 83 30 l 77 0 l -45 0 l -32 74 q 191 479 16 354 q 525 604 365 604 l 596 1012 l 720 1012 l 629 493 l 568 493 q 248 383 371 493 q 83 30 125 273 m 668 1269 l 792 1269 l 768 1130 l 642 1130 l 668 1269 "},"ʐ":{"x_min":12.890625,"x_max":693.765625,"ha":656,"o":"m 160 760 l 693 760 l 674 645 l 155 100 l 578 100 l 561 0 l 560 0 l 558 -13 q 556 -150 539 -117 q 638 -183 574 -183 l 668 -183 l 649 -289 l 607 -289 q 458 -223 497 -289 q 445 -13 419 -158 l 448 0 l 12 0 l 32 114 l 550 660 l 143 660 l 160 760 "},"ὂ":{"x_min":58,"x_max":709.328125,"ha":765,"o":"m 581 1110 l 709 857 l 615 857 l 461 1110 l 581 1110 m 386 1006 q 206 826 354 826 l 218 895 q 319 1000 300 895 l 237 1000 l 256 1107 l 403 1107 l 386 1006 m 317 -20 q 127 62 197 -20 q 58 287 58 144 q 82 455 58 370 q 144 600 106 541 q 279 734 205 690 q 448 777 353 777 q 636 697 564 777 q 707 486 707 616 q 684 306 707 395 q 621 157 660 216 q 487 23 562 66 q 317 -20 412 -20 m 173 291 q 212 137 173 188 q 330 85 252 85 q 517 195 443 85 q 592 473 592 304 q 552 621 592 571 q 435 672 512 672 q 322 639 372 672 q 234 539 273 606 q 189 424 205 488 q 173 291 173 359 "},"î":{"x_min":44.078125,"x_max":438.78125,"ha":347,"o":"m 177 760 l 290 760 l 155 0 l 44 0 l 177 760 m 243 1111 l 333 1111 l 438 856 l 354 856 l 276 1016 l 133 856 l 48 856 l 243 1111 "},"ύ":{"x_min":65.078125,"x_max":672.9375,"ha":723,"o":"m 271 759 l 185 267 q 193 137 169 176 q 286 105 214 105 q 461 226 385 105 q 542 433 511 306 q 559 589 559 502 q 507 759 559 670 l 620 759 l 620 759 q 665 614 652 697 q 659 432 677 536 q 530 142 632 279 q 255 -1 424 -1 q 95 64 135 -1 q 72 274 49 144 l 156 759 l 271 759 m 551 1111 l 672 1111 l 429 856 l 335 856 l 551 1111 "},"ັ":{"x_min":-720.84375,"x_max":-51.28125,"ha":0,"o":"m -52 1061 q -431 887 -84 887 q -665 952 -604 887 q -719 1073 -729 1016 q -556 1220 -693 1220 q -427 1100 -427 1220 q -469 994 -427 1040 q -410 992 -449 992 q -188 1050 -197 992 q -227 1129 -182 1081 l -126 1222 q -52 1061 -41 1125 m -583 1030 q -539 1073 -547 1030 q -572 1116 -532 1116 q -613 1074 -607 1116 q -583 1030 -622 1030 "},"ϰ":{"x_min":9.734375,"x_max":809.25,"ha":829,"o":"m 319 277 q 93 13 229 97 q 11 51 -3 -46 q 66 154 19 97 q 238 328 140 244 q 313 580 313 465 q 222 651 313 651 q 118 577 186 651 l 144 729 q 277 759 202 771 q 417 575 417 737 q 370 404 417 480 l 499 477 q 725 741 588 657 q 807 703 822 801 q 752 600 799 657 q 580 426 678 510 q 506 174 506 289 q 596 104 506 104 q 700 177 632 104 l 674 25 q 541 -4 616 -16 q 402 179 402 17 q 448 350 402 274 l 319 277 "},"ɓ":{"x_min":23.0625,"x_max":711.734375,"ha":793,"o":"m 583 378 q 571 594 608 516 q 445 673 534 673 q 290 594 356 673 q 202 378 226 516 q 214 162 178 240 q 341 84 252 84 q 495 162 430 84 q 583 378 560 240 m 247 643 q 356 743 295 711 q 491 777 415 777 q 673 667 615 777 q 700 378 732 557 q 571 89 669 199 q 351 -20 475 -20 q 227 12 276 -20 q 155 113 179 45 l 136 0 l 23 0 l 141 679 l 159 779 q 246 989 185 924 q 417 1055 307 1055 l 572 1055 l 554 949 l 412 949 q 318 916 345 949 q 271 779 289 881 l 253 679 l 247 643 "},"ᒂ":{"x_min":71.890625,"x_max":949.984375,"ha":1019,"o":"m 594 89 q 731 144 669 89 q 811 302 794 199 q 779 465 832 415 q 670 516 727 516 q 526 458 591 516 q 444 302 462 401 q 479 140 425 191 q 594 89 532 89 m 493 574 q 688 624 579 624 q 900 542 832 624 q 941 301 969 461 q 810 56 912 132 q 575 -20 708 -20 q 362 61 431 -20 q 322 303 294 142 l 446 1012 l 569 1012 l 493 574 m 101 386 l 230 386 l 200 214 l 71 214 l 101 386 m 173 797 l 302 797 l 272 625 l 143 625 l 173 797 "},"ǫ":{"x_min":58,"x_max":707.96875,"ha":765,"o":"m 317 -20 q 127 62 197 -20 q 58 287 58 144 q 82 456 58 370 q 144 600 106 541 q 279 734 205 691 q 448 778 353 778 q 636 697 564 778 q 707 486 707 616 q 684 306 707 395 q 621 157 660 216 q 487 23 562 66 q 317 -20 412 -20 m 173 291 q 212 137 173 188 q 330 86 252 86 q 517 195 443 86 q 592 473 592 305 q 552 621 592 571 q 435 672 512 672 q 322 639 371 672 q 234 539 272 606 q 189 424 205 489 q 173 291 173 360 m 294 -11 l 367 -11 q 308 -90 327 -56 q 289 -148 289 -124 q 302 -183 289 -172 q 344 -195 316 -195 q 383 -189 361 -195 q 426 -174 404 -184 l 411 -264 q 367 -276 389 -272 q 327 -280 346 -280 q 232 -254 264 -280 q 201 -177 201 -228 q 224 -100 201 -142 q 294 -11 247 -59 "},"⋕":{"x_min":132,"x_max":915,"ha":1047,"o":"m 679 -138 l 575 -138 l 575 239 l 472 239 l 472 -138 l 368 -138 l 368 239 l 132 239 l 132 354 l 368 354 l 368 517 l 132 517 l 132 631 l 368 631 l 368 1013 l 472 1013 l 472 631 l 575 631 l 575 1013 l 679 1013 l 679 631 l 915 631 l 915 517 l 679 517 l 679 354 l 915 354 l 915 239 l 679 239 l 679 -138 m 575 354 l 575 517 l 472 517 l 472 354 l 575 354 "},"₠":{"x_min":62.15625,"x_max":1080.328125,"ha":1096,"o":"m 566 298 q 455 243 512 261 q 337 225 397 225 q 110 330 181 225 q 72 619 40 435 q 212 907 104 802 q 474 1013 320 1013 q 587 994 536 1013 q 679 940 638 976 l 660 832 q 574 904 622 880 q 465 928 525 928 q 272 848 348 928 q 169 619 195 769 q 191 389 143 468 q 357 310 240 310 q 474 333 417 310 q 585 405 531 357 l 647 760 l 1080 760 l 1064 673 l 724 673 l 685 448 l 1011 448 l 996 361 l 670 361 l 622 87 l 970 87 l 954 0 l 514 0 l 566 298 "},"ᕩ":{"x_min":60,"x_max":1065.40625,"ha":1126,"o":"m 941 572 l 1065 572 l 1041 433 l 916 433 l 941 572 m 822 836 q 824 852 824 845 q 813 884 824 872 q 765 900 797 900 q 762 900 765 900 q 711 884 731 900 q 686 836 691 868 q 684 820 684 827 q 695 788 684 799 q 742 772 711 772 q 795 787 774 772 q 822 836 816 803 m 611 896 q 344 808 441 896 q 204 508 240 713 q 193 383 193 440 q 239 208 193 271 q 498 113 310 113 l 771 113 l 751 0 l 498 0 q 131 122 235 0 q 60 359 60 207 q 74 507 60 426 q 265 890 119 768 q 675 1013 410 1013 l 784 1013 q 891 958 851 1013 q 923 866 923 916 q 920 837 923 852 q 850 710 906 761 q 728 661 795 661 q 723 661 725 661 q 608 712 642 661 q 584 798 584 750 q 588 836 584 816 q 611 896 593 869 m 588 1269 l 712 1269 l 688 1130 l 563 1130 l 588 1269 "},"⠗":{"x_min":183,"x_max":732,"ha":915,"o":"m 183 1085 l 366 1085 l 366 882 l 183 882 l 183 1085 m 183 700 l 366 700 l 366 497 l 183 497 l 183 700 m 183 316 l 366 316 l 366 113 l 183 113 l 183 316 m 549 700 l 732 700 l 732 497 l 549 497 l 549 700 "},"⌅":{"x_min":255.90625,"x_max":791.078125,"ha":1047,"o":"m 496 185 l 329 0 l 255 81 l 496 349 l 551 349 l 791 81 l 717 0 l 551 185 l 496 185 m 787 564 l 787 449 l 262 449 l 262 564 l 787 564 "},"℁":{"x_min":22,"x_max":1174.40625,"ha":1212,"o":"m 843 548 q 1007 595 906 595 q 1174 561 1108 595 l 1153 443 l 1138 452 q 997 492 1076 492 q 870 419 883 492 q 882 377 866 393 q 961 345 898 361 l 988 338 q 1111 273 1078 315 q 1131 156 1144 232 l 1131 155 q 1047 21 1116 71 q 875 -28 978 -28 q 691 11 772 -28 l 713 138 l 728 128 q 881 76 810 76 q 1020 149 1007 76 q 1010 198 1026 181 q 919 235 994 215 l 891 242 q 782 304 812 264 q 766 415 753 343 l 766 423 q 843 548 780 501 m 517 739 l 458 402 l 342 402 l 350 441 q 299 414 350 441 q 185 388 248 388 q 67 436 113 388 q 22 560 22 485 q 98 727 22 665 q 305 789 174 789 l 410 789 l 412 802 q 414 810 413 806 q 415 824 415 814 q 386 885 415 864 q 303 907 357 907 q 222 895 264 907 q 109 847 181 884 l 130 969 q 234 1002 186 992 q 326 1013 281 1013 q 475 965 423 1013 q 527 828 527 917 q 524 787 527 810 q 517 739 522 764 m 393 689 l 327 689 q 183 661 228 689 q 139 576 139 634 q 160 515 139 536 q 219 495 181 495 q 328 545 281 495 q 392 683 376 595 l 393 689 m 952 1044 l 1097 1044 l 326 -32 l 179 -32 l 952 1044 "},"‸":{"x_min":6.78125,"x_max":417.078125,"ha":423,"o":"m 417 -328 l 326 -328 l 212 -159 l 97 -328 l 6 -328 l 212 -41 l 417 -328 "},"↨":{"x_min":257.265625,"x_max":791.078125,"ha":1047,"o":"m 576 304 l 717 463 l 791 382 l 551 115 l 787 115 l 787 0 l 262 0 l 262 115 l 496 115 l 257 382 l 330 463 l 472 304 l 472 827 l 330 668 l 257 749 l 496 1017 l 551 1017 l 791 749 l 717 668 l 576 827 l 576 304 "},"Ξ":{"x_min":33.90625,"x_max":773.109375,"ha":789,"o":"m 202 597 l 636 597 l 616 482 l 182 482 l 202 597 m 210 1013 l 773 1013 l 753 898 l 191 898 l 210 1013 m 54 115 l 616 115 l 596 0 l 33 0 l 54 115 "},"⎩":{"x_min":412,"x_max":835,"ha":937,"o":"m 525 1084 l 525 17 q 559 -145 525 -87 q 663 -215 601 -215 l 835 -215 l 835 -334 l 667 -334 q 478 -227 557 -334 q 412 22 412 -123 l 412 1084 l 525 1084 "},"Ԃ":{"x_min":45,"x_max":1178.328125,"ha":1257,"o":"m 606 483 l 408 483 q 253 437 308 483 q 180 297 197 391 q 176 244 176 268 q 203 148 176 186 q 328 84 249 84 q 497 157 438 84 q 583 350 564 242 l 606 483 m 569 153 q 546 114 558 133 q 432 13 503 49 q 302 -20 369 -20 q 93 67 156 -20 q 45 228 45 136 q 51 297 45 261 q 173 522 76 448 q 422 596 269 596 l 626 596 l 698 1012 l 822 1012 l 698 303 q 692 235 692 267 q 709 145 692 183 q 799 95 731 95 q 909 145 863 95 q 974 303 956 198 l 1054 759 l 1178 759 l 1097 299 q 989 61 1071 147 q 779 -20 911 -20 q 599 61 647 -20 q 569 153 576 99 "},"𝕗":{"x_min":28.171875,"x_max":607,"ha":581,"o":"m 322 985 q 231 948 259 978 q 197 811 197 910 l 197 67 l 279 67 l 279 811 q 292 922 279 876 q 322 985 303 960 m 607 1055 l 607 987 l 500 987 q 375 948 410 987 q 340 811 340 910 l 340 744 l 576 744 l 576 676 l 340 676 l 340 -1 l 136 -1 l 136 676 l 28 676 l 28 744 l 136 744 l 136 811 q 188 996 136 939 q 356 1055 242 1055 l 607 1055 "},"⡉":{"x_min":183,"x_max":732,"ha":915,"o":"m 183 1085 l 366 1085 l 366 882 l 183 882 l 183 1085 m 549 1085 l 732 1085 l 732 882 l 549 882 l 549 1085 m 183 -68 l 366 -68 l 366 -271 l 183 -271 l 183 -68 "},"ŵ":{"x_min":130,"x_max":1023.671875,"ha":1022,"o":"m 582 1111 l 672 1111 l 777 856 l 692 856 l 615 1016 l 472 856 l 387 856 l 582 1111 m 130 760 l 232 760 l 232 148 l 501 760 l 650 760 l 650 148 l 911 760 l 1023 760 l 711 0 l 563 0 l 563 629 l 285 0 l 130 0 l 130 760 "},"ᾚ":{"x_min":63.75,"x_max":1323.78125,"ha":1357,"o":"m 856 -289 l 766 -289 q 738 -266 750 -289 q 735 -217 729 -248 l 762 -62 l 853 -62 l 826 -217 q 828 -235 823 -227 q 842 -244 834 -244 l 864 -244 l 856 -289 m 438 1111 l 566 857 l 472 857 l 318 1111 l 438 1111 m 243 1007 q 63 826 211 826 l 75 895 q 176 1001 158 895 l 94 1001 l 113 1108 l 260 1108 l 243 1007 m 628 1012 l 752 1012 l 680 597 l 1127 597 l 1200 1013 l 1323 1013 l 1146 0 l 1022 0 l 1107 482 l 659 482 l 575 0 l 451 0 l 628 1012 "},"╠":{"x_min":229,"x_max":764.78125,"ha":752,"o":"m 424 453 l 424 1351 l 522 1351 l 522 570 l 764 570 l 764 453 l 424 453 m 229 -419 l 229 1351 l 327 1351 l 327 -419 l 229 -419 m 424 -418 l 424 337 l 764 337 l 764 220 l 522 220 l 522 -418 l 424 -418 "},"№":{"x_min":-55.375,"x_max":1203,"ha":1300,"o":"m 967 580 q 1085 645 1023 645 q 1181 580 1148 645 q 1203 495 1203 537 q 1126 263 1203 354 q 1007 198 1070 198 q 912 263 944 198 q 890 348 890 306 q 967 580 890 489 m 1024 298 q 1078 333 1054 298 q 1116 467 1116 389 q 1067 545 1116 545 q 1013 509 1037 545 q 977 376 977 454 q 1024 298 977 298 m 836 83 l 1138 83 l 1123 0 l 821 0 l 836 83 m 211 1013 l 377 1013 l 632 165 l 748 825 q 991 1013 781 1013 l 970 898 q 868 825 881 898 l 723 0 l 558 0 l 302 847 l 186 187 q -55 0 154 0 l -35 115 q 67 187 54 115 l 211 1013 "},"⁐":{"x_min":-54,"x_max":1060,"ha":1004,"o":"m 502 1290 q 777 1250 638 1290 q 1060 1130 916 1210 l 1060 1044 q 781 1150 919 1115 q 502 1186 643 1186 q 223 1151 361 1186 q -54 1044 86 1116 l -54 1130 q 227 1250 89 1210 q 502 1290 365 1290 m 223 -190 q 502 -225 361 -225 q 781 -189 643 -225 q 1060 -83 919 -154 l 1060 -169 q 777 -289 916 -249 q 502 -329 638 -329 q 227 -289 365 -329 q -54 -169 89 -249 l -54 -83 q 223 -190 86 -155 "},"╹":{"x_min":278,"x_max":473,"ha":752,"o":"m 278 395 l 278 1351 l 473 1351 l 473 395 l 278 395 "},"ᐛ":{"x_min":59,"x_max":927.0625,"ha":961,"o":"m 790 825 l 166 505 l 678 184 l 790 825 m 750 0 l 59 428 l 86 583 l 927 1012 l 750 0 m 597 1269 l 721 1269 l 697 1130 l 572 1130 l 597 1269 m 254 1049 l 379 1049 l 355 910 l 229 910 l 254 1049 "},"𝌦":{"x_min":104,"x_max":1017,"ha":1121,"o":"m 107 396 l 467 396 l 472 391 l 472 264 l 467 260 l 107 260 l 104 264 l 104 391 l 107 396 m 644 396 l 1004 396 l 1009 391 l 1009 264 l 1004 260 l 644 260 l 641 264 l 641 391 l 644 396 m 107 657 l 1004 657 l 1009 652 l 1009 525 l 1004 521 l 107 521 l 104 525 l 104 652 l 107 657 m 311 0 l 104 0 l 104 136 l 311 136 l 311 0 m 810 0 l 810 136 l 1017 136 l 1017 0 l 810 0 m 663 0 l 457 0 l 457 136 l 663 136 l 663 0 m 107 917 l 467 917 l 472 912 l 472 785 l 467 781 l 107 781 l 104 785 l 104 912 l 107 917 m 644 917 l 1004 917 l 1009 912 l 1009 785 l 1004 781 l 644 781 l 641 785 l 641 912 l 644 917 "},"ƫ":{"x_min":89.515625,"x_max":533.046875,"ha":490,"o":"m 339 975 l 301 760 l 533 760 l 516 663 l 284 663 l 212 250 q 214 130 196 156 q 303 104 233 104 l 418 104 l 397 -13 q 310 -223 372 -158 q 139 -289 249 -289 l 96 -289 l 115 -183 l 145 -183 q 238 -150 209 -183 q 284 -13 267 -117 l 287 0 l 284 0 q 114 54 155 0 q 99 250 75 107 l 172 663 l 89 663 l 106 760 l 188 760 l 226 975 l 339 975 "},"ᒋ":{"x_min":32.546875,"x_max":785.328125,"ha":785,"o":"m 653 710 q 626 866 670 809 q 503 924 582 924 q 370 872 442 924 q 280 710 299 821 l 155 0 l 32 0 l 155 709 q 281 951 184 870 q 522 1033 379 1033 q 731 956 655 1033 q 777 710 806 880 l 653 710 "},"ເ":{"x_min":35.390625,"x_max":466.578125,"ha":450,"o":"m 351 109 q 292 7 338 33 q 152 -20 246 -20 q 43 201 4 -20 l 117 623 q 285 778 143 778 q 466 727 410 778 l 409 647 q 283 678 365 678 q 229 624 239 678 l 142 125 q 185 191 155 160 q 263 223 214 223 q 351 109 373 223 m 233 61 q 265 71 255 61 q 280 104 276 82 q 276 138 284 128 q 248 148 267 148 q 216 137 226 148 q 202 104 206 126 q 205 70 197 80 q 233 61 214 61 "},"̆":{"x_min":-311,"x_max":72.640625,"ha":1,"o":"m -310 1091 l -240 1091 l -240 1080 q -214 1011 -240 1034 q -136 989 -188 989 q -50 1013 -84 989 q 2 1091 -16 1038 l 72 1091 q -5 946 52 996 q -152 896 -63 896 q -270 939 -230 896 q -311 1068 -311 983 q -310 1080 -311 1072 q -310 1091 -310 1087 "},"⚯":{"x_min":6,"x_max":1041,"ha":1047,"o":"m 619 557 q 631 598 623 577 q 678 675 644 639 q 747 727 708 708 q 828 745 783 745 q 909 727 874 745 q 978 675 950 706 q 1025 598 1009 641 q 1041 505 1041 555 q 1025 415 1041 458 q 978 338 1009 372 q 909 286 948 304 q 828 269 872 269 q 747 286 782 269 q 678 338 706 307 q 631 415 645 373 q 619 455 623 438 l 427 455 q 416 415 423 435 q 368 338 400 372 q 300 286 338 305 q 219 269 263 269 q 137 286 173 269 q 69 338 96 307 q 21 415 38 372 q 6 505 6 458 q 21 598 6 555 q 69 675 38 641 q 137 727 98 709 q 218 745 174 745 q 300 727 265 745 q 368 675 341 706 q 416 598 402 639 q 427 557 423 577 l 619 557 m 874 632 q 828 643 853 643 q 781 632 802 643 q 741 603 759 622 q 715 558 724 582 q 706 506 706 534 q 715 455 706 479 q 741 410 724 431 q 781 381 759 391 q 828 371 802 371 q 874 381 853 371 q 914 410 896 391 q 941 455 931 431 q 950 506 950 479 q 941 559 950 534 q 914 603 931 582 q 874 632 896 622 m 265 632 q 219 643 244 643 q 172 632 193 643 q 132 602 147 620 q 106 558 115 581 q 97 506 97 534 q 106 455 97 479 q 132 411 115 429 q 172 381 150 392 q 219 371 193 371 q 265 381 244 371 q 305 410 287 391 q 332 455 322 431 q 341 506 341 479 q 332 559 341 534 q 305 603 321 585 q 265 632 287 622 "},"₩":{"x_min":53.984375,"x_max":1284.765625,"ha":1237,"o":"m 143 705 l 143 784 l 85 784 l 102 881 l 134 881 l 134 1012 l 258 1012 l 258 881 l 585 881 l 637 1013 l 778 1013 l 778 881 l 1107 881 l 1159 1013 l 1284 1013 l 1231 881 l 1266 881 l 1249 784 l 1192 784 l 1161 705 l 1235 705 l 1218 608 l 1122 608 l 878 0 l 710 0 l 710 608 l 577 608 l 336 0 l 166 0 l 166 608 l 53 608 l 70 705 l 143 705 m 808 608 l 808 156 l 998 608 l 808 608 m 789 784 l 789 705 l 1036 705 l 1068 784 l 789 784 m 286 608 l 286 156 l 476 608 l 286 608 m 647 784 l 615 705 l 690 705 l 690 784 l 647 784 m 268 784 l 268 705 l 515 705 l 546 784 l 268 784 "},"ῳ":{"x_min":69.859375,"x_max":973.375,"ha":1046,"o":"m 503 -289 l 412 -289 q 385 -266 397 -289 q 381 -217 376 -248 l 408 -62 l 499 -62 l 472 -217 q 475 -235 470 -227 q 489 -244 481 -244 l 511 -244 l 503 -289 m 267 -19 q 85 383 14 -19 q 246 759 113 542 l 366 759 q 212 379 241 542 q 296 86 160 86 q 484 450 423 86 l 588 450 q 648 85 522 85 q 835 378 784 85 q 814 759 863 542 l 935 759 q 964 383 991 542 q 645 -19 895 -19 q 482 182 482 -19 q 267 -19 423 -19 "},"ˬ":{"x_min":120.03125,"x_max":509.3125,"ha":625,"o":"m 211 -361 l 120 -29 l 204 -29 l 272 -272 l 424 -29 l 509 -29 l 301 -361 l 211 -361 "},"⢶":{"x_min":183,"x_max":732,"ha":915,"o":"m 183 701 l 366 701 l 366 498 l 183 498 l 183 701 m 183 317 l 366 317 l 366 114 l 183 114 l 183 317 m 549 701 l 732 701 l 732 498 l 549 498 l 549 701 m 549 317 l 732 317 l 732 114 l 549 114 l 549 317 m 549 -68 l 732 -68 l 732 -271 l 549 -271 l 549 -68 "},"Ӳ":{"x_min":30.515625,"x_max":876.1875,"ha":762,"o":"m 750 1288 l 876 1288 l 689 1109 l 592 1109 l 750 1288 m 556 1288 l 683 1288 l 495 1109 l 399 1109 l 556 1288 m 109 1012 l 242 1012 l 364 418 l 696 1013 l 828 1013 l 332 122 q 290 63 314 88 q 77 0 230 0 l 30 0 l 50 115 l 88 115 q 186 129 161 115 q 228 173 211 144 l 267 245 l 109 1012 "},"▇":{"x_min":-12,"x_max":974,"ha":961,"o":"m -12 -347 l -12 892 l 974 892 l 974 -347 l -12 -347 "},"✏":{"x_min":33,"x_max":1024.09375,"ha":1047,"o":"m 878 489 q 881 505 881 497 q 878 521 881 513 q 872 534 876 527 q 863 542 869 538 l 736 628 q 722 592 736 606 q 754 505 754 554 q 722 418 754 456 q 736 382 736 405 l 863 468 q 872 476 869 472 q 878 489 876 483 m 197 432 l 197 579 l 139 654 l 83 579 l 83 432 l 139 356 l 197 432 m 33 600 l 139 736 l 658 736 l 1024 505 l 658 275 l 139 275 l 33 410 l 33 600 m 233 614 l 656 614 q 671 646 671 631 q 649 682 671 665 l 184 682 l 233 614 m 668 451 q 699 505 699 467 q 668 560 699 543 l 252 560 l 252 451 l 668 451 m 111 479 q 109 505 109 491 q 111 531 109 519 q 118 553 113 542 q 127 568 122 562 q 139 574 133 574 q 151 568 145 574 q 161 553 156 562 q 167 531 165 542 q 170 505 170 519 q 167 479 170 491 q 161 457 165 468 q 151 443 156 448 q 139 438 145 438 q 127 443 133 438 q 118 457 122 448 q 111 479 113 468 m 233 397 l 184 329 l 649 329 q 671 364 671 346 q 656 397 671 379 l 233 397 "},"Ý":{"x_min":78.671875,"x_max":845,"ha":763,"o":"m 78 1013 l 210 1013 l 381 596 l 705 1013 l 845 1013 l 431 482 l 347 0 l 223 0 l 307 482 l 78 1013 m 550 1288 l 676 1288 l 488 1109 l 392 1109 l 550 1288 "},"ᴞ":{"x_min":70.53125,"x_max":1108.8125,"ha":1184,"o":"m 116 429 l 140 567 l 263 567 l 240 429 l 116 429 m 70 164 l 94 301 l 217 301 l 193 164 l 70 164 m 728 53 l 314 53 l 336 178 l 745 178 q 898 219 842 178 q 969 345 954 261 q 938 505 986 446 q 790 564 891 564 l 403 564 l 425 689 l 1108 689 l 1087 564 l 981 564 q 1056 458 1036 518 q 1062 318 1076 398 q 954 120 1039 188 q 728 53 869 53 "},"ຸ":{"x_min":-455.828125,"x_max":-195.03125,"ha":0,"o":"m -305 -171 q -337 -127 -297 -127 q -384 -171 -377 -127 q -352 -215 -392 -215 q -305 -171 -313 -215 m -404 -420 q -292 -261 -285 -331 q -362 -286 -321 -286 q -453 -178 -469 -286 q -327 -52 -434 -52 q -227 -105 -265 -52 q -199 -261 -183 -167 q -362 -486 -212 -340 l -404 -420 "},"ℝ":{"x_min":122,"x_max":967.390625,"ha":989,"o":"m 778 259 q 690 394 731 362 q 575 428 648 428 l 547 428 q 656 259 595 396 l 743 68 l 864 68 l 778 259 m 704 468 q 770 407 735 451 q 842 276 804 362 l 967 0 l 699 0 l 583 259 q 495 394 537 361 q 379 428 452 428 l 367 428 l 367 0 l 122 0 l 122 1013 l 536 1013 q 769 940 692 1013 q 846 721 846 867 q 775 513 846 580 q 704 468 745 485 m 367 945 l 367 496 l 565 496 q 595 497 580 496 l 595 943 q 565 945 580 945 l 367 945 m 659 929 l 659 512 q 724 555 698 527 q 779 721 779 613 q 725 886 779 829 q 659 929 699 914 m 183 945 l 183 68 l 306 68 l 306 945 l 183 945 "},"⁉":{"x_min":0.421875,"x_max":890,"ha":916,"o":"m 178 1013 l 301 1013 l 223 568 l 168 326 l 69 326 l 100 568 l 178 1013 m 31 172 l 155 172 l 125 0 l 0 0 l 31 172 m 561 172 l 532 0 l 408 0 l 437 172 l 561 172 m 426 954 q 551 1012 489 993 q 678 1031 613 1031 q 833 980 776 1031 q 890 841 890 929 q 857 710 890 771 q 750 583 824 649 l 687 526 q 618 449 635 481 q 590 355 601 417 l 575 272 l 459 272 l 478 376 q 513 484 489 440 q 604 591 536 528 l 669 651 q 741 735 720 699 q 762 810 762 771 q 728 890 762 861 q 637 920 695 920 q 528 895 588 920 q 404 827 467 871 l 426 954 "},"ẅ":{"x_min":130,"x_max":1023.671875,"ha":1022,"o":"m 434 1053 l 559 1053 l 534 916 l 410 916 l 434 1053 m 673 1053 l 797 1053 l 773 916 l 649 916 l 673 1053 m 130 760 l 232 760 l 232 148 l 501 760 l 650 760 l 650 148 l 911 760 l 1023 760 l 711 0 l 563 0 l 563 629 l 285 0 l 130 0 l 130 760 "},"ǡ":{"x_min":52,"x_max":715.875,"ha":766,"o":"m 671 432 l 595 0 l 482 0 l 503 114 q 391 13 454 46 q 250 -20 327 -20 q 107 39 163 -20 q 52 191 52 98 q 147 401 52 324 q 410 479 242 479 l 566 479 l 572 512 q 574 524 573 517 q 575 544 575 530 q 530 638 575 604 q 406 672 486 672 q 293 656 351 672 q 175 609 236 640 l 195 724 q 319 764 258 751 q 437 777 380 777 q 620 719 557 777 q 684 549 684 661 q 680 497 684 527 q 671 432 677 466 m 549 381 l 437 381 q 234 340 300 381 q 167 213 167 299 q 201 119 167 153 q 295 85 235 85 q 454 158 386 85 q 545 353 522 231 l 549 381 m 438 1026 l 562 1026 l 538 887 l 413 887 l 438 1026 m 350 1205 l 715 1205 l 698 1105 l 333 1105 l 350 1205 "},"ᐥ":{"x_min":0.671875,"x_max":550,"ha":582,"o":"m 206 487 l 473 1018 l 550 985 l 283 453 l 206 487 m 0 487 l 267 1018 l 343 985 l 76 453 l 0 487 "},"⪛":{"x_min":132,"x_max":915,"ha":1047,"o":"m 132 636 l 132 757 l 915 1007 l 915 886 l 132 636 m 132 418 l 132 539 l 915 788 l 915 668 l 132 418 m 915 75 l 915 -43 l 132 205 l 132 320 l 915 570 l 915 449 l 328 263 l 915 75 "},"К":{"x_min":33.90625,"x_max":933.15625,"ha":887,"o":"m 210 1013 l 334 1013 l 246 512 l 775 1013 l 933 1013 l 510 612 l 774 0 l 640 0 l 415 521 l 215 332 l 157 0 l 33 0 l 210 1013 "},"ΰ":{"x_min":65.078125,"x_max":706.84375,"ha":723,"o":"m 585 1357 l 706 1357 l 463 1103 l 369 1103 l 585 1357 m 269 1052 l 394 1052 l 369 915 l 245 915 l 269 1052 m 508 1052 l 632 1052 l 608 915 l 484 915 l 508 1052 m 271 759 l 185 267 q 193 137 169 176 q 286 105 214 105 q 461 226 385 105 q 542 433 511 306 q 559 589 559 502 q 507 759 559 670 l 620 759 l 620 759 q 665 614 652 697 q 659 432 677 536 q 530 142 632 279 q 255 -1 424 -1 q 95 64 135 -1 q 72 274 49 144 l 156 759 l 271 759 "},"꜋":{"x_min":86.125,"x_max":567.625,"ha":616,"o":"m 101 301 l 205 301 l 189 209 l 86 209 l 101 301 m 322 0 l 484 928 l 567 928 l 405 0 l 322 0 "},"Ⴡ":{"x_min":-11.171875,"x_max":632.421875,"ha":677,"o":"m 387 381 l 412 489 l 412 488 q 420 571 420 538 q 417 622 420 602 q 388 665 407 650 q 338 681 369 681 q 293 671 314 681 q 254 644 271 661 q 225 603 237 626 q 209 552 213 579 l 112 0 l -11 0 l 170 1042 l 294 1042 l 247 774 q 360 808 309 808 q 446 787 407 808 q 510 733 485 767 q 541 663 534 698 q 549 603 549 628 q 544 552 549 577 l 535 504 l 632 504 l 611 381 l 387 381 "},"⅞":{"x_min":97.65625,"x_max":1181.109375,"ha":1211,"o":"m 115 1019 l 492 1019 l 486 986 l 180 453 l 97 453 l 385 955 l 104 955 l 115 1019 m 927 1031 l 1036 1031 l 284 -19 l 173 -19 l 927 1031 m 1047 240 q 963 270 1019 270 q 868 240 906 270 q 822 160 831 210 q 840 79 813 108 q 925 50 868 50 q 1019 79 981 50 q 1065 160 1056 109 q 1047 240 1074 210 m 889 303 q 818 348 840 315 q 804 431 795 382 q 872 538 815 499 q 1017 578 929 578 q 1147 538 1104 578 q 1178 431 1190 499 q 1135 348 1169 381 q 1048 303 1101 315 q 1128 251 1101 290 q 1144 160 1154 214 q 1070 34 1130 78 q 914 -10 1010 -10 q 773 34 817 -10 q 742 160 728 78 q 790 251 752 213 q 889 303 830 289 m 881 424 q 898 355 874 381 q 973 330 922 330 q 1057 355 1023 330 q 1098 424 1091 379 q 1081 492 1106 466 q 1006 518 1057 518 q 922 492 956 518 q 881 424 889 468 "},"₣":{"x_min":39.328125,"x_max":820.578125,"ha":795,"o":"m 169 276 l 298 1012 l 820 1012 l 800 897 l 400 897 l 348 598 l 710 598 l 689 483 l 328 483 l 292 276 l 422 276 l 404 176 l 274 176 l 243 0 l 120 0 l 151 176 l 39 176 l 57 276 l 169 276 "},"ﬆ":{"x_min":3.09375,"x_max":1110.375,"ha":1076,"o":"m 577 736 l 557 618 q 466 659 510 647 q 376 673 418 673 q 261 644 304 673 q 210 558 220 618 q 209 539 209 548 q 228 490 209 510 q 339 443 254 466 l 377 434 q 532 353 491 405 q 563 257 563 316 q 558 209 563 234 q 453 41 539 103 q 235 -20 366 -20 q 122 -8 176 -20 q 3 27 64 4 l 26 156 q 139 102 82 120 q 255 84 196 84 q 383 114 335 84 q 440 199 431 144 q 443 224 443 212 q 424 277 443 257 q 297 329 401 301 l 260 339 q 122 414 160 364 q 96 505 96 450 q 100 553 96 527 q 191 718 119 665 q 381 777 270 777 q 470 769 425 777 q 473 810 470 789 q 557 966 489 902 q 723 1030 623 1030 q 857 965 810 1030 q 892 856 892 919 q 888 810 892 834 l 879 759 l 1110 759 l 1093 662 l 862 662 l 790 249 q 782 176 782 205 q 791 130 782 144 q 880 104 809 104 l 995 104 l 977 0 l 861 0 q 692 54 731 0 q 667 153 667 87 q 676 249 667 194 l 748 662 l 666 662 l 683 759 l 766 759 l 774 811 q 777 832 777 822 q 758 885 777 863 q 689 919 730 919 q 608 885 647 919 q 564 809 571 852 q 562 788 562 798 q 577 736 562 759 "},"ǈ":{"x_min":33.90625,"x_max":1042.34375,"ha":1044,"o":"m 877 759 l 990 759 l 855 -13 l 854 -16 q 802 -194 832 -146 q 722 -264 775 -240 q 597 -289 669 -289 l 555 -289 l 573 -183 l 602 -183 q 696 -152 668 -183 q 742 -13 723 -122 l 877 759 m 930 1055 l 1042 1055 l 1015 897 l 902 897 l 930 1055 m 210 1012 l 333 1012 l 177 114 l 621 114 l 600 0 l 33 0 l 210 1012 "},"ῤ":{"x_min":20.34375,"x_max":759.53125,"ha":793,"o":"m 592 1006 q 413 826 560 826 l 425 895 q 525 1000 507 895 l 444 1000 l 463 1107 l 609 1107 l 592 1006 m 234 623 q 387 753 283 692 q 538 777 427 777 q 721 667 662 777 q 748 378 779 557 q 620 89 717 199 q 398 -20 522 -20 q 275 13 323 -20 q 204 113 227 45 l 132 -289 l 20 -289 l 136 371 q 234 623 163 528 m 632 378 q 619 594 656 516 q 492 673 581 673 q 339 594 403 673 q 250 378 273 516 q 263 162 225 240 q 389 84 300 84 q 543 162 478 84 q 632 378 607 240 "},"ͼ":{"x_min":58,"x_max":670.390625,"ha":687,"o":"m 670 730 l 648 606 q 562 655 608 639 q 467 672 516 672 q 365 650 414 672 q 283 591 317 629 q 202 452 231 532 q 173 288 173 373 q 220 136 173 186 q 360 85 266 85 q 458 101 406 85 q 567 148 511 117 l 546 24 q 446 -8 498 2 q 340 -20 394 -20 q 131 55 204 -20 q 58 271 58 131 q 95 489 58 389 q 209 667 133 588 q 329 749 260 722 q 479 777 398 777 q 574 765 527 777 q 670 730 621 754 m 363 484 l 492 484 l 461 312 l 332 312 l 363 484 "},"▵":{"x_min":3.390625,"x_max":623.921875,"ha":627,"o":"m 107 92 l 519 92 l 314 551 l 107 92 m 3 15 l 314 706 l 623 15 l 3 15 "}," ":{"x_min":0,"x_max":0,"ha":277},"ϧ":{"x_min":-26.140625,"x_max":775.421875,"ha":768,"o":"m 525 567 q 380 670 466 670 q 325 655 361 670 q 279 625 306 647 q 245 586 258 607 q 229 545 233 567 q 230 509 225 523 q 248 479 236 490 q 283 461 262 465 q 320 458 302 458 q 381 474 335 458 q 470 521 420 488 q 525 567 495 537 m 664 571 q 692 401 692 489 q 681 297 692 350 q 565 72 661 177 q 319 -20 481 -20 q 178 11 233 -20 q 104 35 137 35 q 8 -9 64 35 l -26 90 q 123 142 65 142 q 247 110 203 142 q 337 87 281 87 q 491 150 432 87 q 563 297 548 211 q 572 388 572 345 q 564 469 572 431 q 522 436 544 452 q 397 372 473 401 q 287 347 330 347 q 220 353 262 347 q 155 382 190 358 q 112 449 129 400 q 105 495 105 471 q 108 529 105 512 q 140 609 114 569 q 199 683 166 651 q 298 748 245 725 q 422 778 364 778 q 619 670 550 778 q 701 799 663 728 l 775 744 q 664 571 723 645 "},"Ἁ":{"x_min":-65.78125,"x_max":769.71875,"ha":855,"o":"m 169 1007 l 187 1108 l 334 1108 l 315 1001 l 233 1001 q 297 895 215 895 l 285 826 q 169 1007 138 826 m 461 1012 l 600 1012 l 769 0 l 640 0 l 602 260 l 193 260 l 64 0 l -65 0 l 461 1012 m 505 877 l 249 374 l 583 374 l 505 877 "},"ӽ":{"x_min":-4.0625,"x_max":778.53125,"ha":739,"o":"m 778 760 l 466 390 l 630 58 q 635 -6 642 32 q 558 -210 611 -145 q 376 -289 495 -289 l 258 -289 l 276 -183 q 412 -181 396 -183 q 484 -137 461 -174 q 524 2 506 -100 l 379 298 l 128 0 l -4 0 l 330 397 l 150 759 l 283 759 l 417 489 l 645 760 l 778 760 "},"̼":{"x_min":-618.84375,"x_max":-113.59375,"ha":0,"o":"m -343 -169 q -226 -114 -297 -114 q -117 -305 -93 -114 q -117 -308 -117 -306 l -188 -308 q -242 -207 -179 -207 q -331 -308 -304 -207 l -403 -308 q -457 -208 -393 -208 q -546 -308 -519 -208 l -618 -308 q -441 -115 -575 -115 q -343 -169 -369 -115 "},"ù":{"x_min":71,"x_max":735.671875,"ha":792,"o":"m 83 301 l 163 759 l 276 759 l 196 306 q 187 249 190 272 q 185 209 185 225 q 216 120 185 152 q 306 89 248 89 q 462 156 396 89 q 548 339 528 224 l 623 759 l 735 759 l 603 0 l 490 0 l 513 119 q 400 16 466 53 q 260 -20 334 -20 q 121 34 171 -20 q 71 187 71 89 q 74 238 71 207 q 83 301 77 268 m 421 1111 l 549 857 l 455 857 l 301 1111 l 421 1111 "},"◅":{"x_min":2.984375,"x_max":957,"ha":960,"o":"m 177 360 l 888 130 l 888 590 l 177 360 m 2 360 l 957 706 l 957 14 l 2 360 "},"⍵":{"x_min":83,"x_max":962,"ha":1047,"o":"m 335 -20 q 83 382 83 -20 q 177 759 83 542 l 298 759 q 211 379 211 542 q 346 85 211 85 q 470 450 470 85 l 574 450 q 698 85 574 85 q 833 379 833 85 q 746 759 833 542 l 866 759 q 962 382 962 542 q 708 -20 962 -20 q 522 182 542 -20 q 335 -20 497 -20 "},"ⱹ":{"x_min":-91.546875,"x_max":456.890625,"ha":517,"o":"m 197 0 l 217 117 q -35 -19 124 -19 q -91 -12 -58 -19 l -69 115 q 16 92 -37 92 q 174 160 111 92 q 259 358 237 229 l 333 779 q 334 916 351 883 q 252 949 316 949 l 111 949 l 130 1055 l 284 1055 q 434 989 396 1055 q 446 779 472 923 l 309 0 l 197 0 "},"◖":{"x_min":68,"x_max":545,"ha":658,"o":"m 306 -97 q 68 361 68 55 q 306 819 68 666 q 545 896 425 896 l 545 -174 q 306 -97 425 -174 "},"ԣ":{"x_min":46.796875,"x_max":1084.390625,"ha":1186,"o":"m 180 759 l 292 759 l 238 450 l 602 450 l 657 759 l 770 759 l 712 428 l 865 428 q 1059 379 1026 428 q 1073 169 1100 322 l 1040 -13 q 954 -223 1015 -158 q 783 -289 893 -289 l 665 -289 l 684 -183 l 789 -183 q 881 -150 856 -183 q 929 -13 911 -113 l 960 165 q 961 302 979 275 q 854 330 941 330 l 695 330 l 637 0 l 524 0 l 585 350 l 221 350 l 160 0 l 46 0 l 180 759 "},"˝":{"x_min":234.640625,"x_max":708.6875,"ha":625,"o":"m 396 1111 l 499 1111 l 318 856 l 234 856 l 396 1111 m 600 1111 l 708 1111 l 512 856 l 429 856 l 600 1111 "},"⫺":{"x_min":132,"x_max":915,"ha":1047,"o":"m 915 132 l 915 11 l 132 -238 l 132 -117 l 915 132 m 915 350 l 915 229 l 132 -19 l 132 101 l 915 350 m 132 693 l 132 812 l 915 563 l 915 448 l 132 198 l 132 319 l 718 505 l 132 693 "},"䷥":{"x_min":104,"x_max":1009,"ha":1120,"o":"m 106 574 l 1004 574 l 1009 569 l 1009 442 l 1004 438 l 106 438 l 104 442 l 104 569 l 106 574 m 106 793 l 467 793 l 472 788 l 472 661 l 467 657 l 106 657 l 104 661 l 104 788 l 106 793 m 644 793 l 1004 793 l 1009 788 l 1009 661 l 1004 657 l 644 657 l 641 661 l 641 788 l 644 793 m 106 1013 l 1004 1013 l 1009 1008 l 1009 881 l 1004 877 l 106 877 l 104 881 l 104 1008 l 106 1013 m 106 -84 l 1004 -84 l 1009 -88 l 1009 -215 l 1004 -220 l 106 -220 l 104 -215 l 104 -88 l 106 -84 m 107 135 l 1005 135 l 1009 130 l 1009 3 l 1005 -1 l 107 -1 l 104 3 l 104 130 l 107 135 m 106 355 l 467 355 l 472 350 l 472 223 l 467 219 l 106 219 l 104 223 l 104 350 l 106 355 m 644 355 l 1004 355 l 1009 350 l 1009 223 l 1004 219 l 644 219 l 641 223 l 641 350 l 644 355 "},"Ɇ":{"x_min":33.90625,"x_max":795.5,"ha":789,"o":"m 691 1140 l 795 1140 l 733 1012 l 786 1012 l 766 897 l 677 897 l 533 597 l 695 597 l 674 482 l 477 482 l 300 115 l 640 115 l 620 0 l 244 0 l 182 -129 l 78 -129 l 141 0 l 33 0 l 210 1012 l 629 1012 l 691 1140 m 196 115 l 373 482 l 241 482 l 177 115 l 196 115 m 429 597 l 573 897 l 314 897 l 261 597 l 429 597 "},"בּ":{"x_min":-12.21875,"x_max":658.234375,"ha":761,"o":"m 247 431 l 339 431 l 321 329 l 229 329 l 247 431 m 501 429 q 512 539 512 493 q 499 612 512 585 q 393 663 474 663 l 135 663 l 152 760 l 409 760 q 596 677 547 760 q 625 555 625 627 q 612 411 625 484 l 556 97 l 658 97 l 641 0 l -12 0 l 4 97 l 442 97 l 501 429 "},"Ứ":{"x_min":70,"x_max":1067,"ha":1047,"o":"m 617 1288 l 743 1288 l 556 1109 l 460 1109 l 617 1288 m 806 877 l 820 957 q 876 912 852 927 q 919 898 900 898 q 964 916 947 898 q 988 971 981 935 q 992 1014 992 993 q 985 1057 992 1035 l 1067 1057 q 1067 1008 1067 1031 q 1063 964 1067 985 q 1015 843 1048 882 q 925 804 982 804 q 866 821 895 804 q 806 877 838 839 m 190 1026 l 314 1026 l 207 411 q 197 342 200 369 q 195 295 195 316 q 241 153 195 202 q 379 105 288 105 q 563 176 497 105 q 656 411 629 248 l 764 1026 l 888 1026 l 778 394 q 641 91 742 189 q 366 -6 541 -6 q 149 70 229 -6 q 70 277 70 146 q 73 330 70 301 q 82 394 76 360 l 190 1026 "},"ϫ":{"x_min":-36.625,"x_max":811.765625,"ha":781,"o":"m 698 107 l 698 107 m 199 107 l 480 107 l 377 318 l 199 107 m 88 132 l 329 417 l 221 632 q 203 661 211 651 q 155 678 187 678 q 130 675 142 678 l 94 671 l 111 767 q 145 775 128 772 q 177 778 162 778 q 290 743 257 778 q 326 686 308 722 l 416 509 l 567 686 q 624 743 598 722 q 749 778 669 778 q 779 775 764 778 q 811 767 795 772 l 795 671 l 760 675 q 735 678 748 678 q 682 661 703 678 q 654 632 670 651 l 465 410 l 600 132 q 606 123 603 127 q 653 107 618 107 l 698 107 l 679 0 l -36 0 l -17 107 l 27 107 q 80 123 62 107 q 88 132 84 127 "},"⅃":{"x_min":4.0625,"x_max":748.015625,"ha":696,"o":"m 748 1013 l 571 0 l 4 0 l 24 115 l 467 115 l 625 1013 l 748 1013 "},"⁂":{"x_min":37.25,"x_max":1214.75,"ha":1251,"o":"m 588 408 l 368 276 l 588 144 l 552 77 l 347 215 l 347 -40 l 278 -40 l 278 215 l 72 77 l 37 144 l 256 276 l 37 408 l 72 475 l 278 337 l 278 594 l 347 594 l 347 337 l 552 475 l 588 408 m 1214 408 l 995 276 l 1214 144 l 1178 77 l 972 215 l 972 -40 l 904 -40 l 904 215 l 698 77 l 662 144 l 882 276 l 662 408 l 698 475 l 904 337 l 904 594 l 974 594 l 974 337 l 1178 475 l 1214 408 m 901 945 l 681 814 l 901 682 l 865 615 l 660 753 l 660 497 l 591 497 l 591 753 l 385 615 l 349 682 l 569 814 l 349 945 l 385 1013 l 591 875 l 591 1131 l 660 1131 l 660 875 l 865 1013 l 901 945 "},"⡿":{"x_min":183,"x_max":732,"ha":915,"o":"m 183 1085 l 366 1085 l 366 882 l 183 882 l 183 1085 m 183 701 l 366 701 l 366 498 l 183 498 l 183 701 m 183 317 l 366 317 l 366 114 l 183 114 l 183 317 m 549 1085 l 732 1085 l 732 882 l 549 882 l 549 1085 m 549 701 l 732 701 l 732 498 l 549 498 l 549 701 m 549 317 l 732 317 l 732 114 l 549 114 l 549 317 m 183 -68 l 366 -68 l 366 -271 l 183 -271 l 183 -68 "},"𝘬":{"x_min":44.078125,"x_max":764.96875,"ha":724,"o":"m 229 1055 l 341 1055 l 233 439 l 619 759 l 764 759 l 335 395 l 649 -1 l 512 -1 l 221 370 l 155 0 l 44 0 l 229 1055 "},"⣄":{"x_min":183,"x_max":732,"ha":915,"o":"m 183 317 l 366 317 l 366 114 l 183 114 l 183 317 m 183 -68 l 366 -68 l 366 -271 l 183 -271 l 183 -68 m 549 -68 l 732 -68 l 732 -271 l 549 -271 l 549 -68 "},"ʌ":{"x_min":-28.484375,"x_max":636.796875,"ha":739,"o":"m 636 0 l 517 0 l 415 637 l 90 0 l -28 0 l 360 760 l 513 760 l 636 0 "},"ģ":{"x_min":40.375,"x_max":745.875,"ha":794,"o":"m 530 861 l 401 861 l 539 1077 l 617 1077 l 530 861 m 745 760 l 629 94 q 500 -194 595 -99 q 245 -289 406 -289 q 135 -279 186 -289 q 40 -249 84 -269 l 61 -127 q 149 -171 102 -157 q 247 -186 195 -186 q 423 -121 355 -186 q 514 64 492 -56 l 524 121 q 414 31 477 62 q 280 0 352 0 q 117 76 176 0 q 58 286 58 152 q 93 492 58 391 q 195 670 129 592 q 296 750 238 722 q 416 778 353 778 q 537 742 486 778 q 613 642 588 707 l 632 760 l 745 760 m 577 481 q 537 623 577 573 q 426 674 498 674 q 341 654 381 674 q 272 599 301 634 q 200 461 226 540 q 173 298 173 382 q 213 154 173 204 q 327 104 253 104 q 505 211 433 104 q 577 481 577 319 "},"Ẵ":{"x_min":-65.78125,"x_max":814.484375,"ha":855,"o":"m 461 1012 l 600 1012 l 769 0 l 640 0 l 602 260 l 193 260 l 64 0 l -65 0 l 461 1012 m 505 877 l 249 374 l 583 374 l 505 877 m 382 1264 l 455 1264 q 486 1204 462 1222 q 556 1186 510 1186 q 642 1204 609 1186 q 693 1264 675 1223 l 765 1264 q 688 1143 744 1187 q 554 1100 632 1100 q 437 1141 480 1100 q 382 1264 394 1182 m 590 1329 l 568 1346 l 568 1347 q 518 1369 541 1369 q 481 1351 497 1369 q 454 1301 465 1334 l 377 1301 q 436 1411 399 1374 q 526 1449 474 1449 q 565 1441 547 1449 q 606 1417 584 1434 l 626 1400 q 649 1386 637 1390 q 672 1382 660 1382 q 713 1400 696 1382 q 737 1449 731 1418 l 814 1449 q 755 1338 794 1375 q 661 1301 717 1301 q 625 1308 642 1301 q 590 1329 609 1315 "},"䷻":{"x_min":104,"x_max":1009,"ha":1120,"o":"m 106 574 l 467 574 l 472 569 l 472 442 l 467 438 l 106 438 l 104 442 l 104 569 l 106 574 m 644 574 l 1004 574 l 1009 569 l 1009 442 l 1004 438 l 644 438 l 641 442 l 641 569 l 644 574 m 106 793 l 1004 793 l 1009 788 l 1009 661 l 1004 657 l 106 657 l 104 661 l 104 788 l 106 793 m 106 1013 l 467 1013 l 472 1008 l 472 881 l 467 877 l 106 877 l 104 881 l 104 1008 l 106 1013 m 644 1013 l 1004 1013 l 1009 1008 l 1009 881 l 1004 877 l 644 877 l 641 881 l 641 1008 l 644 1013 m 106 -84 l 1004 -84 l 1009 -88 l 1009 -215 l 1004 -220 l 106 -220 l 104 -215 l 104 -88 l 106 -84 m 107 135 l 1005 135 l 1009 130 l 1009 3 l 1005 -1 l 107 -1 l 104 3 l 104 130 l 107 135 m 106 355 l 467 355 l 472 350 l 472 223 l 467 219 l 106 219 l 104 223 l 104 350 l 106 355 m 644 355 l 1004 355 l 1009 350 l 1009 223 l 1004 219 l 644 219 l 641 223 l 641 350 l 644 355 "},"➘":{"x_min":153.9375,"x_max":851.78125,"ha":1047,"o":"m 619 267 l 153 737 l 257 852 l 680 335 l 809 543 l 851 75 l 430 124 l 619 267 "},"῟":{"x_min":245.5,"x_max":682.234375,"ha":625,"o":"m 457 1169 l 436 1186 l 436 1187 q 386 1209 409 1209 q 349 1191 365 1209 q 322 1141 332 1174 l 245 1141 q 304 1251 267 1214 q 394 1289 341 1289 q 433 1281 415 1289 q 474 1257 452 1274 l 494 1240 q 516 1226 505 1230 q 540 1222 528 1222 q 581 1240 564 1222 q 605 1289 598 1258 l 682 1289 q 623 1178 661 1215 q 529 1141 585 1141 q 493 1148 510 1141 q 457 1169 476 1155 m 332 1006 l 350 1107 l 497 1107 l 478 1000 l 397 1000 q 461 895 379 895 l 448 826 q 332 1006 301 826 "},"⪵":{"x_min":132,"x_max":915,"ha":1047,"o":"m 335 -159 l 132 -159 l 132 -44 l 421 -44 l 480 34 l 132 34 l 132 149 l 566 149 l 650 260 l 735 182 l 710 149 l 915 149 l 915 34 l 623 34 l 564 -44 l 915 -44 l 915 -159 l 478 -159 l 394 -270 l 310 -192 l 335 -159 m 915 772 q 390 549 727 580 q 915 327 722 494 l 915 181 q 132 493 701 433 l 132 606 q 915 918 701 664 l 915 772 "},"✆":{"x_min":52,"x_max":995,"ha":1047,"o":"m 323 210 q 320 202 321 206 q 314 168 314 186 q 320 132 314 149 q 338 102 326 115 q 365 82 350 90 q 522 48 433 48 q 680 82 606 48 q 813 183 754 115 q 904 330 874 250 q 934 503 934 411 q 904 680 934 599 q 813 828 876 757 q 680 928 755 893 q 523 963 607 963 q 365 928 441 963 q 233 828 293 895 q 143 680 172 760 q 113 503 113 599 q 143 330 113 412 q 187 242 160 284 l 187 139 q 87 305 121 213 q 52 503 52 398 q 87 706 52 610 q 191 875 119 795 q 342 990 256 950 q 523 1031 428 1031 q 704 990 617 1031 q 856 875 785 952 q 960 706 925 800 q 995 503 995 613 q 960 305 995 400 q 856 135 927 216 q 704 20 789 59 q 523 -20 618 -20 q 342 20 426 -20 q 296 54 316 32 q 264 106 275 77 q 253 168 253 135 q 264 229 253 200 q 290 273 272 252 q 288 294 288 284 q 353 595 288 433 q 567 867 464 867 q 619 861 616 867 q 630 809 630 848 q 607 724 630 770 q 582 681 587 681 q 523 652 549 681 q 462 547 504 631 q 424 403 424 469 q 434 366 424 381 q 445 328 445 348 q 431 291 445 322 q 378 217 411 244 q 343 198 354 198 q 323 210 333 198 m 379 160 q 418 191 394 168 q 464 261 449 220 q 480 316 478 299 q 511 285 508 290 q 522 261 522 271 q 503 206 515 228 q 466 152 487 172 q 430 134 443 130 q 379 160 414 138 m 667 854 q 718 828 705 839 q 729 786 729 820 q 716 720 729 756 q 689 670 707 695 q 666 662 683 662 q 624 668 660 662 q 652 717 634 681 q 671 801 671 757 q 667 854 671 837 "},"⋇":{"x_min":132,"x_max":915,"ha":1047,"o":"m 449 186 l 599 186 l 599 20 l 449 20 l 449 186 m 449 851 l 599 851 l 599 684 l 449 684 l 449 851 m 398 378 l 132 378 l 132 493 l 398 493 l 170 745 l 244 827 l 523 516 l 803 827 l 876 745 l 649 493 l 915 493 l 915 378 l 649 378 l 876 124 l 803 43 l 523 354 l 244 43 l 170 124 l 398 378 "},"⁴":{"x_min":51.546875,"x_max":487.609375,"ha":500,"o":"m 367 934 l 127 653 l 317 653 l 367 934 m 367 1019 l 468 1019 l 404 653 l 487 653 l 474 579 l 391 579 l 368 452 l 282 452 l 305 579 l 51 579 l 66 667 l 367 1019 "},"ᔵ":{"x_min":110.546875,"x_max":1020.640625,"ha":1055,"o":"m 134 572 l 259 572 l 235 433 l 110 433 l 134 572 m 1020 1012 l 929 491 l 463 491 l 728 0 l 604 0 l 341 488 l 360 606 l 826 606 l 897 1012 l 1020 1012 "},"⅖":{"x_min":45.53125,"x_max":1158.484375,"ha":1211,"o":"m 402 739 l 167 530 l 436 530 l 422 453 l 45 453 l 58 527 l 316 758 q 370 818 352 789 q 388 874 388 847 q 362 934 388 911 q 293 957 336 957 q 219 945 259 957 q 128 909 179 933 l 143 992 q 232 1021 190 1012 q 312 1031 273 1031 q 434 992 388 1031 q 481 893 481 953 q 461 812 481 851 q 402 739 442 774 m 927 1031 l 1036 1031 l 284 -19 l 173 -19 l 927 1031 m 847 566 l 1158 566 l 1147 502 l 908 502 l 884 363 q 921 372 902 369 q 955 375 938 375 q 1102 322 1054 375 q 1134 182 1150 271 q 1050 40 1118 91 q 875 -10 983 -10 q 801 -3 839 -10 q 726 14 764 2 l 740 90 q 807 62 771 72 q 885 54 843 54 q 999 88 953 54 q 1055 182 1045 123 q 1032 276 1065 241 q 930 311 998 311 q 865 304 898 311 q 797 283 832 297 l 847 566 "},"𝕥":{"x_min":33.9375,"x_max":552,"ha":581,"o":"m 283 72 q 258 213 258 129 l 258 907 l 176 907 l 176 250 q 204 106 176 133 q 283 72 232 80 m 320 975 l 320 745 l 551 745 l 551 677 l 320 677 l 320 213 q 343 94 320 120 q 436 68 366 68 l 552 68 l 552 0 l 344 0 q 165 54 215 0 q 116 250 116 108 l 116 677 l 33 677 l 33 745 l 116 745 l 116 975 l 320 975 "},"❼":{"x_min":93,"x_max":1028,"ha":1120,"o":"m 1028 505 q 891 137 1028 289 q 559 -14 754 -14 q 229 137 366 -14 q 93 505 93 289 q 155 765 93 639 q 330 957 218 890 q 559 1025 443 1025 q 790 957 677 1025 q 965 765 902 890 q 1028 505 1028 641 m 365 721 l 647 721 l 442 183 l 559 183 l 782 766 l 782 817 l 365 817 l 365 721 "},"ᴅ":{"x_min":46.796875,"x_max":698.421875,"ha":756,"o":"m 275 660 l 177 100 l 263 100 q 469 167 396 100 q 568 380 543 235 q 544 592 594 524 q 361 660 493 660 l 275 660 m 180 760 l 369 760 q 645 668 568 760 q 687 380 722 576 q 544 92 653 184 q 236 0 434 0 l 46 0 l 180 760 "},"ắ":{"x_min":52,"x_max":743,"ha":766,"o":"m 671 432 l 595 0 l 482 0 l 503 114 q 391 13 454 46 q 250 -20 327 -20 q 107 39 163 -20 q 52 191 52 98 q 147 401 52 324 q 410 479 242 479 l 566 479 l 572 512 q 574 524 573 517 q 575 544 575 530 q 530 638 575 604 q 406 672 486 672 q 293 656 351 672 q 175 609 236 640 l 195 724 q 319 764 258 751 q 437 777 380 777 q 620 719 557 777 q 684 549 684 661 q 680 497 684 527 q 671 432 677 466 m 549 381 l 437 381 q 234 340 300 381 q 167 213 167 299 q 201 119 167 153 q 295 85 235 85 q 454 158 386 85 q 545 353 522 231 l 549 381 m 318 1019 l 391 1019 q 422 960 398 978 q 492 942 446 942 q 577 960 544 942 q 628 1020 611 979 l 701 1020 q 624 899 680 943 q 489 856 568 856 q 373 896 416 856 q 318 1019 330 937 m 616 1206 l 743 1206 l 555 1027 l 459 1027 l 616 1206 "},"²":{"x_min":45.53125,"x_max":481,"ha":501,"o":"m 402 739 l 167 530 l 436 530 l 422 453 l 45 453 l 58 527 l 316 758 q 370 818 352 789 q 388 874 388 847 q 362 934 388 911 q 293 957 336 957 q 219 945 259 957 q 128 909 179 933 l 143 992 q 232 1021 190 1012 q 312 1031 273 1031 q 434 992 388 1031 q 481 893 481 953 q 461 812 481 851 q 402 739 442 774 "},"⡹":{"x_min":183,"x_max":732,"ha":915,"o":"m 183 1085 l 366 1085 l 366 882 l 183 882 l 183 1085 m 549 1085 l 732 1085 l 732 882 l 549 882 l 549 1085 m 549 701 l 732 701 l 732 498 l 549 498 l 549 701 m 549 317 l 732 317 l 732 114 l 549 114 l 549 317 m 183 -68 l 366 -68 l 366 -271 l 183 -271 l 183 -68 "},"◱":{"x_min":113,"x_max":1067,"ha":1180,"o":"m 183 399 l 625 399 l 625 -94 l 998 -94 l 998 815 l 183 815 l 183 399 m 113 -171 l 113 892 l 1067 892 l 1067 -171 l 113 -171 m 183 -94 l 555 -94 l 555 322 l 183 322 l 183 -94 "},"ზ":{"x_min":17,"x_max":554,"ha":635,"o":"m 542 341 q 223 -1 481 -1 q 17 223 17 -1 q 28 341 17 276 q 175 615 69 564 l 177 628 q 109 757 109 658 q 115 826 109 788 q 337 1055 155 1055 q 503 901 503 1055 q 496 835 503 871 q 424 672 477 730 l 421 659 q 554 458 554 636 q 542 341 554 406 m 425 341 q 435 435 435 394 q 325 577 435 577 l 323 577 l 323 577 q 144 341 185 577 q 135 239 135 283 q 240 95 135 95 q 425 341 382 95 m 390 814 q 396 867 396 844 q 318 959 396 959 q 215 813 240 959 q 209 753 209 779 q 278 666 209 666 q 390 814 365 666 "},"Ʋ":{"x_min":82.578125,"x_max":858.59375,"ha":901,"o":"m 364 115 q 594 213 497 115 q 720 474 693 311 q 704 723 744 611 q 620 856 677 797 l 628 902 l 737 902 q 845 706 819 806 q 847 475 870 606 q 670 133 811 266 q 344 1 529 1 l 297 1 q 111 79 156 1 q 94 346 63 162 l 210 1012 l 334 1012 l 218 348 q 220 165 195 216 q 326 115 244 115 l 364 115 "},"Ǆ":{"x_min":33.46875,"x_max":1840.59375,"ha":1818,"o":"m 210 1013 l 475 1013 q 794 913 686 1013 q 902 618 902 814 q 860 368 902 488 q 748 166 819 249 q 564 41 675 82 q 299 0 452 0 l 33 0 l 210 1013 m 314 900 l 177 113 l 338 113 q 658 245 545 113 q 772 618 772 377 q 698 831 772 763 q 469 900 625 900 l 314 900 m 1125 1013 l 1840 1013 l 1822 908 l 1116 115 l 1697 115 l 1678 0 l 934 0 l 952 104 l 1658 898 l 1105 898 l 1125 1013 m 1556 1109 l 1426 1109 l 1329 1289 l 1411 1289 l 1496 1168 l 1624 1289 l 1716 1289 l 1556 1109 "},"⨑":{"x_min":71.1875,"x_max":651.703125,"ha":650,"o":"m 552 396 q 535 298 552 344 q 485 216 517 252 q 412 161 453 180 q 359 146 390 151 l 359 -91 q 307 -250 359 -203 q 211 -295 257 -295 q 118 -248 163 -295 q 71 -114 84 -212 l 161 -104 q 209 -193 171 -193 q 257 -73 257 -193 l 257 151 q 239 161 251 155 q 165 216 196 182 q 115 298 133 252 q 99 396 99 344 l 161 396 q 173 325 161 358 q 209 265 186 291 q 263 225 233 239 q 283 223 265 224 l 283 848 q 336 1007 283 960 q 435 1052 387 1052 q 530 1005 484 1052 q 579 871 565 969 l 489 861 q 436 950 479 950 q 385 830 385 950 l 385 218 q 388 225 379 220 q 441 265 419 241 q 477 325 465 292 q 490 395 490 357 l 490 416 l 433 353 l 389 402 l 504 530 l 537 530 l 651 402 l 608 353 l 552 416 l 552 396 "},"⨁":{"x_min":35,"x_max":1214,"ha":1249,"o":"m 807 872 q 624 913 722 913 q 441 872 527 913 q 288 756 357 833 q 182 584 217 678 q 148 380 148 490 q 182 178 148 272 q 288 6 217 84 q 441 -109 357 -70 q 624 -150 527 -150 q 807 -109 722 -150 q 961 6 891 -70 q 1066 178 1031 84 q 1101 380 1101 272 q 1066 584 1101 490 q 961 756 1031 678 q 807 872 891 833 m 394 984 q 624 1038 502 1038 q 850 989 746 1038 q 1041 844 954 940 q 1171 631 1127 748 q 1214 380 1214 516 q 1171 129 1214 246 q 1041 -81 1127 14 q 850 -226 954 -177 q 624 -275 746 -275 q 398 -226 502 -275 q 207 -81 294 -177 q 77 129 121 14 q 35 380 35 246 q 77 631 35 516 q 207 844 121 748 q 394 984 285 931 m 676 881 l 676 438 l 1075 438 l 1075 323 l 676 323 l 676 -120 l 574 -120 l 574 323 l 175 323 l 175 438 l 574 438 l 574 881 l 676 881 "},"↝":{"x_min":14,"x_max":1021,"ha":1047,"o":"m 747 338 l 844 448 l 643 448 l 643 563 l 982 563 l 1021 520 l 1021 143 l 918 143 l 918 366 l 820 257 q 736 195 784 218 q 637 174 691 174 q 538 195 582 174 q 454 257 486 222 q 397 352 416 302 q 363 409 384 385 q 313 447 341 433 q 254 460 285 460 q 194 447 219 460 q 144 409 163 431 q 109 352 122 385 l 14 396 q 70 490 34 450 q 155 553 104 528 q 254 575 198 575 q 352 553 307 575 q 436 491 400 530 q 493 396 473 450 q 527 340 506 364 q 578 301 549 316 q 637 289 605 289 q 696 301 671 289 q 747 338 725 316 "},"©":{"x_min":173,"x_max":1077,"ha":1250,"o":"m 625 1007 q 797 969 717 1007 q 944 858 878 932 q 1044 695 1011 784 q 1077 502 1077 606 q 1044 310 1077 399 q 944 148 1011 222 q 797 37 878 74 q 625 0 717 0 q 452 37 532 0 q 305 148 371 74 q 205 310 238 222 q 173 502 173 399 q 205 695 173 606 q 305 858 238 784 q 452 969 371 932 q 625 1007 532 1007 m 625 937 q 476 905 545 937 q 349 809 406 873 q 263 668 292 745 q 234 502 234 590 q 263 337 234 414 q 349 197 292 260 q 476 101 406 133 q 625 69 545 69 q 774 101 705 69 q 901 197 844 133 q 986 336 958 260 q 1015 502 1015 413 q 986 669 1015 592 q 901 809 957 746 q 774 905 844 873 q 625 937 705 937 m 808 771 l 808 683 q 727 717 767 706 q 647 728 687 728 q 505 668 556 728 q 454 502 454 609 q 506 336 454 395 q 653 277 558 277 q 730 287 693 277 q 808 321 767 298 l 808 234 q 724 205 766 215 q 640 196 683 196 q 431 278 508 196 q 355 502 355 361 q 431 726 355 644 q 640 809 508 809 q 726 799 685 809 q 808 771 767 789 "},"✳":{"x_min":68,"x_max":979,"ha":1047,"o":"m 598 472 l 867 172 l 823 124 l 554 424 l 554 0 l 493 0 l 493 423 l 222 124 l 180 172 l 449 472 l 68 472 l 68 540 l 450 540 l 180 840 l 222 888 l 493 588 l 493 1013 l 554 1013 l 554 588 l 823 888 l 867 840 l 596 540 l 979 540 l 979 472 l 598 472 "},"⠏":{"x_min":183,"x_max":732,"ha":915,"o":"m 183 1085 l 366 1085 l 366 882 l 183 882 l 183 1085 m 183 700 l 366 700 l 366 497 l 183 497 l 183 700 m 183 316 l 366 316 l 366 113 l 183 113 l 183 316 m 549 1085 l 732 1085 l 732 882 l 549 882 l 549 1085 "}," ":{"x_min":0,"x_max":0,"ha":397},"\\":{"x_min":106.46875,"x_max":327.5625,"ha":421,"o":"m 210 1013 l 327 -129 l 225 -129 l 106 1013 l 210 1013 "},"≀":{"x_min":127.078125,"x_max":341.59375,"ha":468,"o":"m 341 1 l 231 1 q 163 132 184 71 q 142 258 142 193 q 178 432 142 333 q 182 444 180 439 q 187 458 183 448 q 225 628 225 564 q 201 746 225 687 q 127 871 178 804 l 236 871 q 304 738 283 799 q 326 611 326 678 q 290 438 326 537 q 286 427 286 429 q 280 412 284 423 q 244 243 244 307 q 266 127 244 185 q 341 1 289 70 "},"ᶽ":{"x_min":0,"x_max":420.46875,"ha":458,"o":"m 198 453 q 189 410 193 433 l 131 410 q 139 453 134 433 l 0 453 l 10 517 l 330 822 l 74 822 l 84 878 l 420 878 l 409 813 l 89 509 l 156 509 q 283 619 199 619 q 355 525 370 619 q 214 453 342 453 l 198 453 m 216 509 l 223 509 q 294 530 290 509 q 273 564 300 564 q 216 509 240 564 "},"⪉":{"x_min":132,"x_max":916,"ha":1048,"o":"m 916 275 l 916 154 q 796 77 851 100 q 683 54 742 54 q 590 69 641 54 l 558 -18 q 696 -54 643 -54 q 801 -28 749 -54 q 916 54 852 -3 l 916 -67 q 796 -143 851 -120 q 683 -167 742 -167 q 526 -127 615 -167 l 521 -125 l 465 -282 l 364 -239 l 419 -86 q 351 -76 380 -76 q 245 -101 297 -76 q 133 -183 192 -127 l 133 -62 q 251 13 196 -9 q 365 37 305 37 q 457 21 407 37 l 489 109 q 351 145 404 145 q 245 119 297 145 q 133 37 192 93 l 133 158 q 251 234 196 211 q 365 257 318 263 q 522 218 453 248 l 526 216 l 582 374 l 683 331 l 628 177 q 696 167 667 167 q 801 192 749 167 q 916 275 852 217 m 915 801 l 329 614 l 915 428 l 915 307 l 132 557 l 132 672 l 915 921 l 915 801 "},"Ḳ":{"x_min":33.90625,"x_max":902.640625,"ha":819,"o":"m 210 1012 l 335 1012 l 259 585 l 738 1013 l 902 1013 l 361 528 l 757 0 l 607 0 l 243 492 l 157 0 l 33 0 l 210 1012 m 259 -118 l 383 -118 l 358 -256 l 233 -256 l 259 -118 "},"ե":{"x_min":79,"x_max":742.25,"ha":792,"o":"m 517 116 q 272 -20 414 -20 q 108 61 155 -20 q 79 177 79 112 q 89 299 79 241 l 221 1055 l 333 1055 l 282 759 l 742 759 l 722 644 l 262 644 l 202 304 q 194 227 194 261 q 315 89 194 89 q 472 154 408 89 q 554 329 535 219 l 574 441 l 686 441 l 609 0 l 497 0 l 517 116 "},"ṙ":{"x_min":44.078125,"x_max":578.484375,"ha":513,"o":"m 557 643 q 518 659 539 654 q 471 665 496 665 q 313 589 381 665 q 225 387 246 513 l 155 0 l 44 0 l 177 759 l 290 759 l 268 641 q 375 742 313 706 q 507 778 436 778 q 543 775 525 778 q 578 767 560 773 l 557 643 m 385 1052 l 509 1052 l 484 914 l 360 914 l 385 1052 "},"➟":{"x_min":71,"x_max":986.203125,"ha":1047,"o":"m 425 300 l 279 300 l 279 571 l 425 571 l 425 300 m 230 300 l 157 300 l 157 571 l 230 571 l 230 300 m 108 300 l 71 300 l 71 571 l 108 571 l 108 300 m 719 300 l 474 300 l 474 571 l 719 571 l 719 732 l 986 435 l 719 138 l 719 300 "},"ς":{"x_min":82.828125,"x_max":695.125,"ha":733,"o":"m 368 -20 q 132 87 204 -20 q 92 378 60 195 q 235 671 124 564 q 505 777 345 777 q 605 766 558 777 q 695 730 652 754 l 674 613 q 586 657 632 642 q 492 672 541 672 q 309 595 383 672 q 210 378 235 518 q 233 162 186 239 q 387 85 280 85 q 507 34 467 85 q 535 -100 549 -19 q 466 -232 521 -178 q 307 -292 406 -292 q 326 -192 316 -242 q 398 -163 367 -192 q 426 -114 421 -139 q 418 -48 432 -78 q 368 -20 404 -20 "},"ʇ":{"x_min":-13.5625,"x_max":430.640625,"ha":490,"o":"m 180 -215 l 217 0 l -13 0 l 3 97 l 235 97 l 307 509 q 304 628 323 602 q 217 655 286 655 l 101 655 l 120 759 l 235 759 q 404 704 364 759 q 419 509 444 651 l 347 97 l 430 97 l 413 0 l 330 0 l 292 -215 l 180 -215 "},"Ḋ":{"x_min":33.46875,"x_max":902,"ha":962,"o":"m 521 1268 l 645 1268 l 621 1129 l 495 1129 l 521 1268 m 210 1013 l 475 1013 q 794 913 686 1013 q 902 618 902 814 q 860 368 902 488 q 748 166 819 249 q 564 41 675 82 q 299 0 452 0 l 33 0 l 210 1013 m 314 900 l 177 113 l 338 113 q 658 245 545 113 q 772 618 772 377 q 698 831 772 763 q 469 900 625 900 l 314 900 "},"ᵩ":{"x_min":52.078125,"x_max":493.546875,"ha":519,"o":"m 360 369 q 325 314 335 369 l 279 54 q 359 93 315 54 q 413 213 399 129 q 401 334 426 291 q 360 369 381 369 m 370 429 q 464 378 425 429 q 488 213 505 325 q 406 49 471 110 q 268 -8 345 -8 l 241 -161 l 171 -161 l 198 -9 q 81 48 121 -9 q 57 212 39 108 q 138 376 75 320 q 250 429 185 418 l 239 366 q 185 328 211 358 q 131 212 143 284 q 143 92 118 135 q 209 53 166 53 l 254 314 q 370 429 275 429 "},"⧒":{"x_min":132,"x_max":1117.625,"ha":1250,"o":"m 132 -42 l 132 912 l 625 511 l 1117 912 l 1117 -42 l 625 358 l 132 -42 m 530 434 l 236 672 l 236 197 l 530 434 "},"ᶵ":{"x_min":52.21875,"x_max":330.953125,"ha":368,"o":"m 205 998 l 185 878 l 330 878 l 320 824 l 174 824 l 134 593 q 137 525 125 540 q 193 511 149 511 l 266 511 l 254 445 q 202 327 241 364 q 95 291 165 291 l 69 291 l 79 351 l 98 351 q 155 369 138 351 q 184 445 173 387 l 185 453 l 183 453 q 75 483 101 453 q 63 593 50 513 l 104 824 l 52 824 l 62 878 l 113 878 l 134 998 l 205 998 "},"ç":{"x_min":58,"x_max":670.8125,"ha":688,"o":"m 670 730 l 648 607 q 562 655 608 639 q 467 672 516 672 q 365 651 414 672 q 283 591 317 630 q 202 453 231 532 q 173 288 173 373 q 220 136 173 186 q 360 86 266 86 q 459 101 406 86 q 568 148 511 117 l 547 25 q 446 -8 498 2 q 340 -20 394 -20 q 131 55 204 -20 q 58 271 58 131 q 96 489 58 389 q 209 668 134 588 q 329 750 260 722 q 480 778 398 778 q 575 766 528 778 q 670 730 621 754 m 364 0 q 396 -64 386 -34 q 407 -122 407 -93 q 362 -228 407 -189 q 239 -268 317 -268 q 186 -263 212 -268 q 133 -251 160 -259 l 148 -163 q 196 -179 171 -174 q 245 -185 220 -185 q 304 -164 282 -185 q 326 -107 326 -143 q 318 -63 326 -87 q 291 0 310 -39 l 364 0 "},"Ⅼ":{"x_min":33.90625,"x_max":621.203125,"ha":696,"o":"m 210 1012 l 333 1012 l 177 114 l 621 114 l 600 0 l 33 0 l 210 1012 "},"ִ":{"x_min":345.1875,"x_max":454.375,"ha":0,"o":"m 362 -118 l 454 -118 l 436 -220 l 345 -220 l 362 -118 "},"Δ":{"x_min":-77.984375,"x_max":756.84375,"ha":855,"o":"m 492 877 l 109 114 l 610 114 l 492 877 m -77 0 l 446 1012 l 586 1012 l 756 0 l -77 0 "},"‰":{"x_min":113,"x_max":1573,"ha":1687,"o":"m 1320 -20 q 1188 40 1236 -20 q 1140 204 1140 100 q 1210 441 1140 350 q 1394 532 1280 532 q 1525 472 1477 532 q 1573 308 1573 412 q 1502 71 1573 162 q 1320 -20 1432 -20 m 1476 302 q 1452 411 1476 375 q 1382 447 1429 447 q 1276 380 1315 447 q 1238 197 1238 314 q 1262 99 1238 133 q 1332 66 1286 66 q 1436 130 1397 66 q 1476 302 1476 195 m 293 479 q 161 539 210 479 q 113 702 113 599 q 183 940 113 849 q 369 1031 254 1031 q 500 970 451 1031 q 549 805 549 909 q 478 569 549 660 q 293 479 407 479 m 451 801 q 427 908 451 872 q 356 945 403 945 q 249 879 288 945 q 211 695 211 813 q 235 598 211 632 q 306 565 260 565 q 411 629 371 565 q 451 801 451 694 m 975 302 q 952 411 975 375 q 881 447 929 447 q 775 380 814 447 q 737 197 737 314 q 761 99 737 133 q 832 66 786 66 q 936 130 897 66 q 975 302 975 195 m 819 -20 q 688 40 736 -20 q 640 204 640 100 q 710 441 640 350 q 894 532 780 532 q 1025 472 977 532 q 1073 308 1073 412 q 1002 71 1073 162 q 819 -20 932 -20 m 1026 1031 l 274 -20 l 176 -20 l 929 1031 l 1026 1031 "},"Ä":{"x_min":-65.78125,"x_max":769.71875,"ha":855,"o":"m 461 1012 l 600 1012 l 769 0 l 640 0 l 602 260 l 193 260 l 64 0 l -65 0 l 461 1012 m 505 877 l 249 374 l 583 374 l 505 877 m 381 1269 l 505 1269 l 480 1131 l 357 1131 l 381 1269 m 619 1269 l 743 1269 l 719 1131 l 596 1131 l 619 1269 "},"Ṣ":{"x_min":7.09375,"x_max":753.359375,"ha":793,"o":"m 753 979 l 728 846 q 607 901 667 882 q 489 920 546 920 q 314 866 379 920 q 249 723 249 812 q 273 648 249 674 q 397 592 297 622 l 470 572 q 644 481 595 536 q 693 326 693 425 q 584 76 693 172 q 299 -20 476 -20 q 154 -4 227 -20 q 7 44 80 11 l 32 185 q 167 114 100 138 q 303 91 235 91 q 488 148 418 91 q 558 296 558 205 q 530 389 558 357 q 411 446 502 420 l 337 467 q 164 552 210 504 q 119 686 119 600 q 223 934 119 837 q 495 1031 327 1031 q 624 1018 560 1031 q 753 979 688 1005 m 231 -118 l 355 -118 l 331 -256 l 206 -256 l 231 -118 "},"⣰":{"x_min":183,"x_max":732,"ha":915,"o":"m 549 701 l 732 701 l 732 498 l 549 498 l 549 701 m 549 317 l 732 317 l 732 114 l 549 114 l 549 317 m 183 -68 l 366 -68 l 366 -271 l 183 -271 l 183 -68 m 549 -68 l 732 -68 l 732 -271 l 549 -271 l 549 -68 "},"—":{"x_min":52.21875,"x_max":1197.640625,"ha":1250,"o":"m 69 430 l 1197 430 l 1180 332 l 52 332 l 69 430 "},"N":{"x_min":33.90625,"x_max":901.28125,"ha":935,"o":"m 210 1013 l 377 1013 l 628 144 l 781 1013 l 901 1013 l 723 0 l 557 0 l 306 873 l 153 0 l 33 0 l 210 1013 "},"⇄":{"x_min":61,"x_max":986,"ha":1047,"o":"m 986 668 l 986 608 l 746 341 l 673 422 l 815 581 l 71 581 l 71 696 l 815 696 l 673 854 l 746 935 l 986 668 m 61 201 l 61 261 l 300 528 l 374 447 l 231 289 l 976 289 l 976 174 l 231 174 l 374 15 l 300 -65 l 61 201 "},"ⅺ":{"x_min":-31.875,"x_max":1022.671875,"ha":1027,"o":"m 750 759 l 437 386 l 629 0 l 500 0 l 356 300 l 104 0 l -31 0 l 304 399 l 125 759 l 254 759 l 385 484 l 614 759 l 750 759 m 910 1055 l 1022 1055 l 995 897 l 882 897 l 910 1055 m 859 759 l 971 759 l 837 0 l 725 0 l 859 759 "},"2":{"x_min":4.78125,"x_max":718,"ha":795,"o":"m 576 488 l 182 114 l 617 114 l 596 0 l 4 0 l 25 115 l 436 507 q 553 646 518 586 q 588 769 588 706 q 546 876 588 835 q 437 918 504 918 q 308 894 379 918 q 157 827 238 871 l 180 963 q 324 1013 255 996 q 452 1031 393 1031 q 645 960 572 1031 q 718 775 718 889 q 683 627 718 697 q 576 488 648 557 "},"וֹ":{"x_min":28.484375,"x_max":294.328125,"ha":340,"o":"m 202 970 l 294 970 l 276 868 l 185 868 l 202 970 m 142 0 l 28 0 l 162 759 l 275 759 l 142 0 "},"☘":{"x_min":97,"x_max":1023,"ha":1120,"o":"m 542 526 l 410 735 q 365 881 365 805 q 418 997 365 953 q 464 1012 441 1012 q 544 975 518 1012 q 598 975 571 938 q 660 1012 625 1012 q 750 934 716 1012 q 759 881 759 906 q 703 716 759 794 l 582 528 l 779 596 q 937 604 863 630 q 980 577 959 596 q 1023 488 1023 533 q 1018 459 1023 474 q 967 404 1008 421 q 950 349 927 388 q 957 252 974 309 q 930 208 950 227 q 857 181 895 181 q 815 189 836 181 q 704 281 750 212 l 577 469 q 515 0 603 201 l 457 0 q 542 469 566 200 l 416 281 q 305 189 369 212 q 263 181 283 181 q 190 208 224 181 q 162 252 169 227 q 169 349 145 309 q 152 404 192 388 q 101 459 112 421 q 97 487 97 474 q 139 577 97 533 q 182 604 161 596 q 340 596 256 630 l 542 526 "},"῁":{"x_min":229.90625,"x_max":682.234375,"ha":625,"o":"m 457 1170 l 436 1187 l 436 1188 q 386 1210 409 1210 q 349 1192 365 1210 q 322 1141 332 1175 l 245 1141 q 304 1252 267 1215 q 394 1290 341 1290 q 433 1282 415 1290 q 474 1258 452 1275 l 494 1240 q 516 1226 505 1230 q 540 1222 528 1222 q 581 1240 564 1222 q 605 1290 598 1258 l 682 1290 q 623 1178 661 1215 q 529 1141 585 1141 q 493 1148 510 1141 q 457 1170 476 1155 m 253 1053 l 379 1053 l 354 916 l 229 916 l 253 1053 m 492 1053 l 616 1053 l 592 916 l 468 916 l 492 1053 "},"ǃ":{"x_min":33.234375,"x_max":334.34375,"ha":369,"o":"m 210 1013 l 334 1013 l 256 568 l 201 326 l 102 326 l 132 568 l 210 1013 m 64 172 l 187 172 l 158 0 l 33 0 l 64 172 "},"⠩":{"x_min":183,"x_max":732,"ha":915,"o":"m 183 1085 l 366 1085 l 366 882 l 183 882 l 183 1085 m 549 1085 l 732 1085 l 732 882 l 549 882 l 549 1085 m 549 316 l 732 316 l 732 113 l 549 113 l 549 316 "},"ḩ":{"x_min":-95.921875,"x_max":708,"ha":793,"o":"m 697 458 l 617 0 l 503 0 l 583 453 q 592 509 589 485 q 596 548 596 534 q 563 637 596 605 q 473 669 530 669 q 316 601 382 669 q 230 420 250 533 l 156 0 l 44 0 l 229 1055 l 341 1055 l 269 639 q 378 740 311 703 q 518 778 444 778 q 658 723 608 778 q 708 571 708 669 q 705 518 708 546 q 697 458 702 490 m 134 0 q 166 -64 156 -34 q 177 -122 177 -93 q 132 -229 177 -190 q 9 -268 87 -268 q -43 -263 -17 -268 q -95 -251 -69 -259 l -81 -163 q -33 -179 -57 -174 q 15 -185 -9 -185 q 74 -164 52 -185 q 96 -107 96 -143 q 88 -63 96 -87 q 61 0 80 -39 l 134 0 "},"Ў":{"x_min":30.515625,"x_max":828.71875,"ha":762,"o":"m 109 1012 l 242 1012 l 364 418 l 696 1013 l 828 1013 l 332 122 q 290 63 314 88 q 77 0 230 0 l 30 0 l 50 115 l 88 115 q 186 129 161 115 q 228 173 211 144 l 267 245 l 109 1012 m 319 1289 l 392 1289 q 423 1229 399 1247 q 493 1211 447 1211 q 579 1229 545 1211 q 630 1289 612 1248 l 702 1289 q 625 1168 681 1212 q 491 1125 569 1125 q 374 1166 417 1125 q 319 1289 331 1207 "},"⋎":{"x_min":60.359375,"x_max":855.171875,"ha":916,"o":"m 60 804 l 191 804 q 457 232 419 554 q 723 804 502 553 l 855 804 q 514 0 576 544 l 400 0 q 60 804 339 544 "},"┛":{"x_min":-12.25,"x_max":473,"ha":752,"o":"m -12 278 l -12 511 l 278 511 l 278 1350 l 473 1350 l 473 278 l -12 278 "},"╕":{"x_min":-12.078125,"x_max":425,"ha":753,"o":"m 327 -419 l 327 220 l -12 220 l -12 337 l 327 337 l 327 453 l -12 453 l -12 570 l 425 570 l 425 -419 l 327 -419 "},"𝕊":{"x_min":83,"x_max":723,"ha":794,"o":"m 205 898 q 144 732 144 837 q 185 574 144 626 q 332 494 227 522 l 400 477 q 554 387 503 450 q 606 237 606 325 q 582 97 606 150 q 662 278 662 157 q 614 462 662 399 q 462 552 566 525 l 395 570 q 240 650 288 597 q 192 780 192 703 q 205 898 192 857 m 669 979 l 669 903 q 447 983 543 983 q 302 936 351 983 q 253 811 253 890 q 286 696 253 732 q 409 636 319 660 l 476 618 q 661 504 599 584 q 723 281 723 424 q 635 56 723 137 q 396 -24 547 -24 q 86 44 245 -24 l 86 129 q 332 28 223 28 q 493 77 442 28 q 545 212 545 127 q 507 344 545 298 q 386 411 470 389 l 318 428 q 139 530 195 460 q 83 735 83 601 q 168 952 83 869 q 391 1035 253 1035 q 669 979 529 1035 "},"ǚ":{"x_min":71,"x_max":735.671875,"ha":792,"o":"m 83 300 l 163 758 l 276 758 l 196 305 q 187 248 190 271 q 185 208 185 224 q 216 119 185 151 q 306 88 248 88 q 462 155 396 88 q 548 338 528 223 l 623 759 l 735 759 l 603 0 l 490 0 l 513 118 q 400 15 466 52 q 260 -21 334 -21 q 121 33 171 -21 q 71 186 71 88 q 74 237 71 206 q 83 300 77 267 m 570 1078 l 441 1078 l 344 1258 l 426 1258 l 511 1137 l 638 1258 l 730 1258 l 570 1078 m 318 1055 l 442 1055 l 417 917 l 294 917 l 318 1055 m 557 1055 l 680 1055 l 657 917 l 533 917 l 557 1055 "},"⊇":{"x_min":132,"x_max":931,"ha":1047,"o":"m 132 102 l 900 102 l 900 0 l 132 0 l 132 102 m 132 203 l 132 305 l 639 305 q 781 370 722 305 q 839 527 839 433 q 781 684 839 619 q 639 750 723 750 l 132 750 l 132 852 l 639 852 q 845 757 761 852 q 931 527 931 661 q 846 297 931 391 q 639 203 762 203 l 132 203 "},"ᒔ":{"x_min":110.546875,"x_max":1018.609375,"ha":1019,"o":"m 134 572 l 259 572 l 235 433 l 110 433 l 134 572 m 887 710 q 859 866 904 809 q 737 924 815 924 q 603 872 675 924 q 513 710 532 821 l 389 0 l 265 0 l 389 709 q 515 951 417 870 q 756 1033 612 1033 q 964 956 889 1033 q 1010 710 1039 880 l 887 710 "},"Վ":{"x_min":135.09375,"x_max":968.03125,"ha":1103,"o":"m 608 0 l 661 307 q 425 240 552 240 q 182 341 257 240 q 146 640 111 438 l 168 760 l 291 760 l 273 656 q 285 422 245 494 q 444 351 326 351 q 629 422 562 351 q 722 656 694 492 l 785 1012 l 909 1012 l 753 119 l 796 119 q 934 57 887 119 q 961 -120 982 -4 l 954 -168 l 858 -168 l 863 -134 q 852 -33 876 -61 q 775 0 825 0 l 608 0 "},"⪆":{"x_min":132,"x_max":916,"ha":1048,"o":"m 916 54 l 916 -67 q 796 -143 851 -120 q 683 -167 742 -167 q 526 -127 615 -167 q 516 -122 520 -124 q 503 -117 512 -121 q 351 -76 409 -76 q 245 -101 297 -76 q 133 -183 192 -127 l 133 -62 q 251 13 196 -9 q 365 37 305 37 q 522 -2 432 37 q 531 -7 529 -6 q 544 -12 535 -8 q 696 -54 639 -54 q 801 -28 749 -54 q 916 54 852 -3 m 916 275 l 916 154 q 796 77 851 100 q 683 54 742 54 q 526 93 615 54 q 516 98 520 96 q 503 104 512 100 q 351 145 409 145 q 245 119 297 145 q 133 37 192 93 l 133 158 q 251 234 196 211 q 365 258 305 258 q 522 218 432 258 q 531 214 528 215 q 544 207 535 211 q 696 167 639 167 q 801 192 749 167 q 916 275 852 217 m 132 801 l 132 921 l 915 672 l 915 557 l 132 307 l 132 428 l 718 614 l 132 801 "},"•":{"x_min":187,"x_max":550,"ha":737,"o":"m 187 516 q 239 658 187 600 q 369 717 292 717 q 497 658 445 717 q 550 516 550 600 q 497 373 550 431 q 368 315 444 315 q 239 373 292 315 q 187 516 187 431 "},"Ἲ":{"x_min":63.75,"x_max":759.546875,"ha":793,"o":"m 438 1111 l 566 857 l 472 857 l 318 1111 l 438 1111 m 243 1006 q 63 826 211 826 l 75 895 q 176 1000 158 895 l 94 1000 l 113 1107 l 260 1107 l 243 1006 m 635 1013 l 759 1013 l 581 0 l 458 0 l 635 1013 "},"⠢":{"x_min":183,"x_max":732,"ha":915,"o":"m 183 700 l 366 700 l 366 497 l 183 497 l 183 700 m 549 316 l 732 316 l 732 113 l 549 113 l 549 316 "},"◊":{"x_min":3.390625,"x_max":613.75,"ha":617,"o":"m 308 955 l 73 401 l 308 -158 l 543 401 l 308 955 m 308 1121 l 613 401 l 308 -323 l 3 401 l 308 1121 "},"ḅ":{"x_min":45.8125,"x_max":735,"ha":795,"o":"m 620 463 q 579 617 620 561 q 467 673 538 673 q 369 644 414 673 q 290 563 323 616 q 234 432 254 506 q 214 284 214 358 q 254 137 214 190 q 364 84 294 84 q 462 111 417 84 q 541 192 507 138 q 598 322 577 248 q 620 463 620 396 m 270 643 q 374 741 311 706 q 505 777 437 777 q 672 698 610 777 q 735 485 735 619 q 698 272 735 375 q 595 89 662 169 q 493 8 550 36 q 372 -20 436 -20 q 257 13 306 -20 q 178 114 208 47 l 157 0 l 45 0 l 230 1055 l 343 1055 l 270 643 m 229 -118 l 353 -118 l 329 -256 l 204 -256 l 229 -118 "},"ᾃ":{"x_min":56,"x_max":806.640625,"ha":824,"o":"m 336 -289 l 245 -289 q 218 -266 230 -289 q 214 -217 209 -248 l 241 -62 l 332 -62 l 305 -217 q 308 -235 303 -227 q 322 -244 314 -244 l 344 -244 l 336 -289 m 595 1111 l 723 857 l 629 857 l 475 1111 l 595 1111 m 251 1007 l 269 1108 l 416 1108 l 397 1001 l 316 1001 q 380 895 298 895 l 367 826 q 251 1007 220 826 m 512 353 l 512 510 q 403 671 512 671 q 271 595 322 671 q 186 378 208 502 q 193 158 161 229 q 302 86 228 86 q 453 230 384 86 l 512 353 m 422 778 q 612 561 612 778 q 706 760 611 561 l 806 760 l 608 348 l 608 199 q 624 138 608 166 q 662 105 643 105 l 717 105 l 698 0 l 630 0 q 531 56 573 0 q 511 145 511 85 q 403 10 471 72 q 283 -17 370 -17 q 88 85 140 -17 q 68 380 35 191 q 197 674 104 582 q 422 778 301 778 "},"ᴌ":{"x_min":-10.171875,"x_max":575.765625,"ha":728,"o":"m 181 777 l 295 777 l 246 498 l 341 564 l 375 492 l 227 389 l 179 115 l 575 115 l 555 0 l 46 0 l 99 300 l 22 247 l -10 319 l 118 408 l 181 777 "},"⇍":{"x_min":61,"x_max":976,"ha":1047,"o":"m 619 507 l 244 507 l 180 435 l 244 364 l 545 364 l 619 507 m 725 507 l 651 364 l 976 364 l 976 283 l 609 283 l 537 145 l 458 196 l 503 283 l 317 283 l 374 219 l 301 138 l 61 404 l 61 466 l 301 732 l 374 651 l 317 588 l 661 588 l 733 725 l 812 674 l 767 588 l 976 588 l 976 507 l 725 507 "},"Ầ":{"x_min":-65.78125,"x_max":769.71875,"ha":855,"o":"m 461 1012 l 600 1012 l 769 0 l 640 0 l 602 260 l 193 260 l 64 0 l -65 0 l 461 1012 m 505 877 l 249 374 l 583 374 l 505 877 m 503 1289 l 634 1289 l 731 1109 l 649 1109 l 563 1229 l 435 1109 l 343 1109 l 503 1289 m 340 1428 l 430 1249 l 345 1249 l 229 1428 l 340 1428 "},"✸":{"x_min":51.546875,"x_max":996.234375,"ha":1047,"o":"m 523 1031 l 627 784 l 857 877 l 773 621 l 996 505 l 773 390 l 857 134 l 627 227 l 523 -19 l 419 227 l 189 134 l 273 390 l 51 505 l 273 621 l 189 877 l 419 784 l 523 1031 "},"Ỹ":{"x_min":78.671875,"x_max":845,"ha":763,"o":"m 484 1160 l 463 1177 l 462 1178 q 413 1200 436 1200 q 375 1182 391 1200 q 348 1131 359 1165 l 271 1131 q 330 1242 293 1205 q 420 1280 368 1280 q 460 1272 441 1280 q 501 1248 478 1265 l 520 1230 q 543 1216 531 1220 q 566 1212 554 1212 q 607 1230 590 1212 q 632 1280 625 1248 l 708 1280 q 650 1168 688 1205 q 556 1131 611 1131 q 520 1138 537 1131 q 484 1160 503 1145 m 78 1013 l 210 1013 l 381 596 l 705 1013 l 845 1013 l 431 482 l 347 0 l 223 0 l 307 482 l 78 1013 "},"✫":{"x_min":28.953125,"x_max":1017.359375,"ha":1047,"o":"m 599 659 q 523 676 563 676 q 447 659 482 676 q 383 611 412 641 q 340 539 354 577 q 326 454 326 499 q 340 370 326 410 q 383 298 354 332 q 447 250 412 267 q 523 234 482 234 q 599 250 563 234 q 662 298 633 267 q 706 370 692 332 q 721 454 721 410 q 706 539 721 499 q 662 611 692 577 q 599 659 633 641 m 523 1032 l 639 633 l 1017 633 l 712 386 l 828 -12 l 523 234 l 217 -12 l 334 386 l 28 633 l 406 633 l 523 1032 "},"⢬":{"x_min":183,"x_max":732,"ha":915,"o":"m 183 317 l 366 317 l 366 114 l 183 114 l 183 317 m 549 1085 l 732 1085 l 732 882 l 549 882 l 549 1085 m 549 317 l 732 317 l 732 114 l 549 114 l 549 317 m 549 -68 l 732 -68 l 732 -271 l 549 -271 l 549 -68 "},"✺":{"x_min":68,"x_max":979,"ha":1047,"o":"m 487 710 l 487 1013 l 560 1013 l 560 712 l 663 989 l 731 958 l 627 680 l 819 893 l 871 835 l 679 622 l 930 738 l 958 662 l 706 547 l 979 547 l 979 466 l 709 466 l 958 350 l 930 275 l 679 391 l 871 177 l 819 119 l 628 332 l 731 54 l 663 23 l 560 300 l 560 0 l 487 0 l 487 301 l 383 23 l 315 54 l 419 333 l 227 119 l 175 177 l 367 390 l 116 275 l 87 350 l 338 466 l 68 466 l 68 547 l 340 547 l 87 662 l 116 738 l 366 623 l 175 835 l 227 893 l 418 681 l 315 958 l 383 989 l 487 710 "},"✢":{"x_min":51.515625,"x_max":996.171875,"ha":1047,"o":"m 493 540 l 493 561 q 447 771 493 688 q 420 898 420 818 q 453 998 420 966 q 523 1031 487 1031 q 595 998 560 1031 q 628 898 628 966 q 601 771 628 818 q 554 561 554 688 l 554 540 l 573 540 q 762 591 687 540 q 876 622 804 622 q 967 585 937 622 q 996 506 996 547 q 967 427 996 465 q 876 391 937 391 q 762 420 804 391 q 573 472 687 472 l 554 472 l 554 450 q 601 241 554 323 q 628 114 628 194 q 595 13 628 46 q 523 -19 560 -19 q 453 13 487 -19 q 420 114 420 46 q 447 241 420 194 q 493 450 493 323 l 493 472 l 473 472 q 285 420 360 472 q 170 391 242 391 q 80 427 109 391 q 51 506 51 465 q 80 585 51 547 q 170 622 109 622 q 285 591 242 622 q 473 540 360 540 l 493 540 "},"ẽ":{"x_min":58,"x_max":714,"ha":770,"o":"m 385 929 l 357 966 q 340 984 349 977 q 320 993 330 990 q 281 968 296 993 q 255 888 265 943 l 179 888 q 237 1029 197 980 q 331 1079 276 1079 q 373 1068 354 1079 q 409 1037 393 1058 l 437 1000 q 453 983 445 989 q 473 974 462 977 q 511 998 496 974 q 538 1079 526 1022 l 615 1079 q 558 937 597 986 q 462 888 519 888 q 419 898 439 888 q 385 929 399 908 m 600 447 q 603 469 602 457 q 605 492 605 481 q 561 623 605 575 q 442 672 517 672 q 295 613 359 672 q 198 447 231 554 l 600 447 m 699 350 l 177 350 q 172 309 173 324 q 171 283 171 294 q 223 137 171 189 q 370 85 275 85 q 508 104 443 85 q 630 157 573 122 l 608 34 q 483 -6 548 7 q 352 -20 419 -20 q 134 55 210 -20 q 58 270 58 131 q 95 491 58 389 q 207 673 133 593 q 321 750 255 723 q 460 777 387 777 q 645 700 576 777 q 714 493 714 623 q 710 426 714 461 q 699 350 706 390 "},"ĕ":{"x_min":58,"x_max":714,"ha":770,"o":"m 320 1090 l 389 1090 l 389 1080 q 414 1011 389 1034 q 492 989 440 989 q 578 1013 544 989 q 630 1090 611 1038 l 701 1090 q 623 946 682 996 q 476 896 565 896 q 358 939 398 896 q 318 1068 318 983 q 319 1079 318 1072 q 320 1090 320 1087 m 600 447 q 603 469 602 457 q 605 492 605 481 q 561 623 605 575 q 442 672 517 672 q 295 613 359 672 q 198 447 231 554 l 600 447 m 699 350 l 177 350 q 172 309 173 324 q 171 283 171 294 q 223 137 171 189 q 370 85 275 85 q 508 104 443 85 q 630 157 573 122 l 608 34 q 483 -6 548 7 q 352 -20 419 -20 q 134 55 210 -20 q 58 270 58 131 q 95 491 58 389 q 207 673 133 593 q 321 750 255 723 q 460 777 387 777 q 645 700 576 777 q 714 493 714 623 q 710 426 714 461 q 699 350 706 390 "},"ż":{"x_min":-2.71875,"x_max":679.53125,"ha":656,"o":"m 374 1053 l 498 1053 l 474 915 l 349 915 l 374 1053 m 145 760 l 679 760 l 659 645 l 144 100 l 569 100 l 552 0 l -2 0 l 16 114 l 531 660 l 128 660 l 145 760 "},"⏏":{"x_min":113,"x_max":1067,"ha":1180,"o":"m 1067 456 l 113 456 l 589 827 l 1067 456 m 1067 0 l 113 0 l 113 342 l 1067 342 l 1067 0 "},"⠸":{"x_min":549,"x_max":732,"ha":915,"o":"m 549 1085 l 732 1085 l 732 882 l 549 882 l 549 1085 m 549 700 l 732 700 l 732 497 l 549 497 l 549 700 m 549 316 l 732 316 l 732 113 l 549 113 l 549 316 "},"➆":{"x_min":5,"x_max":1041,"ha":1046,"o":"m 698 976 q 523 1015 617 1015 q 347 976 429 1015 q 200 864 266 939 q 99 700 132 789 q 66 503 66 609 q 99 310 66 401 q 200 146 132 221 q 347 34 266 70 q 523 -4 429 -4 q 698 34 617 -4 q 845 146 779 70 q 946 310 913 221 q 980 503 980 401 q 946 700 980 609 q 845 864 913 789 q 698 976 779 939 m 286 911 l 755 911 l 755 864 l 490 100 l 387 100 l 636 819 l 286 819 l 286 911 m 324 1039 q 523 1083 417 1083 q 722 1039 629 1083 q 889 912 813 997 q 1003 726 966 827 q 1041 503 1041 623 q 1003 284 1041 386 q 889 97 966 183 q 722 -28 813 13 q 523 -72 629 -72 q 324 -28 417 -72 q 156 98 232 13 q 43 284 80 183 q 5 503 5 387 q 43 726 5 623 q 156 912 80 827 q 324 1039 232 997 "},"שׁ":{"x_min":46.796875,"x_max":981.3125,"ha":1010,"o":"m 889 970 l 981 970 l 963 868 l 872 868 l 889 970 m 46 0 l 180 759 l 292 759 l 229 403 q 450 524 394 403 q 508 759 477 580 l 621 759 q 543 475 585 549 q 213 305 446 305 l 177 97 q 479 126 379 97 q 686 271 607 163 q 850 760 790 415 l 963 760 q 793 250 900 399 q 353 0 614 0 l 46 0 "},"ȼ":{"x_min":-62.390625,"x_max":750.734375,"ha":687,"o":"m -12 -64 l -62 -11 l 80 144 q 69 378 45 240 q 212 671 101 564 q 482 777 322 777 q 582 766 535 777 q 634 748 609 759 l 701 821 l 750 768 l 661 671 l 651 613 q 624 630 638 623 l 205 173 q 210 162 207 167 q 366 85 257 85 q 466 100 415 85 q 569 144 516 114 l 549 28 q 445 -7 498 4 q 336 -20 393 -20 q 117 77 189 -20 l -12 -64 m 181 254 l 553 660 q 469 672 512 672 q 286 595 360 672 q 187 378 212 518 q 181 254 175 309 "},"Ӟ":{"x_min":2.03125,"x_max":747.78125,"ha":801,"o":"m 296 1268 l 420 1268 l 395 1130 l 272 1130 l 296 1268 m 535 1268 l 658 1268 l 634 1130 l 511 1130 l 535 1268 m 448 1031 q 682 960 599 1031 q 743 768 764 889 q 675 625 729 683 q 538 545 621 567 q 660 457 623 524 q 681 293 698 391 q 532 58 655 137 q 265 -20 410 -20 q 107 2 190 -20 q 2 43 25 24 l 26 184 q 158 109 109 124 q 282 95 206 95 q 469 143 397 95 q 558 293 541 192 q 527 433 575 383 q 360 484 479 484 l 236 484 l 255 597 l 385 597 q 549 637 494 597 q 618 754 604 677 q 589 874 632 832 q 426 916 547 916 q 315 907 344 916 q 151 847 285 899 l 174 980 q 322 1019 248 1008 q 448 1031 396 1031 "},"Ѐ":{"x_min":33.90625,"x_max":787.359375,"ha":789,"o":"m 210 1013 l 787 1013 l 767 898 l 314 898 l 261 597 l 696 597 l 676 482 l 241 482 l 177 115 l 641 115 l 621 0 l 33 0 l 210 1013 m 540 1288 l 630 1109 l 545 1109 l 429 1288 l 540 1288 "},"𝌉":{"x_min":104,"x_max":1009,"ha":1121,"o":"m 107 396 l 467 396 l 472 391 l 472 264 l 467 260 l 107 260 l 104 264 l 104 391 l 107 396 m 644 396 l 1004 396 l 1009 391 l 1009 264 l 1004 260 l 644 260 l 641 264 l 641 391 l 644 396 m 107 657 l 1004 657 l 1009 652 l 1009 525 l 1004 521 l 107 521 l 104 525 l 104 652 l 107 657 m 107 136 l 1004 136 l 1009 131 l 1009 4 l 1004 0 l 107 0 l 104 4 l 104 131 l 107 136 m 107 917 l 1004 917 l 1009 912 l 1009 785 l 1004 781 l 107 781 l 104 785 l 104 912 l 107 917 "},"┦":{"x_min":-12.25,"x_max":473,"ha":752,"o":"m 327 -420 l 327 336 l -12 336 l -12 453 l 278 453 l 278 1351 l 473 1351 l 473 336 l 425 336 l 425 -420 l 327 -420 "},"⡢":{"x_min":183,"x_max":732,"ha":915,"o":"m 183 701 l 366 701 l 366 498 l 183 498 l 183 701 m 549 317 l 732 317 l 732 114 l 549 114 l 549 317 m 183 -68 l 366 -68 l 366 -271 l 183 -271 l 183 -68 "},"︈":{"x_min":0,"x_max":0,"ha":0},"ʨ":{"x_min":72.5625,"x_max":954.859375,"ha":973,"o":"m 322 975 l 284 760 l 516 760 l 501 676 q 766 778 610 778 q 865 766 817 778 q 954 730 912 754 l 934 614 q 846 658 892 643 q 752 672 801 672 q 569 595 643 672 q 471 379 495 518 q 493 163 446 240 l 497 157 q 691 273 566 273 q 845 106 874 273 q 764 -1 832 26 q 619 -22 716 -22 q 526 -9 568 -22 q 509 -96 519 -43 l 416 -96 q 436 1 425 -43 l 267 1 q 98 55 137 1 q 82 250 58 108 l 155 663 l 72 663 l 89 760 l 172 760 l 210 975 l 322 975 m 562 103 q 649 87 599 87 q 721 91 708 87 q 745 125 741 99 q 674 176 754 176 q 569 117 604 176 q 562 103 565 111 m 382 105 q 352 379 323 211 q 486 663 383 557 l 267 663 l 195 250 q 198 131 179 157 q 286 105 216 105 l 382 105 "},"⡔":{"x_min":183,"x_max":732,"ha":915,"o":"m 183 317 l 366 317 l 366 114 l 183 114 l 183 317 m 549 701 l 732 701 l 732 498 l 549 498 l 549 701 m 183 -68 l 366 -68 l 366 -271 l 183 -271 l 183 -68 "},"⟅":{"x_min":1,"x_max":472,"ha":488,"o":"m 327 -227 q 289 -227 321 -227 q 225 -219 258 -227 q 1 9 1 -170 q 5 66 1 36 q 197 527 25 184 q 376 926 368 871 q 376 937 376 932 q 325 980 376 980 q 247 887 290 980 l 169 920 q 356 1067 226 1067 l 357 1067 q 472 968 472 1067 q 467 929 472 950 q 290 498 449 820 q 110 80 131 177 q 105 32 105 55 q 241 -117 105 -77 q 308 -132 287 -132 q 320 -132 309 -132 q 343 -129 331 -132 l 327 -227 "},"↔":{"x_min":61,"x_max":986,"ha":1047,"o":"m 61 405 l 61 465 l 301 732 l 374 651 l 231 493 l 815 493 l 673 651 l 746 732 l 986 465 l 986 405 l 746 138 l 673 219 l 815 378 l 231 378 l 374 219 l 301 138 l 61 405 "},"ⱬ":{"x_min":4.0625,"x_max":685.625,"ha":656,"o":"m 151 760 l 685 760 l 665 645 l 147 100 l 682 100 l 632 -191 l 519 -191 l 552 0 l 4 0 l 23 114 l 541 660 l 134 660 l 151 760 "}}}
